<?xml version="1.0" standalone="no"?>
<!DOCTYPE svg PUBLIC "-//W3C//DTD SVG 20010904//EN"
 "http://www.w3.org/TR/2001/REC-SVG-20010904/DTD/svg10.dtd">
<svg version="1.0" xmlns="http://www.w3.org/2000/svg"
 width="1000.000000pt" height="1000.000000pt" viewBox="0 0 1000.000000 1000.000000"
 preserveAspectRatio="xMidYMid meet">
<metadata>
Created by potrace 1.14, written by Peter Selinger 2001-2017
</metadata>
<g transform="translate(0.000000,1000.000000) scale(0.100000,-0.100000)"
fill="#000000" stroke="none">
<path d="M5600 9979 c-13 -5 -33 -9 -45 -8 -55 4 -145 -2 -145 -10 0 -5 16
-12 35 -15 20 -4 33 -11 30 -15 -5 -10 28 -21 63 -21 12 0 22 5 22 10 0 6 -12
10 -27 10 -20 0 -24 3 -15 12 8 8 25 7 69 -6 95 -29 103 -30 103 -13 0 14 4
14 34 2 19 -8 67 -18 106 -21 63 -6 70 -5 64 10 -7 19 -2 20 51 5 34 -10 37
-13 20 -20 -15 -5 -8 -8 26 -8 25 -1 50 4 57 11 10 10 37 3 71 -19 13 -9 -27
-33 -55 -33 -24 0 -34 -5 -34 -15 0 -12 -13 -15 -59 -15 -33 0 -66 -3 -75 -6
-14 -5 -14 -8 -1 -27 8 -12 15 -25 15 -29 0 -16 -48 -7 -65 12 -21 23 -75 27
-75 6 0 -8 -15 -16 -35 -19 -42 -7 -67 -29 -59 -52 5 -13 2 -15 -22 -9 -16 4
-38 11 -49 15 -16 6 -17 8 -3 8 9 1 20 10 23 21 3 11 15 20 25 20 13 0 17 5
14 15 -4 10 0 15 11 15 9 0 15 6 13 13 -4 11 -147 65 -178 66 -28 1 30 -38 66
-45 36 -7 47 -24 15 -24 -34 0 -49 -10 -44 -31 8 -29 -48 -25 -85 6 -41 34
-90 51 -105 36 -8 -8 -8 -11 0 -11 6 0 14 -7 17 -16 5 -13 1 -14 -23 -9 -39 8
-51 -12 -21 -37 29 -24 50 -23 50 2 0 27 34 26 63 -2 l22 -23 -42 -3 c-29 -2
-43 -8 -43 -17 0 -12 -10 -13 -45 -8 -36 5 -45 3 -45 -10 0 -9 -13 -17 -33
-21 -35 -6 -83 -47 -70 -59 3 -4 26 -7 51 -7 35 0 45 4 49 19 5 20 52 35 79
24 14 -5 16 -2 12 15 -5 19 -2 22 24 22 21 0 39 -10 60 -32 16 -18 39 -37 51
-43 12 -6 26 -19 32 -30 5 -11 20 -35 33 -53 25 -35 63 -44 60 -14 -6 73 20
98 69 67 29 -19 21 -32 -22 -37 -33 -3 -43 -27 -27 -62 6 -11 13 -28 16 -36 4
-8 17 -34 31 -58 l24 -43 -34 -21 c-29 -17 -33 -23 -25 -39 24 -44 107 -4 94
45 -4 18 0 27 15 36 12 6 19 16 15 21 -3 6 2 17 12 25 18 14 18 14 -1 26 -10
6 -30 22 -43 35 -23 23 -23 25 -6 44 9 10 25 19 34 19 21 0 44 -25 36 -38 -7
-11 18 -34 62 -56 17 -9 32 -24 32 -32 0 -26 81 -93 113 -94 31 0 33 7 10 39
l-16 24 43 -6 c28 -3 50 -1 64 8 12 7 54 16 94 20 67 7 72 6 72 -13 0 -30 -25
-44 -83 -47 -37 -1 -60 -8 -73 -21 -11 -10 -47 -25 -82 -33 -41 -9 -66 -20
-73 -32 -5 -11 -16 -19 -23 -19 -23 0 -48 37 -45 67 2 19 -4 36 -18 50 -11 11
-23 27 -26 34 -3 10 -15 3 -40 -23 l-34 -36 25 -26 c21 -21 23 -27 12 -40 -7
-9 -22 -16 -34 -16 -12 0 -32 -10 -46 -23 -23 -21 -28 -22 -57 -10 -17 7 -36
21 -42 30 -9 15 -10 13 -11 -13 0 -22 -11 -42 -35 -67 -20 -21 -40 -37 -45
-37 -6 0 -10 -6 -10 -14 0 -22 49 -29 77 -11 35 23 56 13 41 -20 -8 -19 -8
-31 0 -50 16 -34 36 -31 60 9 20 34 20 36 3 58 -38 50 -31 79 11 41 17 -15 19
-15 38 2 15 14 19 26 15 46 -6 25 -4 27 39 33 25 4 51 4 56 1 16 -10 -8 -35
-31 -35 -25 0 -24 -6 5 -41 23 -27 24 -27 41 -9 9 10 29 20 44 22 18 2 27 10
29 26 4 24 10 26 30 13 10 -6 10 -10 -1 -20 -10 -7 -13 -23 -10 -45 4 -29 1
-34 -21 -40 -44 -11 -29 -23 28 -22 30 0 58 -3 62 -7 4 -3 -1 -18 -10 -31 -8
-14 -13 -31 -10 -39 6 -17 -19 -29 -41 -21 -12 5 -13 9 -4 20 15 18 11 22 -29
30 -22 4 -32 3 -32 -5 0 -7 -6 -9 -12 -6 -7 3 -3 -2 10 -11 l23 -17 -22 -23
c-21 -22 -21 -24 -4 -31 19 -7 91 -7 135 -1 14 2 33 -2 43 -10 18 -16 24 -38
7 -27 -11 7 -80 -21 -80 -33 0 -5 9 -17 20 -27 17 -15 24 -16 47 -6 29 13 47
3 37 -22 -5 -13 -19 -17 -62 -17 -31 0 -75 -7 -99 -16 -65 -25 -95 -5 -52 35
13 12 19 26 15 36 -8 23 -87 14 -122 -14 -14 -11 -46 -23 -71 -27 -58 -8 -88
-36 -73 -65 6 -11 17 -22 24 -25 19 -7 7 -62 -16 -70 -20 -6 -68 19 -68 36 0
6 -9 10 -20 10 -23 0 -27 -25 -5 -34 29 -11 18 -70 -20 -109 -19 -20 -35 -43
-35 -52 0 -8 -11 -25 -25 -37 -14 -12 -25 -32 -25 -44 0 -13 -6 -27 -14 -31
-7 -4 -26 -26 -40 -48 -29 -43 -46 -53 -88 -54 -17 -1 -29 -8 -32 -19 -4 -11
-18 -30 -32 -43 -20 -18 -29 -21 -42 -13 -41 26 -22 68 39 84 22 6 44 20 50
33 7 12 23 35 36 51 14 17 29 40 34 53 5 13 19 27 31 32 36 14 57 44 67 96 13
69 7 78 -43 71 -48 -8 -80 -41 -65 -68 5 -9 9 -21 9 -27 0 -16 -42 -51 -62
-51 -26 0 -68 -45 -68 -73 0 -14 -19 -43 -50 -75 -27 -29 -50 -55 -50 -60 0
-4 9 -15 19 -24 25 -21 18 -51 -21 -96 -15 -18 -28 -37 -28 -41 0 -11 -173
-97 -212 -107 -35 -8 -35 2 -3 62 14 26 25 52 25 59 0 7 8 19 18 28 13 12 26
14 62 7 25 -5 48 -9 52 -10 4 0 14 13 22 29 13 25 13 31 0 50 -19 27 -33 27
-78 -4 -20 -14 -45 -25 -55 -25 -22 0 -63 42 -59 61 2 8 -7 15 -21 17 -21 3
-23 1 -17 -22 5 -20 0 -29 -23 -47 -17 -12 -33 -29 -36 -37 -8 -22 15 -112 37
-141 10 -13 18 -40 18 -60 l0 -36 56 -1 c30 -1 58 -4 61 -8 8 -7 -48 -86 -71
-101 -11 -7 -22 -6 -36 3 -34 21 -79 15 -108 -16 -43 -45 -80 -64 -111 -57
-24 5 -37 -1 -75 -34 -30 -26 -67 -47 -104 -57 -71 -20 -82 -30 -44 -39 16 -3
37 -14 46 -24 15 -16 14 -20 -14 -46 -38 -36 -39 -62 -3 -71 22 -6 31 -2 55
26 31 37 52 32 46 -11 -2 -17 -13 -26 -38 -34 -19 -6 -45 -16 -57 -23 -12 -6
-28 -9 -36 -6 -29 11 -116 -44 -147 -92 -36 -58 -56 -135 -41 -163 18 -33 13
-58 -20 -96 l-32 -36 -22 21 c-12 11 -29 20 -39 20 -9 0 -44 -26 -77 -59 -59
-57 -65 -81 -17 -62 13 5 46 19 75 30 65 26 83 27 83 1 0 -37 -64 -140 -87
-140 -5 0 -23 16 -40 35 -17 19 -36 35 -43 35 -6 0 -9 -4 -6 -8 2 -4 -9 -14
-25 -21 -32 -14 -48 -53 -29 -76 20 -24 3 -49 -71 -106 -39 -30 -83 -64 -97
-75 -38 -30 -103 -127 -106 -158 -4 -34 -34 -66 -63 -66 -21 0 -23 4 -23 45 0
26 9 61 21 85 12 22 22 56 24 76 2 20 11 45 21 55 14 15 15 24 6 43 -15 34
-74 40 -130 14 -48 -23 -68 -54 -58 -91 l6 -25 38 21 c40 21 72 18 72 -6 0
-20 -54 -41 -85 -33 -23 6 -25 4 -25 -27 0 -18 5 -38 10 -43 25 -25 29 -72 9
-108 -10 -20 -19 -48 -19 -64 0 -15 -11 -43 -24 -63 -13 -19 -31 -51 -39 -71
-8 -20 -30 -45 -51 -57 -19 -12 -45 -36 -57 -52 -11 -16 -27 -29 -35 -29 -8 0
-37 -21 -65 -47 -27 -25 -52 -44 -55 -40 -3 3 -2 26 1 51 7 45 21 61 80 91 11
6 35 33 52 60 18 28 37 54 42 58 105 97 122 128 85 158 -12 10 -15 24 -10 56
5 35 2 44 -14 53 -27 14 -56 12 -70 -5 -15 -18 -55 -19 -98 -4 -21 7 -41 7
-69 0 -64 -18 -68 -24 -69 -98 0 -49 -7 -80 -23 -110 -21 -42 -21 -43 -2 -43
11 0 40 9 66 20 51 22 90 26 100 10 8 -13 -13 -50 -28 -50 -7 0 -33 -18 -59
-41 -34 -28 -49 -50 -54 -75 -6 -34 -48 -79 -64 -69 -12 8 -22 -30 -15 -57 5
-20 0 -27 -33 -46 -22 -12 -47 -22 -55 -22 -9 0 -29 -12 -44 -26 -15 -14 -40
-32 -55 -40 -16 -8 -28 -20 -28 -26 0 -6 -11 -26 -25 -44 -17 -22 -25 -45 -25
-73 0 -35 -4 -43 -30 -56 -16 -8 -39 -15 -52 -15 -13 0 -40 -11 -60 -25 -20
-14 -41 -25 -46 -25 -15 0 -42 -35 -42 -54 0 -14 5 -17 23 -11 12 4 31 6 43 6
12 0 33 13 48 29 48 55 104 23 71 -41 -18 -34 -17 -100 2 -106 14 -5 63 76 63
105 0 12 14 37 30 55 22 26 30 45 30 74 0 46 14 63 52 63 16 0 38 9 50 20 57
53 91 -17 39 -81 -18 -22 -21 -23 -46 -9 -26 14 -29 13 -50 -12 -30 -35 -44
-134 -21 -156 14 -14 18 -9 44 46 37 78 49 92 70 85 37 -13 40 -21 26 -81 -16
-69 -53 -106 -98 -97 -36 6 -93 -27 -98 -57 -2 -11 -10 -24 -18 -29 -62 -32
-100 -47 -133 -52 -70 -11 -88 -46 -38 -72 27 -13 31 -13 45 0 14 14 17 13 32
-10 18 -27 12 -60 -10 -52 -7 3 -28 -10 -46 -28 -28 -29 -31 -37 -23 -62 8
-24 17 -29 54 -34 35 -5 50 -2 77 16 25 17 40 20 70 15 21 -4 36 -11 34 -18
-5 -24 -64 -122 -74 -122 -5 0 -22 14 -38 31 l-29 32 -31 -27 c-36 -30 -43
-31 -60 -11 -21 25 -51 17 -92 -25 -41 -44 -47 -70 -23 -90 23 -19 14 -53 -17
-68 -36 -17 -55 -51 -37 -63 8 -5 24 -9 36 -9 16 0 25 -8 29 -26 7 -27 -7 -44
-37 -44 -19 0 -37 -21 -69 -82 -13 -27 -28 -48 -31 -48 -11 0 -29 60 -29 97 0
19 11 50 25 71 24 37 25 39 9 80 l-17 41 -28 -35 c-24 -30 -28 -45 -28 -92 1
-32 -2 -73 -4 -92 -3 -19 -9 -71 -13 -115 -9 -105 -33 -160 -71 -168 -20 -4
-32 0 -43 13 -8 10 -27 22 -43 25 -21 6 -27 13 -27 34 0 21 8 29 41 43 35 15
40 21 37 45 -3 25 -6 28 -38 25 -39 -3 -60 -24 -60 -59 0 -16 -11 -30 -35 -45
-21 -12 -35 -27 -33 -36 5 -27 55 -55 110 -60 29 -3 63 -11 75 -19 12 -8 31
-12 42 -8 28 9 33 -7 11 -43 -22 -36 -32 -39 -50 -17 -18 21 -30 19 -63 -12
-16 -16 -26 -21 -22 -12 3 9 -4 33 -16 53 -19 33 -23 35 -38 23 -9 -8 -28 -17
-43 -21 -19 -4 -28 -13 -28 -27 0 -20 4 -23 52 -33 22 -5 28 -12 28 -34 0 -15
-8 -36 -16 -47 -15 -20 -15 -20 -30 -1 -8 11 -14 26 -14 33 0 18 -39 16 -47
-3 -3 -9 4 -33 16 -54 25 -45 27 -83 5 -104 -36 -37 -74 -4 -56 48 17 45 15
83 -4 90 -9 3 -19 4 -24 1 -14 -8 -18 -58 -7 -82 8 -19 6 -29 -11 -52 -12 -16
-24 -41 -28 -55 -4 -19 -13 -26 -29 -26 -13 0 -27 5 -31 11 -10 17 -56 0 -91
-34 -27 -25 -33 -39 -33 -73 0 -27 -7 -51 -22 -69 -20 -26 -22 -27 -35 -9 -7
10 -13 26 -13 37 0 28 33 78 47 73 12 -5 14 1 17 45 2 30 56 69 108 79 28 6
52 10 54 10 9 0 3 49 -6 55 -23 14 4 115 31 115 6 0 17 7 26 16 14 14 14 17
-1 32 -13 14 -19 14 -34 4 -9 -7 -31 -19 -48 -27 -45 -21 -57 -40 -51 -80 5
-30 2 -37 -21 -53 -55 -39 -93 -32 -56 9 9 10 18 39 20 66 3 30 13 56 26 70
28 30 85 56 109 50 13 -4 25 3 35 18 12 19 22 23 44 19 26 -6 28 -4 35 34 4
28 15 46 32 57 24 16 24 17 7 36 -20 22 -34 25 -34 7 0 -25 -18 -40 -56 -48
-22 -4 -46 -10 -55 -14 -12 -5 -18 3 -28 34 -13 43 -21 49 -41 25 -11 -13 -9
-21 9 -46 22 -29 22 -31 4 -45 -63 -50 -72 -38 -75 100 -1 59 -6 110 -10 112
-25 16 18 81 65 97 20 7 22 28 5 45 -18 18 -36 15 -73 -14 -19 -14 -39 -23
-46 -19 -13 9 -4 62 15 84 22 26 27 51 12 57 -24 9 -55 -14 -76 -56 -17 -33
-26 -40 -49 -40 -17 0 -31 6 -35 16 -12 32 -6 82 14 107 25 31 25 45 1 76
l-18 24 -32 -24 c-17 -13 -30 -28 -27 -34 2 -5 11 -26 20 -46 15 -36 15 -36
-18 -68 -29 -28 -37 -31 -55 -22 -29 16 -27 62 4 99 14 17 25 37 25 47 0 31
-25 9 -51 -44 -35 -74 -57 -90 -114 -84 -44 6 -45 5 -45 -23 0 -38 -45 -104
-70 -104 -28 0 -70 -21 -70 -36 0 -7 17 -16 37 -19 73 -11 78 -12 94 -19 17
-7 30 17 43 76 4 15 16 36 27 47 20 18 20 20 2 30 -15 9 -12 10 19 11 39 0 60
-16 34 -26 -10 -4 -16 -19 -16 -41 0 -46 -13 -68 -49 -83 -20 -8 -37 -27 -51
-56 -13 -29 -30 -48 -48 -55 -35 -13 -99 -80 -107 -111 -5 -20 -1 -26 30 -37
26 -9 35 -17 31 -29 -2 -9 -8 -32 -11 -51 -4 -19 -20 -47 -36 -62 -32 -31 -40
-34 -55 -19 -16 16 -20 -41 -8 -113 5 -31 2 -45 -15 -68 -12 -16 -21 -40 -19
-52 2 -18 -2 -23 -29 -25 -38 -4 -52 -35 -35 -80 18 -44 19 -92 2 -102 -8 -5
-10 -10 -5 -10 14 0 45 -53 45 -77 0 -26 -68 -163 -84 -169 -7 -3 -10 -18 -8
-39 4 -31 8 -35 32 -35 17 0 30 7 35 18 6 16 7 16 16 -1 8 -13 7 -23 -3 -34
-7 -9 -12 -24 -10 -34 5 -29 -16 -31 -40 -4 -12 14 -32 25 -44 25 -12 0 -35
11 -51 24 -29 25 -83 45 -83 31 0 -4 14 -32 31 -61 27 -49 33 -53 59 -48 21 5
31 2 39 -14 7 -14 17 -18 36 -15 20 4 25 1 25 -16 0 -12 -6 -21 -15 -21 -8 0
-15 5 -15 10 0 6 -9 10 -20 10 -16 0 -20 -7 -20 -36 0 -28 -3 -35 -15 -31 -8
4 -17 2 -20 -3 -10 -16 -42 -12 -49 6 -11 29 -6 65 9 71 13 4 11 11 -12 35
-61 64 -86 83 -105 80 -12 -2 -24 2 -29 9 -10 16 -20 8 -22 -18 -1 -14 -7 -19
-18 -16 -13 4 -18 -2 -21 -24 -2 -18 -8 -27 -17 -25 -23 5 -29 -16 -17 -60 9
-32 8 -42 -1 -45 -7 -3 -13 -16 -13 -29 0 -22 -3 -23 -20 -14 -23 12 -24 11
-10 -24 7 -21 6 -26 -5 -26 -20 0 -37 37 -39 81 0 28 7 47 31 77 34 42 36 82
4 82 -12 0 -21 -15 -31 -51 -8 -28 -16 -45 -18 -38 -10 34 -46 98 -52 94 -4
-3 -4 -26 1 -52 5 -25 8 -51 7 -57 -1 -6 3 -21 10 -32 6 -12 11 -37 10 -55 -1
-33 21 -89 48 -119 7 -9 20 -36 29 -60 9 -24 22 -51 30 -61 9 -9 32 -49 53
-90 71 -138 146 -274 155 -280 5 -4 6 -12 2 -19 -5 -9 -4 -11 3 -6 7 4 14 -4
18 -21 11 -51 55 -157 72 -172 9 -9 18 -27 19 -41 2 -31 23 -79 112 -248 80
-150 190 -304 271 -378 113 -102 365 -284 465 -336 22 -11 47 -26 55 -33 8 -7
42 -27 75 -45 192 -106 335 -187 430 -244 148 -89 270 -166 425 -268 164 -108
349 -212 417 -236 32 -11 103 -37 158 -57 170 -62 365 -104 974 -210 80 -14
190 -36 245 -50 300 -72 629 -103 826 -76 41 6 127 17 190 26 64 8 169 29 235
45 66 17 121 30 123 30 2 0 1 4 -2 8 -5 8 11 17 94 55 19 8 57 18 84 22 33 5
45 10 36 15 -8 5 -18 6 -23 3 -5 -3 -8 0 -5 8 3 8 13 15 24 17 10 2 33 10 51
18 35 16 56 19 33 4 -13 -8 -12 -10 3 -10 9 0 17 -5 17 -11 0 -6 -10 -9 -23
-7 -13 3 -30 -3 -41 -14 -18 -16 -18 -18 -2 -18 9 0 33 8 54 19 20 10 77 31
126 46 49 14 99 32 110 40 12 7 39 18 61 25 22 7 45 17 52 22 7 5 17 7 23 3 5
-3 10 -2 10 2 0 5 37 17 83 27 45 10 116 27 157 38 41 11 123 33 183 49 109
29 152 50 162 82 4 11 14 16 28 13 12 -1 16 -1 8 1 -8 3 -1 12 20 25 25 15 29
22 19 28 -11 7 -8 11 13 19 16 6 36 11 45 11 14 0 15 -2 2 -10 -8 -5 -11 -12
-7 -16 4 -4 13 -2 19 4 7 7 19 12 28 12 9 0 33 9 55 20 37 19 65 19 35 0 -8
-6 -10 -10 -4 -10 16 0 35 25 26 34 -4 4 2 14 12 22 24 17 40 18 29 2 -4 -7 6
-4 22 6 59 38 74 51 75 64 0 6 3 12 8 12 4 0 30 18 57 41 28 22 65 53 84 67
55 44 131 120 131 132 0 6 4 9 9 5 10 -6 91 70 91 86 0 5 7 9 16 9 9 0 12 5 8
12 -5 8 -2 9 9 5 9 -3 19 -1 23 5 5 7 2 8 -7 3 -8 -5 -3 3 11 17 14 14 41 33
60 43 19 10 51 31 70 46 19 16 42 29 51 29 9 0 41 18 70 40 30 22 57 40 62 40
4 0 5 5 2 10 -3 6 1 10 9 10 8 0 28 12 43 26 15 14 21 22 13 18 -8 -4 5 14 30
40 24 25 50 44 57 42 7 -3 12 0 10 7 -1 7 6 11 17 9 14 -3 17 1 13 12 -4 10 4
24 24 38 17 13 40 40 51 61 11 22 22 37 24 34 3 -3 -2 -18 -12 -34 l-17 -28
22 21 c12 11 40 56 61 100 22 43 39 75 40 71 0 -5 -4 -17 -10 -27 -8 -15 -6
-18 14 -16 13 0 22 4 19 8 -2 5 1 16 7 25 10 16 11 16 5 -2 -12 -41 55 47 130
170 13 22 5 17 -28 -18 -51 -53 -51 -46 0 51 18 36 32 72 31 81 -2 9 3 15 10
13 6 -1 12 2 12 8 0 5 5 10 10 10 6 0 3 -11 -5 -24 -11 -16 -12 -25 -5 -28 7
-2 3 -15 -12 -33 -19 -25 -19 -28 -3 -15 24 18 27 22 65 90 17 30 24 46 16 36
-9 -11 -16 -15 -16 -8 0 6 13 26 29 44 15 18 35 47 44 63 8 17 38 57 66 89 40
47 51 69 56 105 3 25 13 60 23 77 29 53 93 146 98 141 6 -6 -44 -96 -73 -131
-19 -23 -21 -31 -11 -38 19 -12 57 36 64 83 4 22 11 42 17 46 6 3 7 1 3 -5 -4
-7 -1 -12 8 -12 15 0 66 89 66 114 0 6 11 19 24 31 20 17 99 154 119 208 10
27 -9 20 -22 -9 -17 -38 -25 -22 -11 21 7 20 14 34 17 31 16 -16 52 53 67 127
9 45 23 103 31 128 8 26 15 64 15 85 0 28 3 35 10 24 7 -11 11 -9 19 13 6 16
11 39 11 51 0 13 6 41 13 62 14 40 31 154 23 154 -3 0 -12 -35 -22 -77 -17
-77 -18 -77 -27 -43 -6 23 -5 59 3 105 7 38 12 96 11 127 -2 46 3 67 23 101
34 58 33 70 -4 28 -16 -18 -32 -50 -36 -70 -4 -20 -10 -42 -14 -50 -13 -23
-22 22 -11 52 5 14 7 27 4 31 -8 8 7 77 16 72 11 -7 57 106 70 172 6 29 11
103 10 165 -1 103 -2 110 -14 82 -12 -25 -14 -26 -15 -9 0 12 7 38 15 57 8 20
15 51 16 69 0 26 2 29 8 14 12 -32 20 -4 15 54 -2 34 2 70 11 95 8 22 19 82
24 134 14 126 25 130 18 6 l-6 -100 26 55 c15 30 32 58 37 62 7 4 6 47 -2 128
-8 80 -9 127 -2 138 7 13 10 1 11 -43 1 -55 2 -58 10 -27 6 18 9 61 7 95 -3
56 -4 60 -15 37 -11 -24 -12 -23 -12 15 1 66 13 128 28 133 11 4 12 -8 7 -59
l-7 -64 16 34 c11 24 14 48 9 78 -3 24 -2 56 4 71 6 15 13 36 17 47 4 11 6 53
5 94 -1 52 3 76 12 82 11 7 11 12 0 29 -15 24 -6 87 15 108 17 17 16 42 -1 65
-12 16 -14 11 -21 -38 -3 -30 -10 -57 -14 -59 -9 -6 -2 101 9 137 5 15 5 27 1
27 -14 0 -22 49 -12 68 9 15 10 13 11 -8 0 -14 4 -30 8 -37 14 -23 6 101 -12
177 -22 93 -67 242 -76 255 -5 6 -16 38 -25 72 -10 35 -21 60 -26 57 -5 -3 -6
2 -3 10 3 8 2 21 -2 28 -5 7 -10 20 -11 28 -5 32 -52 135 -60 132 -4 -1 -9 8
-11 20 -2 19 -1 20 8 8 19 -26 1 30 -25 75 -12 22 -28 58 -35 80 -7 22 -25 65
-41 95 -73 141 -131 277 -175 405 -78 229 -88 256 -133 345 -100 196 -187 314
-385 524 -116 121 -215 241 -356 428 -61 82 -220 244 -315 321 -92 75 -293
207 -314 207 -5 0 -16 6 -23 13 -12 12 -107 64 -388 210 -63 32 -179 93 -257
133 -78 41 -148 74 -155 74 -10 0 -9 -3 2 -11 13 -9 13 -10 0 -6 -8 2 -14 9
-13 16 4 15 -300 161 -336 161 -37 0 -62 9 -56 21 6 9 -45 39 -66 39 -7 0 -2
-9 11 -20 13 -11 21 -22 19 -23 -2 -2 -25 -2 -51 1 -39 3 -48 8 -48 23 0 13 7
19 22 19 17 0 19 3 10 12 -15 15 -104 49 -96 37 3 -5 -7 -9 -23 -10 -15 0 -22
-3 -15 -6 17 -7 15 -30 -3 -37 -19 -7 -65 10 -65 24 0 6 10 10 22 8 11 -2 23
3 25 10 3 6 0 12 -6 12 -6 0 -11 4 -11 8 0 5 15 7 33 5 31 -3 31 -2 -11 18
-24 11 -55 22 -68 23 -13 2 -27 6 -31 9 -15 15 -34 7 -28 -12 5 -17 0 -20 -36
-23 -66 -5 -60 -25 20 -60 38 -17 68 -35 65 -40 -3 -4 0 -8 5 -8 6 0 11 -4 11
-9 0 -16 -44 1 -75 29 -16 15 -57 40 -90 56 l-60 28 36 4 c26 2 38 9 42 23 4
14 14 19 39 19 l33 1 -35 15 c-80 35 -157 54 -219 55 -46 0 -60 3 -46 9 17 7
15 9 -12 9 -17 1 -35 -3 -38 -9 -3 -5 -33 -10 -67 -10 -51 0 -61 3 -65 19 -4
15 -16 20 -56 23 -29 3 -59 7 -67 11 -8 3 -26 1 -40 -4z m412 -198 c13 -6 45
-13 71 -16 32 -4 50 -12 54 -23 3 -9 13 -25 21 -34 13 -16 13 -18 -1 -24 -25
-9 -71 10 -83 35 -7 14 -14 19 -18 12 -4 -6 -4 -15 -1 -21 3 -5 0 -10 -7 -10
-8 0 -23 -6 -33 -14 -17 -12 -17 -16 -6 -30 10 -12 11 -20 3 -28 -6 -6 -8 -16
-6 -22 3 -7 -11 -20 -31 -29 l-36 -17 -61 40 c-34 22 -66 40 -70 40 -5 0 -8 6
-6 13 1 6 -6 25 -16 40 -23 33 -15 44 22 31 20 -7 28 -17 30 -39 2 -17 13 -40
24 -51 23 -26 78 -38 78 -17 0 7 -5 13 -10 13 -6 0 -8 10 -5 23 5 18 0 26 -20
37 -31 17 -16 30 35 30 57 1 66 13 30 44 l-32 26 26 0 c14 0 35 -4 48 -9z
m-447 -71 l20 -9 -20 0 c-11 0 -27 4 -35 9 -13 9 -13 10 0 9 8 0 24 -4 35 -9z
m725 -40 c8 -15 8 -20 -3 -20 -14 0 -37 19 -37 32 0 16 30 7 40 -12z m201 10
c10 -6 19 -17 19 -25 0 -11 12 -15 45 -15 35 0 43 3 39 15 -11 26 32 17 67
-15 18 -16 46 -32 63 -36 19 -4 25 -9 16 -12 -8 -2 -28 -18 -43 -35 -22 -23
-25 -32 -15 -38 7 -5 16 -9 21 -9 4 0 7 -4 7 -9 0 -19 -42 -22 -85 -5 -37 14
-47 14 -60 4 -9 -8 -31 -15 -48 -16 -18 -2 -48 -6 -67 -9 -19 -4 -47 -2 -62 4
-24 9 -26 12 -15 35 7 14 20 26 30 26 10 0 20 7 23 15 9 22 80 41 98 26 16
-13 166 -5 166 10 0 20 -151 41 -190 26 -8 -4 -40 -3 -70 1 -44 6 -50 10 -32
16 12 4 22 15 22 25 0 10 3 21 7 24 10 10 42 8 64 -3z m-884 -34 c30 0 31 0
16 -23 -21 -31 -76 -32 -97 -1 -20 28 -10 42 23 32 14 -4 40 -8 58 -8z m151 5
c8 -4 13 -12 12 -16 -1 -4 12 -22 29 -40 37 -39 37 -41 10 -48 -15 -4 -32 5
-61 33 -23 21 -55 45 -72 52 l-31 13 45 6 c25 3 47 7 50 7 3 1 11 -2 18 -7z
m477 -11 c3 -5 -1 -10 -9 -10 -24 0 -19 -19 8 -31 21 -10 23 -14 13 -30 -7
-11 -22 -19 -35 -19 -37 0 -37 -27 -1 -57 18 -16 45 -38 59 -51 l25 -23 -78 4
c-43 2 -83 9 -90 16 -8 8 -3 11 20 11 39 0 51 15 23 30 -30 16 -65 9 -64 -13
2 -24 -9 -21 -45 12 -38 36 -39 41 -1 41 25 0 30 4 30 25 0 14 6 27 13 29 65
17 72 22 70 49 -2 24 2 27 27 27 16 0 32 -4 35 -10z m135 -18 c0 -13 -40 -52
-53 -52 -7 0 -19 4 -27 10 -12 8 -12 10 3 16 9 3 17 12 17 20 0 9 11 14 30 14
17 0 30 -4 30 -8z m516 -37 c19 -15 19 -15 0 -30 -17 -13 -21 -13 -37 3 -11
12 -13 21 -7 30 13 16 20 15 44 -3z m-902 -122 c-26 -19 -73 -17 -81 4 -4 10
-1 19 6 21 7 2 17 16 22 30 l10 26 31 -34 c28 -32 29 -34 12 -47z m360 12 c37
-19 73 -35 79 -35 24 -1 57 -39 57 -64 0 -41 -54 -32 -71 11 -5 13 -23 32 -40
41 -18 9 -41 27 -52 40 -11 12 -27 22 -34 22 -7 0 -13 5 -13 10 0 14 -1 14 74
-25z m614 1 c2 -21 8 -41 15 -53 5 -8 3 -13 -3 -13 -6 0 -9 -4 -6 -9 3 -5 -1
-11 -9 -15 -8 -3 -21 -17 -27 -31 -10 -23 -16 -26 -44 -21 -17 4 -43 2 -57 -3
-19 -8 -36 -6 -61 4 -40 17 -86 20 -86 6 0 -5 9 -13 20 -16 11 -3 20 -11 20
-16 0 -11 -28 -11 -95 1 -29 5 -54 4 -59 -1 -13 -12 -26 -11 -26 1 0 22 37 48
78 55 35 6 42 10 42 30 0 27 -3 29 -42 39 -21 5 -32 1 -45 -14 -10 -11 -24
-20 -33 -20 -21 0 -62 29 -55 40 9 15 172 10 186 -6 6 -8 29 -14 50 -14 30 0
37 3 33 15 -4 8 -1 15 5 15 6 0 11 8 11 19 0 12 9 20 23 23 19 4 23 0 25 -24
2 -19 -3 -31 -14 -35 -14 -5 -14 -7 2 -16 16 -9 13 -12 -20 -21 -50 -15 -47
-29 8 -40 55 -11 96 3 96 34 0 13 9 22 25 26 32 8 32 24 0 54 -13 12 -22 26
-20 31 7 10 61 -11 63 -25z m-868 -66 c8 -5 11 -12 8 -15 -10 -10 -69 5 -62
16 7 12 35 11 54 -1z m1115 -31 c4 -6 5 -13 2 -16 -8 -7 -47 7 -47 18 0 13 37
11 45 -2z m-72 -26 c-7 -2 -19 -2 -25 0 -7 3 -2 5 12 5 14 0 19 -2 13 -5z
m-20 -19 c3 -4 2 -15 -4 -25 -8 -16 -6 -19 13 -20 13 0 32 -4 43 -9 13 -6 -6
-7 -50 -3 -41 3 -77 12 -88 21 -17 15 -16 16 10 28 31 14 66 17 76 8z m-675
-16 c6 -8 6 -22 1 -35 -12 -31 -79 -34 -79 -3 0 11 12 26 28 34 34 19 37 19
50 4z m522 -28 c11 -7 7 -10 -17 -10 -18 0 -33 -4 -33 -9 0 -5 -12 -11 -27
-14 -82 -18 -93 -19 -93 -9 0 20 35 37 89 43 31 3 58 7 61 7 3 1 12 -3 20 -8z
m-652 -28 c2 -12 12 -27 23 -33 11 -5 17 -14 14 -20 -4 -5 1 -23 9 -41 20 -38
20 -48 2 -48 -16 0 -26 -21 -26 -56 0 -19 -5 -24 -26 -24 -51 0 -66 23 -55 82
0 4 20 8 43 10 48 4 58 18 29 47 -27 27 -77 28 -84 2 -3 -12 -17 -21 -40 -25
-48 -9 -61 -26 -46 -60 9 -19 9 -32 2 -48 -11 -22 -12 -22 -62 31 -64 67 -64
89 -1 106 25 7 62 16 83 20 23 3 40 13 43 23 18 58 24 63 57 60 24 -2 33 -8
35 -26z m1019 12 c-3 -3 -12 -4 -19 -1 -8 3 -5 6 6 6 11 1 17 -2 13 -5z m-600
-17 c8 -9 -36 -57 -53 -57 -32 0 -64 24 -64 48 0 24 2 24 55 20 30 -3 58 -8
62 -11z m-196 -17 c29 -16 23 -30 -13 -30 -18 0 -39 -4 -47 -9 -11 -7 -7 -12
18 -23 l33 -13 -26 -28 c-27 -29 -49 -33 -93 -16 -26 10 -26 12 -8 19 11 4 28
17 39 29 18 20 18 21 -8 30 -39 15 -33 35 8 27 24 -5 37 -2 46 9 15 18 25 19
51 5z m509 0 c0 -5 -7 -10 -15 -10 -8 0 -15 5 -15 10 0 6 7 10 15 10 8 0 15
-4 15 -10z m190 -30 c13 -9 13 -10 0 -10 -8 0 -22 5 -30 10 -13 9 -13 10 0 10
8 0 22 -5 30 -10z m-280 -8 c0 -8 -37 -42 -46 -42 -3 0 -4 7 0 15 3 8 0 15 -7
16 -7 1 -1 5 13 9 34 11 40 11 40 2z m190 -12 c-31 -24 -40 -25 -40 -2 0 13 9
18 33 20 l32 2 -25 -20z m-392 -19 c22 -14 -7 -51 -40 -51 -33 0 -38 8 -27 38
9 23 42 29 67 13z m126 -7 c9 -3 16 -10 16 -14 0 -8 -58 4 -68 15 -7 7 33 6
52 -1z m686 -20 c0 -17 -22 -14 -28 4 -2 7 3 12 12 12 9 0 16 -7 16 -16z
m-646 -43 c12 -13 14 -21 6 -26 -13 -8 -40 12 -40 31 0 20 14 17 34 -5z m-89
-47 c-38 -17 -58 -17 -53 -2 5 15 47 27 68 19 10 -3 5 -9 -15 -17z m-381 0
c17 -6 22 -34 7 -34 -5 0 -19 9 -32 20 -19 15 -21 19 -7 20 9 0 23 -3 32 -6z
m185 -13 c16 -11 8 -39 -14 -47 -18 -7 -45 12 -45 31 0 11 11 18 40 24 3 0 11
-3 19 -8z m-448 -62 c16 -8 18 -13 8 -25 -13 -16 -45 -19 -54 -4 -4 6 -1 17 5
25 15 18 16 18 41 4z m180 -11 c6 -13 20 -32 30 -43 17 -20 17 -21 -2 -52 -23
-37 -43 -35 -64 8 -15 29 -20 90 -8 102 13 14 33 7 44 -15z m439 -3 c0 -2 -12
-21 -26 -42 -14 -21 -28 -51 -31 -66 -6 -31 -27 -31 -30 -1 -8 60 -7 67 12 78
11 6 24 17 28 24 7 11 47 18 47 7z m-290 -29 c0 -3 -4 -8 -10 -11 -5 -3 -10
-1 -10 4 0 6 5 11 10 11 6 0 10 -2 10 -4z m-256 -45 c10 -16 -6 -41 -26 -41
-26 0 -73 36 -56 43 22 9 77 7 82 -2z m396 -90 c0 -25 -20 -38 -31 -20 -15 23
-10 39 11 39 13 0 20 -7 20 -19z m-140 -21 c9 -17 8 -20 -14 -20 -27 0 -41 14
-31 30 10 17 34 11 45 -10z m-656 -47 c-1 -17 -12 -40 -26 -54 l-25 -25 -15
35 c-23 52 3 98 46 81 15 -6 21 -16 20 -37z m419 -17 c-3 -13 -23 -39 -45 -56
-39 -32 -40 -33 -33 -84 4 -28 14 -60 21 -71 19 -27 17 -55 -3 -56 -10 -1 -33
-3 -50 -5 -27 -3 -33 0 -33 15 0 10 7 24 16 31 8 8 14 25 12 39 -2 20 -11 27
-39 34 l-36 8 5 57 c2 31 5 58 7 60 1 1 15 4 31 6 16 2 54 13 84 24 30 11 58
20 61 21 3 0 4 -10 2 -23z m-320 -20 c36 -55 33 -70 -27 -121 -48 -42 -55 -53
-58 -89 -3 -38 -5 -41 -35 -44 -18 -2 -33 -7 -33 -12 0 -5 -11 -17 -24 -25
-25 -17 -76 -12 -76 8 0 22 44 57 72 57 35 0 38 27 3 36 -42 11 -48 28 -18 58
17 18 30 23 36 17 7 -7 22 0 44 19 19 17 39 30 46 30 7 0 21 7 31 15 16 12 17
17 6 30 -13 15 -7 45 9 45 5 0 16 -11 24 -24z m471 15 c3 -5 -8 -26 -24 -46
-17 -21 -30 -43 -30 -49 0 -6 -4 -5 -9 3 -6 9 -4 23 7 40 10 14 16 26 15 28
-2 2 -3 10 -3 18 0 16 35 21 44 6z m-48 -206 c-5 -20 -13 -25 -37 -25 l-30 0
28 51 c27 51 27 51 36 25 5 -15 6 -38 3 -51z m72 42 c4 -21 -25 -34 -40 -19
-8 8 -8 16 2 27 16 19 34 15 38 -8z m-398 -9 c-1 -20 -24 -102 -33 -115 -12
-18 -34 -5 -48 29 -12 30 -11 32 27 64 42 36 54 41 54 22z m400 -137 c0 -5 -7
-11 -15 -15 -15 -5 -20 5 -8 17 9 10 23 9 23 -2z m-815 -7 c14 -6 14 -9 -5
-29 l-22 -23 22 -22 c12 -12 19 -27 17 -33 -6 -18 -48 -37 -84 -37 -41 0 -44
26 -8 60 14 13 23 30 20 38 -15 39 16 62 60 46z m339 -41 c3 -21 6 -55 6 -76
0 -21 5 -47 11 -59 18 -33 2 -64 -48 -96 -27 -17 -59 -40 -73 -52 -38 -32 -73
-60 -75 -60 -1 0 -2 6 -2 13 -1 6 -4 31 -8 55 l-8 42 34 0 c68 0 139 76 111
120 -7 11 -7 31 -2 55 5 21 6 44 3 51 -6 17 14 44 32 44 7 0 15 -17 19 -37z
m-158 -25 c-4 -18 -8 -44 -10 -58 -2 -14 -4 -29 -4 -34 -1 -6 -8 -1 -16 9 -8
11 -12 23 -10 26 2 4 -3 12 -11 19 -8 7 -15 17 -15 23 0 18 32 47 53 47 16 0
18 -5 13 -32z m364 18 c0 -7 -7 -19 -16 -27 -13 -10 -17 -10 -24 1 -10 17 5
40 26 40 8 0 14 -6 14 -14z m-661 -138 c7 -18 3 -29 -17 -50 -24 -27 -25 -28
-8 -47 23 -25 13 -41 -24 -41 -20 0 -35 9 -50 30 -19 27 -20 34 -9 68 17 52
27 62 66 62 26 0 36 -5 42 -22z m639 -7 c3 -8 -1 -12 -9 -9 -7 2 -15 10 -17
17 -3 8 1 12 9 9 7 -2 15 -10 17 -17z m146 -7 c4 -9 4 -19 2 -21 -8 -8 -26 8
-26 23 0 19 16 18 24 -2z m-947 -126 c-4 -32 -2 -45 11 -54 16 -12 16 -14 1
-29 -24 -24 -69 -27 -69 -4 0 10 5 21 11 25 7 4 1 17 -16 34 -34 35 -27 57 17
63 18 2 37 5 42 5 5 1 6 -17 3 -40z m288 32 c9 -15 -14 -40 -35 -40 -22 0 -32
24 -17 39 14 14 44 14 52 1z m-445 -86 c0 -27 -40 -74 -63 -74 -7 0 -23 -7
-35 -16 -15 -10 -32 -14 -49 -9 -25 6 -25 6 -7 26 10 11 33 27 50 34 20 8 34
22 38 39 5 21 12 26 36 26 26 0 30 -4 30 -26z m1030 7 c0 -21 -25 -45 -38 -37
-6 3 -15 -1 -22 -9 -7 -8 -21 -15 -32 -15 -16 0 -17 3 -8 20 6 12 22 25 35 30
13 5 26 14 30 19 10 18 35 12 35 -8z m-560 -46 c12 -22 10 -29 -13 -64 -15
-23 -27 -44 -27 -48 0 -5 -9 -19 -20 -33 -28 -36 -26 -70 4 -70 35 0 39 -13
19 -55 -14 -29 -22 -35 -43 -33 -16 2 -24 8 -21 18 13 48 11 69 -8 101 -34 55
-29 84 26 172 28 45 63 50 83 12z m320 6 c25 -48 -7 -131 -50 -131 -24 0 -43
35 -36 65 7 26 53 85 67 85 4 0 13 -9 19 -19z m-800 -76 c40 -21 49 -54 20
-77 -28 -22 -49 -23 -65 -2 -10 15 -13 13 -18 -14 -5 -25 -14 -33 -49 -44 -38
-13 -43 -18 -46 -48 -4 -39 -32 -65 -84 -80 -31 -9 -38 -15 -38 -35 0 -29 -32
-65 -57 -65 -28 0 -43 14 -53 49 -10 37 0 67 32 90 11 7 24 25 30 40 11 25 12
25 15 4 6 -34 30 -35 53 -3 12 17 37 34 59 41 29 8 42 21 60 54 15 28 36 50
58 60 19 9 37 23 40 31 6 17 7 17 43 -1z m240 -11 c0 -24 -19 -54 -35 -54 -16
0 -31 43 -20 59 10 17 55 13 55 -5z m410 -8 c0 -3 -4 -8 -10 -11 -5 -3 -10 -1
-10 4 0 6 5 11 10 11 6 0 10 -2 10 -4z m620 -13 c0 -10 -4 -23 -8 -28 -11 -16
-60 -35 -89 -35 -24 0 -25 1 -11 22 15 22 73 58 95 58 7 0 13 -8 13 -17z
m-630 -38 c8 -10 9 -24 4 -42 -4 -16 -9 -37 -10 -49 -3 -46 -65 -107 -86 -86
-15 15 -5 45 19 57 11 6 28 17 36 24 14 11 14 14 -3 31 -20 20 -18 41 4 67 14
16 21 16 36 -2z m280 -19 c0 -3 -4 -8 -10 -11 -5 -3 -10 -1 -10 4 0 6 5 11 10
11 6 0 10 -2 10 -4z m187 -30 c-8 -19 -37 -21 -37 -3 0 7 5 18 12 25 15 15 33
-1 25 -22z m-851 -9 c46 -40 8 -79 -41 -44 -13 10 -16 21 -11 40 8 33 17 34
52 4z m592 -9 c-3 -7 -11 -13 -18 -13 -7 0 -15 6 -17 13 -3 7 4 12 17 12 13 0
20 -5 18 -12z m-750 -45 c2 -12 -2 -32 -9 -45 -12 -23 -12 -22 -24 12 -7 19
-10 41 -7 48 7 20 37 9 40 -15z m-135 -24 c-7 -25 -32 -36 -43 -19 -9 15 -2
41 14 52 16 11 35 -11 29 -33z m1047 17 c0 -8 -11 -16 -25 -18 -29 -6 -31 -1
-9 23 18 20 34 17 34 -5z m-177 -80 c-5 -43 -9 -50 -39 -62 -39 -16 -70 -18
-79 -5 -3 5 8 31 25 58 24 37 38 49 63 53 17 3 33 6 34 5 0 0 -1 -22 -4 -49z
m-935 -5 c28 -23 28 -36 0 -55 -26 -19 -78 -21 -78 -4 0 14 42 78 51 78 3 0
16 -8 27 -19z m332 -14 c0 -14 -16 -38 -41 -61 l-42 -38 -20 21 c-19 18 -19
23 -6 47 14 27 58 53 92 54 11 0 17 -8 17 -23z m-795 -27 c-18 -36 -56 -63
-68 -51 -17 17 2 57 35 73 42 20 52 14 33 -22z m143 18 c13 -13 16 -56 6 -82
-3 -8 -22 -20 -41 -27 -26 -8 -39 -21 -50 -48 -8 -19 -26 -49 -39 -64 -26 -30
-31 -66 -13 -84 18 -18 0 -51 -34 -62 -18 -6 -58 -37 -89 -70 -53 -55 -56 -60
-51 -98 13 -97 -119 -235 -157 -164 -13 25 -13 24 10 51 11 13 20 29 20 36 0
7 12 26 26 43 24 29 34 76 21 98 -6 9 2 43 20 93 4 8 5 23 4 32 -1 9 6 29 15
44 16 24 19 25 30 9 11 -15 11 -22 -1 -39 -8 -11 -15 -29 -15 -39 0 -17 2 -17
29 5 16 12 42 30 59 39 19 11 32 28 36 47 4 16 18 40 32 53 13 12 35 45 48 73
13 28 35 66 50 85 14 19 26 39 26 44 0 10 30 36 41 37 3 0 10 -5 17 -12z m861
3 c9 -6 11 -18 7 -34 -4 -16 -1 -29 9 -37 21 -18 19 -35 -10 -67 l-25 -28 -25
28 c-19 21 -24 35 -19 50 4 12 7 29 6 37 -3 52 21 74 57 51z m155 -60 c9 -14
-22 -34 -40 -27 -13 5 -14 9 -4 21 14 17 36 20 44 6z m-604 -38 c0 -52 -12
-67 -44 -59 -14 3 -26 11 -26 17 0 13 51 77 63 78 4 1 7 -16 7 -36z m294 -74
c-32 -34 -74 -39 -74 -10 0 12 18 30 48 49 44 27 47 28 50 9 2 -11 -8 -32 -24
-48z m476 50 c0 -7 -10 -27 -21 -46 -24 -38 -52 -41 -57 -6 -2 16 6 28 30 43
38 23 48 25 48 9z m132 -21 c-7 -7 -12 -8 -12 -2 0 14 12 26 19 19 2 -3 -1
-11 -7 -17z m-1225 -13 c6 -18 -36 -55 -62 -55 -27 0 -32 18 -14 51 7 15 19
19 41 17 17 -2 33 -8 35 -13z m181 -16 c2 -9 -9 -31 -24 -48 -21 -25 -29 -29
-40 -20 -17 14 -18 61 -2 77 17 17 62 11 66 -9z m740 -10 c4 -19 -27 -34 -41
-20 -14 14 0 43 20 39 10 -2 19 -10 21 -19z m306 -21 c7 -29 -18 -58 -36 -40
-9 9 -9 18 0 37 14 31 28 32 36 3z m-1324 -58 c0 -56 -51 -100 -76 -65 -22 30
12 85 53 85 16 0 23 -6 23 -20z m400 1 c0 -27 -27 -51 -56 -51 -32 0 -30 11 6
35 16 11 30 23 30 28 0 4 5 7 10 7 6 0 10 -9 10 -19z m-264 -16 c10 -24 -5
-65 -32 -92 -35 -35 -52 -18 -35 36 18 60 54 90 67 56z m1019 5 c3 -5 -2 -24
-11 -42 -14 -27 -15 -37 -5 -65 15 -40 11 -47 -35 -69 -52 -25 -63 -2 -22 44
23 27 29 41 24 63 -10 49 28 103 49 69z m-888 -31 c8 -8 8 -18 1 -35 -20 -43
-53 -22 -41 25 6 23 23 27 40 10z m273 6 c0 -4 -8 -20 -17 -38 -16 -30 -18
-31 -21 -9 -2 13 2 30 8 38 12 14 30 19 30 9z m850 -35 c0 -20 -32 -44 -44
-33 -3 4 -15 -3 -26 -15 -22 -23 -45 -28 -54 -13 -9 14 35 62 53 59 8 -2 24 5
34 15 20 20 37 15 37 -13z m-710 -24 c0 -13 -8 -34 -19 -47 l-18 -23 -11 21
c-9 17 -8 26 9 47 25 32 39 33 39 2z m-414 -77 c11 -19 -17 -58 -73 -100 -57
-43 -86 -47 -91 -13 -2 15 14 35 60 72 62 51 90 62 104 41z m44 7 c0 -3 -4 -8
-10 -11 -5 -3 -10 -1 -10 4 0 6 5 11 10 11 6 0 10 -2 10 -4z m605 -67 c15 -28
15 -33 0 -55 -23 -35 -40 -25 -38 22 5 71 14 80 38 33z m-1027 13 c21 -14 -48
-152 -77 -152 -6 0 -11 -11 -11 -25 0 -34 -34 -51 -66 -34 -32 16 -27 30 19
52 31 16 36 23 31 42 -6 23 15 75 44 108 16 18 39 22 60 9z m1212 -41 c0 -3
-5 -13 -10 -21 -12 -19 -35 2 -27 24 6 15 37 12 37 -3z m-680 -29 c0 -23 -27
-62 -43 -62 -29 0 -33 31 -8 52 24 19 51 24 51 10z m-402 -60 c2 -13 -7 -35
-22 -52 -32 -38 -42 -91 -27 -140 18 -62 14 -78 -31 -110 -22 -16 -45 -30 -50
-30 -20 0 -20 36 2 75 18 32 22 51 17 80 -4 25 -1 48 9 67 17 32 12 45 -20 58
-20 8 -20 9 -1 9 11 1 30 16 43 37 18 28 28 35 50 32 19 -2 28 -9 30 -26z
m687 18 c4 -6 -2 -25 -12 -43 -18 -30 -23 -32 -74 -33 -30 0 -67 -4 -82 -8
-27 -8 -28 -7 -25 20 2 21 8 28 20 26 26 -4 99 17 115 34 17 16 49 19 58 4z
m-498 -21 l28 -11 -28 -24 c-28 -24 -71 -32 -82 -14 -3 5 -3 21 1 35 7 28 33
33 81 14z m1283 -19 c0 -12 -28 -25 -36 -17 -9 9 6 27 22 27 8 0 14 -5 14 -10z
m-595 -41 c17 -27 -83 -85 -106 -62 -10 10 -1 23 35 51 31 24 61 28 71 11z
m450 -59 c0 -18 -6 -26 -22 -28 -18 -3 -23 1 -23 21 0 28 9 39 30 35 9 -2 15
-14 15 -28z m-289 -35 c7 -16 -31 -75 -48 -75 -6 0 -19 -7 -29 -16 -21 -19
-49 -12 -49 11 0 26 78 92 113 94 4 1 10 -6 13 -14z m-1250 -22 c-10 -10 -19
5 -10 18 6 11 8 11 12 0 2 -7 1 -15 -2 -18z m-236 -2 c0 -11 -16 -38 -35 -61
-28 -33 -33 -45 -25 -60 13 -24 39 -50 50 -50 20 0 55 68 60 115 4 42 9 52 32
63 18 9 34 9 52 2 32 -12 33 -33 3 -52 -12 -9 -29 -28 -37 -44 -29 -59 -81
-114 -106 -114 -16 0 -50 -26 -111 -85 -84 -81 -110 -96 -140 -77 -9 6 -2 23
26 62 21 30 43 71 50 90 6 19 27 48 46 63 32 25 35 33 33 69 -2 34 3 45 30 69
38 34 72 38 72 10z m860 4 c0 -26 -42 -106 -53 -102 -21 7 -29 67 -12 93 18
27 65 34 65 9z m-272 -22 c4 -30 -41 -61 -63 -43 -20 17 -19 47 3 59 27 17 57
9 60 -16z m-767 -15 c3 -25 -3 -43 -22 -66 -11 -14 -18 -38 -17 -58 2 -41 -16
-64 -34 -46 -31 31 -84 0 -108 -63 -9 -23 -9 -42 1 -83 10 -42 10 -60 -1 -92
-10 -32 -11 -42 0 -55 17 -21 103 -20 124 1 15 14 16 14 16 0 0 -46 83 26 97
84 6 24 18 39 39 49 16 8 51 32 77 52 42 33 51 37 68 26 10 -6 19 -15 19 -19
0 -15 -33 -38 -54 -38 -13 0 -43 -18 -70 -43 -36 -34 -46 -50 -46 -76 0 -48
-41 -85 -85 -77 -21 4 -48 1 -71 -9 -50 -21 -75 -19 -81 6 -5 19 -7 18 -19
-10 -7 -17 -17 -31 -22 -31 -11 0 -22 34 -22 68 0 13 -9 33 -21 45 -17 18 -20
31 -16 68 4 35 1 53 -14 75 -30 46 -24 67 32 118 46 41 56 46 84 40 28 -5 36
-2 48 18 9 12 19 37 23 53 11 51 72 100 75 63z m2010 -23 c1 -5 -8 -15 -20
-21 -11 -6 -30 -19 -40 -28 -20 -19 -52 -19 -58 0 -2 6 5 22 16 36 16 20 28
25 61 24 22 -1 41 -5 41 -11z m-688 -27 c7 -20 -11 -60 -25 -56 -7 3 -13 19
-14 36 -1 24 3 32 16 32 10 0 20 -6 23 -12z m327 -52 c0 -13 -8 -34 -18 -47
l-19 -22 -11 33 c-16 43 -15 48 6 53 35 9 42 6 42 -17z m-869 -46 c-1 -14 -7
-27 -11 -30 -4 -3 -9 -14 -11 -24 -4 -22 -32 -36 -28 -15 1 8 -1 26 -5 42 -10
33 8 59 38 55 16 -2 20 -9 17 -28z m169 -20 c0 -37 -45 -92 -59 -71 -12 18 4
83 25 98 23 17 34 8 34 -27z m390 -36 c0 -7 -6 -16 -12 -20 -18 -11 -108 -12
-108 -1 0 5 14 27 31 49 l32 39 28 -27 c16 -15 29 -33 29 -40z m148 44 c-2
-13 -11 -24 -20 -26 -21 -4 -24 18 -6 36 19 19 30 14 26 -10z m-1108 -21 c0
-8 -11 -24 -24 -36 -21 -20 -24 -20 -30 -5 -4 10 1 25 10 35 20 22 44 25 44 6z
m230 0 c0 -19 -12 -31 -55 -60 -40 -27 -95 -36 -95 -16 0 13 19 49 36 69 16
19 114 25 114 7z m504 4 c3 -5 -1 -11 -9 -15 -9 -3 -15 0 -15 9 0 16 16 20 24
6z m4363 -96 c9 -24 -1 -27 -15 -5 -8 13 -8 20 -2 20 6 0 13 -7 17 -15z
m-4452 -15 c-3 -5 -12 -10 -20 -10 -8 0 -35 -25 -61 -55 -26 -30 -50 -52 -54
-50 -10 6 -19 56 -13 71 2 7 28 18 56 24 29 7 59 16 67 21 21 12 32 11 25 -1z
m-324 -43 c7 -43 -2 -60 -27 -55 -23 4 -30 47 -14 78 16 30 34 20 41 -23z
m605 -2 c8 -31 -10 -55 -43 -55 -36 0 -41 29 -9 57 35 29 44 29 52 -2z m-2076
-36 c0 -11 -13 -34 -30 -50 -27 -27 -32 -29 -50 -16 -14 10 -33 12 -67 7 -77
-12 -103 4 -79 51 11 24 18 26 126 47 55 10 100 -7 100 -39z m5860 21 c0 -16
-4 -30 -8 -30 -5 0 -7 14 -4 30 2 17 6 30 8 30 2 0 4 -13 4 -30z m-4640 -10
c0 -13 -7 -20 -20 -20 -22 0 -23 1 -14 24 9 23 34 20 34 -4z m80 -72 c0 -18
-58 -78 -76 -78 -22 0 -16 38 11 65 25 26 65 34 65 13z m1070 -11 c0 -14 -20
-37 -32 -37 -10 0 -11 34 -1 43 11 12 33 8 33 -6z m-1895 -7 c10 -16 -13 -47
-45 -60 -39 -16 -57 -3 -40 29 17 32 72 52 85 31z m-128 -25 c39 -27 7 -57
-41 -39 -19 7 -21 25 -4 42 15 15 19 15 45 -3z m1143 -16 c0 -29 -18 -59 -36
-59 -12 0 -14 7 -9 33 9 41 13 47 31 47 8 0 14 -9 14 -21z m-496 -5 c9 -23 -9
-49 -49 -74 -32 -20 -55 -20 -55 0 0 4 15 26 33 48 34 43 61 53 71 26z m-774
-54 c0 -24 -36 -63 -53 -57 -21 7 -19 35 4 56 29 26 49 27 49 1z m975 -19 c3
-5 1 -12 -5 -16 -5 -3 -10 1 -10 9 0 18 6 21 15 7z m241 -27 c-4 -9 -9 -15
-11 -12 -3 3 -3 13 1 22 4 9 9 15 11 12 3 -3 3 -13 -1 -22z m-827 -26 c15 -25
14 -29 -8 -52 -33 -35 -47 -33 -61 10 -10 30 -9 38 6 55 23 25 44 21 63 -13z
m147 -15 c-3 -3 -26 -8 -52 -11 -60 -6 -57 13 6 38 44 17 45 17 48 -2 2 -11 1
-22 -2 -25z m5583 -13 c1 -13 0 -13 -9 0 -5 8 -9 26 -9 40 l1 25 8 -25 c4 -14
8 -32 9 -40z m-5916 20 c53 0 61 -16 27 -50 -17 -17 -23 -18 -46 -8 -25 12
-29 10 -75 -42 -41 -47 -51 -53 -66 -44 -12 7 -29 8 -50 2 -21 -6 -40 -5 -52
2 -11 5 -22 10 -25 10 -5 0 -47 -87 -59 -122 -8 -22 -21 -23 -37 -3 -11 13
-17 11 -47 -16 -42 -36 -77 -36 -81 1 -4 35 37 93 73 104 56 17 140 58 162 79
16 14 35 20 63 19 35 -2 44 3 86 48 43 46 49 49 64 35 10 -9 36 -15 63 -15z
m5996 -112 c1 -15 -3 -30 -9 -33 -6 -4 -10 14 -9 47 0 39 3 48 9 33 5 -11 9
-32 9 -47z m-5603 8 c-7 -29 -43 -66 -63 -66 -18 0 -16 41 2 67 13 18 52 34
64 26 2 -1 1 -13 -3 -27z m5541 -48 c-3 -8 -6 -5 -6 6 -1 11 2 17 5 13 3 -3 4
-12 1 -19z m-67 -36 c0 -28 -3 -33 -10 -22 -13 20 -13 73 0 65 6 -3 10 -23 10
-43z m-5670 8 c13 -9 13 -11 0 -19 -17 -12 -30 -5 -30 15 0 16 9 18 30 4z
m5787 -12 c-3 -8 -6 -5 -6 6 -1 11 2 17 5 13 3 -3 4 -12 1 -19z m-6644 -30
c-1 -13 -6 -43 -12 -65 -11 -38 -15 -42 -59 -53 -45 -12 -76 -14 -144 -8 -25
2 -34 8 -36 24 -4 27 39 44 109 44 44 0 50 3 85 45 39 49 60 53 57 13z m6586
-6 c-1 -15 -5 -38 -9 -52 -6 -19 -8 -11 -9 33 -1 36 3 56 9 52 6 -3 10 -18 9
-33z m101 34 c0 -3 -4 -8 -10 -11 -5 -3 -10 -1 -10 4 0 6 5 11 10 11 6 0 10
-2 10 -4z m-6176 -28 c8 -13 5 -23 -14 -43 -30 -31 -64 -30 -68 3 -7 50 56 80
82 40z m186 -29 c0 -31 -43 -134 -62 -145 -24 -15 -31 15 -18 72 22 90 80 144
80 73z m5787 -1 c-3 -8 -6 -5 -6 6 -1 11 2 17 5 13 3 -3 4 -12 1 -19z m-5401
-46 c-14 -27 -43 -52 -60 -52 -16 0 -3 52 20 80 24 27 29 30 41 17 13 -13 13
-18 -1 -45z m5536 16 c-10 -22 -11 -21 -11 12 -1 26 2 31 11 22 8 -8 8 -17 0
-34z m-70 -56 c-7 -23 -9 -66 -6 -108 6 -63 5 -67 -9 -49 -15 21 -25 118 -14
145 3 8 8 28 12 44 4 21 9 26 17 18 8 -8 8 -22 0 -50z m78 -52 c5 0 11 -12 13
-27 4 -25 4 -24 6 7 1 19 6 44 11 55 7 17 9 16 9 -10 1 -17 -4 -46 -10 -65 -5
-19 -10 -58 -10 -85 0 -28 -4 -57 -9 -65 -7 -10 -10 7 -10 55 0 80 -8 117 -22
109 -15 -10 -7 -166 10 -186 11 -14 13 -46 9 -167 -3 -82 -8 -155 -12 -160 -3
-6 -8 -49 -10 -96 -2 -47 -9 -94 -15 -105 -8 -14 -7 -29 5 -56 17 -40 20 -90
6 -98 -13 -8 -23 23 -15 47 3 11 2 17 -3 14 -5 -3 -16 -29 -23 -59 l-15 -52
-8 39 c-4 22 -10 52 -14 68 -4 20 -1 27 11 27 11 0 16 9 16 30 0 22 -5 30 -17
30 -15 0 -18 10 -19 70 0 46 3 67 10 60 6 -6 14 -6 23 1 15 13 18 116 3 121
-5 2 -6 40 -2 98 7 91 7 93 13 40 6 -53 6 -54 7 -11 1 24 -5 64 -14 90 -18 48
-13 141 7 141 5 0 9 7 9 15 0 8 4 15 9 15 5 0 7 32 5 70 -3 57 -1 70 11 70 8
0 16 6 16 13 1 6 4 0 6 -15 2 -16 8 -28 13 -28z m-6530 4 c-17 -20 -35 -47
-40 -59 -5 -14 -20 -26 -39 -30 -34 -7 -51 -1 -51 21 0 13 16 18 50 15 9 -1
33 19 54 44 21 25 43 45 48 45 6 0 -4 -16 -22 -36z m6286 -52 c-12 -11 -16 6
-9 39 l8 34 3 -33 c2 -19 1 -36 -2 -40z m120 1 c12 -77 1 -200 -22 -243 l-18
-35 -8 55 c-4 30 -2 89 3 130 23 175 29 188 45 93z m-6181 -20 c-11 -44 -45
-54 -45 -14 0 21 19 41 38 41 10 0 12 -7 7 -27z m485 -38 c0 -18 -37 -48 -49
-40 -16 9 -13 36 6 57 12 14 19 15 30 7 7 -6 13 -17 13 -24z m-750 -94 c0 -23
-9 -31 -26 -24 -17 6 -18 25 -2 41 14 14 28 6 28 -17z m6230 -8 c-1 -24 -2
-26 -11 -10 -5 9 -7 22 -4 27 10 17 15 11 15 -17z m-6065 -1 c6 -4 16 -15 23
-24 12 -15 9 -19 -27 -37 -22 -12 -43 -21 -46 -21 -11 0 -4 79 8 83 18 8 31 8
42 -1z m6461 -67 c-4 -14 -9 -45 -13 -70 -8 -64 -19 -56 -15 12 4 69 8 83 23
83 7 0 9 -9 5 -25z m-5940 -1 c-9 -24 -49 -72 -65 -79 -8 -3 -19 -1 -25 5 -8
8 2 22 34 50 48 42 66 50 56 24z m5543 -61 c-1 -49 -2 -54 -9 -29 -8 26 -3 86
6 86 2 0 4 -26 3 -57z m-6146 -15 c-21 -20 -23 -21 -29 -3 -9 22 24 51 40 35
7 -7 3 -17 -11 -32z m6204 -10 c-3 -7 -5 -2 -5 12 0 14 2 19 5 13 2 -7 2 -19
0 -25z m-5940 -22 c-8 -19 -37 -21 -37 -3 0 7 5 18 12 25 15 15 33 -1 25 -22z
m6040 2 c-3 -8 -6 -5 -6 6 -1 11 2 17 5 13 3 -3 4 -12 1 -19z m54 -44 c-7 -31
-9 -34 -10 -12 -1 27 9 62 15 55 3 -2 0 -22 -5 -43z m-90 -87 c-8 -8 -11 3
-11 35 0 71 14 94 18 29 2 -30 -2 -59 -7 -64z m-6502 21 c13 -49 13 -52 -9
-70 -13 -11 -33 -17 -49 -14 -19 2 -32 -4 -47 -23 -19 -22 -24 -24 -38 -12
-20 17 -59 8 -101 -25 -38 -29 -44 -29 -60 -7 -40 54 128 169 194 133 13 -6
19 -16 15 -23 -4 -7 2 -4 14 6 11 11 28 34 37 53 9 19 19 34 24 34 4 0 13 -23
20 -52z m6548 -75 c-2 -21 -4 -6 -4 32 0 39 2 55 4 38 2 -18 2 -50 0 -70z
m-6382 67 c0 -15 -31 -37 -40 -28 -4 3 -1 16 5 28 12 22 35 23 35 0z m6276
-53 c-8 -29 -9 -27 -9 23 -1 44 1 50 9 32 5 -15 6 -36 0 -55z m159 3 c-15 -9
-16 -29 -10 -187 4 -87 3 -94 -19 -114 -23 -22 -24 -26 -18 -125 4 -64 3 -105
-3 -109 -6 -4 -10 18 -10 57 0 35 -3 73 -6 86 -7 25 -24 30 -24 7 0 -8 -4 -15
-10 -15 -22 0 3 113 32 142 10 10 18 24 18 31 0 26 30 242 37 262 6 19 6 19
16 -3 8 -18 7 -26 -3 -32z m-70 -169 c-10 -68 -15 -81 -21 -63 -5 14 -4 60 3
113 11 76 14 86 22 63 5 -17 4 -58 -4 -113z m-101 67 c-1 -47 -2 -50 -10 -23
-7 26 -3 75 7 75 2 0 4 -24 3 -52z m-6543 -19 c8 -13 -3 -24 -33 -34 -28 -8
-31 12 -5 31 21 16 29 17 38 3z m6481 -56 c-4 -17 -4 -17 -12 0 -4 9 -4 25 0
35 8 16 8 16 12 0 3 -10 3 -26 0 -35z m-6437 -81 c0 -16 -38 -44 -55 -40 -14
3 -14 5 0 26 15 21 55 31 55 14z m6661 -163 l-9 -34 -1 31 c-1 17 2 47 6 65
l8 34 3 -31 c2 -18 -1 -47 -7 -65z m-248 51 c-3 -12 -8 -19 -11 -16 -5 6 5 36
12 36 2 0 2 -9 -1 -20z m-6695 -37 c8 -55 -57 -113 -93 -83 -24 20 -17 46 21
80 40 35 67 36 72 3z m6969 -103 c-9 -41 -24 -123 -33 -182 -10 -60 -21 -108
-26 -108 -12 0 -4 240 9 248 6 4 14 21 17 39 4 17 14 34 22 37 8 3 14 20 15
43 1 22 3 29 6 18 3 -10 -2 -53 -10 -95z m-137 71 c0 -27 -15 -49 -26 -39 -7
8 8 68 17 68 5 0 9 -13 9 -29z m-6771 -5 c10 -11 9 -21 -4 -45 -8 -17 -15 -34
-15 -38 0 -5 -6 -8 -12 -8 -18 0 -22 53 -7 82 14 27 22 28 38 9z m165 -75 c7
-10 -22 -37 -30 -28 -9 8 3 37 15 37 5 0 12 -4 15 -9z m6615 -73 l-1 -43 -8
35 c-8 32 -6 50 6 50 2 0 4 -19 3 -42z m-6814 -35 c-4 -10 -9 -33 -12 -50 -3
-18 -9 -33 -14 -33 -5 0 -21 -13 -35 -30 -32 -36 -60 -46 -79 -30 -23 19 -18
38 14 55 16 8 49 35 73 59 45 47 65 58 53 29z m-1212 -10 c-7 -2 -19 -2 -25 0
-7 3 -2 5 12 5 14 0 19 -2 13 -5z m7857 -18 c0 -8 -4 -15 -10 -15 -5 0 -7 7
-4 15 4 8 8 15 10 15 2 0 4 -7 4 -15z m-6853 -57 c-3 -21 -16 -60 -29 -86 -21
-42 -27 -47 -58 -48 -19 -1 -45 -4 -57 -8 -16 -5 -25 -2 -33 14 -9 17 -6 25
21 50 24 21 36 26 45 19 9 -7 21 -6 42 5 32 17 45 38 36 61 -7 18 14 47 28 39
6 -4 8 -24 5 -46z m-1018 6 c14 -52 0 -77 -41 -69 -23 6 -33 3 -44 -14 -9 -12
-24 -21 -35 -21 -16 0 -19 7 -19 44 0 47 12 63 64 82 54 20 64 17 75 -22z
m141 1 c0 -62 -70 -103 -78 -46 -2 15 6 33 24 52 38 39 54 37 54 -6z m-301
-131 c16 -21 21 -41 21 -90 0 -67 -8 -81 -39 -64 -13 7 -22 7 -26 0 -11 -18
-25 -10 -25 14 0 13 7 29 15 36 11 9 14 22 9 46 -7 38 2 84 15 84 5 0 19 -12
30 -26z m8144 -4 c-5 -19 -23 -39 -23 -25 0 9 20 45 24 45 2 0 2 -9 -1 -20z
m-7818 -52 c-4 -16 -10 -54 -14 -84 -10 -72 -51 -106 -82 -68 -10 12 -10 20
-2 34 7 10 15 45 19 79 8 70 31 98 66 80 15 -8 18 -17 13 -41z m959 -5 c8 -26
-8 -78 -25 -78 -10 0 -13 10 -10 40 1 22 5 43 8 48 8 13 21 8 27 -10z m-1131
-43 c31 -56 33 -73 13 -89 -24 -20 -46 0 -62 56 -12 42 -13 57 -4 68 19 23 24
19 53 -35z m8063 -27 c-19 -34 -20 -15 -3 41 11 37 12 38 15 14 2 -15 -4 -40
-12 -55z m-7066 25 c0 -25 -35 -88 -48 -88 -32 0 -42 62 -15 92 24 27 63 24
63 -4z m-1250 -130 c0 -6 -12 -40 -26 -76 -19 -49 -24 -73 -19 -103 9 -52 -9
-78 -36 -53 -24 22 -24 39 2 65 16 16 19 27 13 52 -10 42 -6 98 8 114 13 16
58 17 58 1z m8348 -110 c-12 -46 -24 -74 -26 -62 -2 11 6 55 18 97 11 42 21
80 21 84 1 5 4 -2 6 -14 2 -12 -6 -59 -19 -105z m-7146 88 c16 -37 4 -57 -29
-50 -37 7 -80 -26 -91 -69 -6 -25 -14 -32 -32 -32 -20 0 -26 7 -32 39 -7 33
-6 42 9 50 10 5 32 24 48 42 27 29 49 39 98 43 10 0 22 -10 29 -23z m-1086
-30 c6 -15 -40 -96 -55 -96 -5 0 -14 6 -20 14 -10 11 -9 22 5 48 24 48 58 64
70 34z m234 -26 c0 -11 -7 -23 -15 -27 -21 -8 -28 1 -20 26 8 27 35 27 35 1z
m630 -18 c-1 -55 -26 -80 -61 -61 -16 8 -19 16 -13 47 4 20 8 40 11 44 7 13
63 -14 63 -30z m380 23 c0 -8 -7 -15 -15 -15 -16 0 -20 12 -8 23 11 12 23 8
23 -8z m-497 -79 c9 -7 15 -20 12 -29 -4 -8 1 -32 10 -52 8 -21 14 -39 13 -40
-2 -1 -20 0 -42 3 -38 4 -38 5 -31 41 4 20 6 48 6 64 -1 30 5 33 32 13z m-635
-31 c13 -28 35 -31 72 -10 55 32 81 3 42 -46 -17 -20 -22 -21 -58 -11 -58 16
-91 23 -76 16 19 -9 15 -23 -17 -55 -33 -32 -58 -37 -68 -12 -4 11 5 26 28 47
19 16 33 36 31 43 -3 15 15 53 27 53 4 0 13 -11 19 -25z m-198 -98 c0 -8 -9
-22 -20 -32 -18 -16 -20 -16 -26 -1 -3 9 -4 23 0 31 7 19 46 20 46 2z m-115
-55 c6 -16 -17 -42 -38 -42 -12 0 -46 42 -47 57 0 7 8 16 17 21 19 11 57 -9
68 -36z m807 -42 c-2 -17 -9 -33 -15 -37 -6 -4 -8 2 -4 18 4 13 7 35 7 49 0
17 3 21 8 12 5 -7 6 -26 4 -42z m202 14 c11 -30 6 -50 -19 -72 -16 -14 -25
-32 -25 -51 0 -17 -4 -33 -10 -36 -5 -3 -10 -28 -10 -55 0 -40 -4 -51 -21 -60
-16 -9 -25 -8 -40 6 -23 21 -24 36 -2 77 10 18 17 48 18 67 0 31 3 35 28 38
24 3 27 7 27 41 0 52 39 85 54 45z m6996 2 c0 -8 -4 -18 -10 -21 -5 -3 -10 3
-10 14 0 12 5 21 10 21 6 0 10 -6 10 -14z m-7611 -15 c12 -22 -3 -88 -25 -111
-13 -13 -16 -13 -24 0 -14 22 -12 55 7 95 19 40 28 43 42 16z m7812 -14 c-8
-8 -11 -7 -11 4 0 20 13 34 18 19 3 -7 -1 -17 -7 -23z m-7523 -6 c4 -22 -13
-51 -29 -51 -20 0 -28 37 -13 59 19 26 38 23 42 -8z m7647 -28 c-3 -27 -8 -68
-11 -93 -2 -24 -9 -49 -15 -55 -8 -7 -10 -1 -7 23 3 17 1 32 -4 32 -14 0 -9
33 14 87 13 29 24 53 26 53 2 0 0 -21 -3 -47z m-8361 -7 c12 -62 -17 -88 -48
-44 -21 30 -29 18 -31 -47 -2 -64 -7 -72 -29 -50 -10 11 -17 36 -17 71 -1 30
-2 60 -3 67 -1 8 13 12 38 12 23 0 41 5 43 13 3 6 13 12 23 12 12 0 20 -10 24
-34z m8413 -31 c-6 -28 -12 -42 -15 -32 -3 17 17 92 23 85 2 -2 -1 -26 -8 -53z
m-234 11 c11 -27 -4 -53 -29 -53 -28 0 -30 9 -8 42 18 28 29 31 37 11z m-7363
-22 c0 -17 -24 -29 -40 -19 -8 5 -6 13 6 26 18 20 34 17 34 -7z m7066 -52
c-12 -12 -18 8 -10 35 l8 28 4 -28 c2 -16 1 -31 -2 -35z m-7781 28 c6 -18 -9
-60 -21 -60 -2 0 -9 12 -14 26 -7 19 -7 31 1 40 16 19 27 17 34 -6z m605 -23
c0 -12 -6 -17 -17 -16 -23 4 -63 -22 -63 -39 0 -7 -4 -10 -10 -7 -5 3 -10 1
-10 -5 0 -6 -8 -13 -17 -17 -10 -3 -28 -15 -40 -26 l-22 -20 -11 28 c-13 34 3
59 32 49 33 -10 63 4 75 36 8 20 18 30 32 30 12 0 24 7 28 16 5 13 7 13 14 2
5 -7 9 -21 9 -31z m-505 -2 c0 -28 -29 -25 -33 3 -3 19 0 23 15 20 10 -2 18
-12 18 -23z m8015 -9 c-5 -13 -6 -26 -3 -29 10 -11 -9 -67 -24 -67 -17 0 -11
46 13 93 18 33 27 36 14 3z m-7940 -6 c0 -5 -4 -10 -10 -10 -5 0 -10 5 -10 10
0 6 5 10 10 10 6 0 10 -4 10 -10z m7840 -101 c-12 -67 -39 -126 -40 -86 0 40
23 163 34 176 18 22 20 -13 6 -90z m286 39 c-4 -29 -12 -59 -17 -67 -10 -16
-7 19 7 92 10 48 17 29 10 -25z m-8358 12 c4 -23 -21 -52 -40 -45 -20 8 -29
40 -14 55 15 15 50 8 54 -10z m7892 -115 c-6 -31 -14 -54 -17 -52 -2 3 1 31 7
62 6 31 14 54 17 52 2 -3 -1 -31 -7 -62z m-241 3 c-17 -31 -23 -9 -8 28 9 22
13 25 16 12 2 -9 -1 -27 -8 -40z m-7381 33 c19 -11 11 -45 -11 -49 -19 -4 -32
20 -23 43 6 17 15 19 34 6z m7557 -83 c-9 -122 -17 -146 -26 -78 -7 57 7 160
23 160 5 0 6 -37 3 -82z m544 75 c-1 -17 -28 -77 -28 -67 -2 24 12 74 20 74 5
0 9 -3 8 -7z m-7449 -59 c11 -12 10 -18 -4 -32 -13 -14 -20 -14 -36 -4 -29 18
-51 15 -79 -12 -38 -36 -101 -40 -101 -6 0 15 7 20 28 20 15 0 43 11 62 25 41
28 110 34 130 9z m7213 -3 c2 -11 1 -35 -3 -53 -9 -37 -11 -32 -15 30 -3 43 9
58 18 23z m-8135 -30 l3 -34 -41 6 c-42 5 -94 42 -84 59 3 5 31 8 62 6 57 -3
57 -3 60 -37z m7752 15 c0 -16 -14 -36 -26 -36 -16 0 -16 2 -8 24 5 14 34 24
34 12z m-7875 -86 c17 -32 19 -50 7 -50 -10 0 -32 45 -32 65 0 23 8 18 25 -15z
m8465 5 c11 7 -2 -38 -24 -85 -12 -26 -15 -29 -12 -10 3 14 8 45 12 70 4 25 9
39 12 32 2 -6 8 -10 12 -7z m-595 -74 c-7 -43 -25 -66 -25 -33 0 25 21 85 27
78 3 -2 2 -23 -2 -45z m-7782 18 c10 -11 16 -23 14 -26 -9 -9 -47 17 -47 32 0
21 12 19 33 -6z m143 -33 c-16 -39 -59 -48 -76 -16 -14 25 -16 22 35 48 47 24
60 14 41 -32z m7751 22 c-3 -8 -6 -5 -6 6 -1 11 2 17 5 13 3 -3 4 -12 1 -19z
m-8372 -8 c3 -5 17 -10 29 -10 30 0 48 -22 44 -52 -2 -17 -8 -22 -25 -20 -27
4 -29 -9 -9 -66 18 -49 3 -68 -25 -33 l-18 22 -7 -35 c-3 -20 -1 -50 5 -67 6
-18 10 -33 9 -34 -2 -1 -13 -7 -25 -14 -14 -7 -25 -25 -29 -46 -3 -19 -11 -32
-16 -29 -5 3 -7 13 -4 21 8 21 -20 70 -44 76 -13 3 -20 13 -20 28 0 22 0 22
30 -6 34 -32 49 -27 32 10 -17 37 -15 44 10 37 19 -4 20 -2 14 19 -25 83 -27
104 -12 139 8 19 17 43 20 53 6 19 31 23 41 7z m399 -42 c14 -20 14 -24 1 -37
-11 -12 -17 -12 -29 -1 -23 19 -20 60 5 60 4 0 15 -10 23 -22z m1086 1 c0 -5
-7 -9 -15 -9 -15 0 -20 12 -9 23 8 8 24 -1 24 -14z m7286 -30 c-9 -22 -15 -27
-15 -16 -1 21 18 61 25 54 3 -3 -2 -20 -10 -38z m-415 -61 c-15 -100 -36 -187
-50 -201 -5 -5 -4 10 3 34 7 24 11 58 9 76 -3 18 4 57 16 92 12 34 21 69 21
78 0 9 3 14 6 10 4 -3 1 -43 -5 -89z m-76 -33 c-28 -64 -44 -69 -25 -8 12 37
39 77 47 69 2 -2 -8 -30 -22 -61z m510 23 c-11 -39 -38 -98 -43 -94 -2 3 6 30
19 60 23 57 35 74 24 34z m-8458 -23 c8 -22 -6 -33 -17 -15 -13 20 -12 30 0
30 6 0 13 -7 17 -15z m64 -6 c9 -17 8 -25 -4 -36 -13 -14 -16 -13 -26 5 -11
21 -5 52 10 52 4 0 13 -10 20 -21z m8305 -16 c-11 -11 -19 6 -11 24 8 17 8 17
12 0 3 -10 2 -21 -1 -24z m-8118 -19 c-4 -23 -48 -32 -48 -10 0 8 7 22 16 31
19 19 38 7 32 -21z m-364 -44 c36 0 42 -3 43 -22 1 -13 5 -33 8 -45 9 -35 -20
-28 -51 12 -14 19 -32 35 -40 35 -7 0 -29 14 -49 31 -29 26 -33 34 -23 46 10
13 16 10 41 -21 25 -31 35 -36 71 -36z m56 55 c10 -12 10 -18 0 -30 -11 -13
-14 -12 -26 11 -8 14 -14 28 -14 30 0 10 29 2 40 -11z m1440 -21 c0 -26 -17
-33 -26 -9 -8 20 3 48 16 40 5 -3 10 -17 10 -31z m-1360 -55 c0 -5 -7 -9 -15
-9 -8 0 -15 7 -15 15 0 9 6 12 15 9 8 -4 15 -10 15 -15z m-282 -11 c10 -10 17
-10 31 -1 20 13 24 11 68 -37 42 -45 33 -61 -27 -50 -25 5 -53 12 -64 16 -18
7 -18 6 -1 -20 21 -31 15 -44 -8 -19 -18 20 -35 123 -20 123 5 0 15 -6 21 -12z
m8311 -35 c0 -5 -4 -17 -9 -28 -8 -18 -9 -17 -9 8 -1 15 4 27 9 27 6 0 10 -3
9 -7z m-7930 -82 l35 -28 -24 -13 c-21 -11 -26 -10 -42 10 -18 22 -25 60 -10
60 4 0 22 -13 41 -29z m8257 -6 c-8 -19 -20 -43 -26 -52 -9 -15 -10 -14 -4 7
8 30 33 80 39 80 3 0 -1 -16 -9 -35z m-34 0 c-2 -14 -8 -28 -13 -31 -13 -8
-11 -42 4 -47 7 -3 5 -6 -5 -6 -15 -1 -49 -48 -48 -66 1 -19 -2 -22 -15 -22
-17 0 -20 13 -6 22 5 3 19 34 30 68 18 54 45 107 55 107 2 0 1 -11 -2 -25z
m-8370 -39 c33 -17 36 -46 4 -46 -27 0 -56 23 -56 45 0 7 -3 22 -7 32 -6 17
-5 17 15 -1 12 -11 32 -24 44 -30z m-244 -24 c13 -20 13 -22 -4 -22 -29 0 -48
16 -40 35 8 21 25 16 44 -13z m382 -52 c0 -33 -15 -48 -24 -24 -12 31 -7 64 9
58 8 -4 15 -19 15 -34z m-320 -10 c6 -11 9 -20 7 -20 -2 0 -12 9 -22 20 -10
11 -13 20 -7 20 6 0 16 -9 22 -20z m174 -42 c-9 -14 -24 2 -24 25 1 21 1 21
15 3 8 -10 12 -23 9 -28z m7879 -14 c-14 -25 -27 -43 -30 -40 -5 4 44 86 51
86 3 0 -7 -20 -21 -46z m-73 17 c-5 -11 -15 -23 -21 -27 -6 -3 -3 5 6 20 20
30 30 35 15 7z m374 -15 c-3 -9 -10 -16 -15 -16 -6 0 -5 9 1 21 13 24 24 20
14 -5z m-8214 -11 c7 -19 5 -36 -6 -65 -9 -22 -20 -40 -24 -40 -10 0 -20 62
-12 75 4 6 7 15 8 20 0 6 2 16 2 23 3 21 22 13 32 -13z m174 9 c10 -26 7 -34
-13 -34 -23 0 -34 23 -18 39 15 15 24 14 31 -5z m-230 -126 c9 -12 14 -24 12
-26 -9 -8 -46 19 -46 33 0 22 17 18 34 -7z m154 -16 c2 -24 -1 -32 -12 -32
-10 0 -16 -9 -17 -22 0 -23 0 -23 -10 1 -6 16 -6 28 1 35 5 5 10 21 10 34 0
35 24 21 28 -16z m262 12 c0 -9 -5 -14 -12 -12 -18 6 -21 28 -4 28 9 0 16 -7
16 -16z m990 6 c0 -5 -4 -10 -10 -10 -5 0 -10 5 -10 10 0 6 5 10 10 10 6 0 10
-4 10 -10z m-1159 -7 c0 -5 2 -23 3 -40 4 -33 -6 -41 -32 -24 -16 10 -11 47 6
44 6 -2 9 4 6 12 -4 8 -1 15 5 15 6 0 11 -3 12 -7z m274 -63 c-5 -17 -10 -19
-21 -9 -17 14 -18 36 -1 42 19 7 30 -9 22 -33z m-109 -3 c6 -34 -29 -57 -45
-30 -7 14 -5 23 11 40 24 26 27 25 34 -10z m-316 -39 c0 -6 -7 -5 -15 2 -8 7
-15 17 -15 22 0 6 7 5 15 -2 8 -7 15 -17 15 -22z m-70 -15 c0 -21 -3 -23 -14
-14 -8 7 -12 21 -9 31 7 27 23 15 23 -17z m7900 30 c0 -5 -10 -19 -21 -33
l-20 -25 16 33 c15 30 25 41 25 25z m204 -79 c-9 -16 -31 -40 -48 -54 -32 -26
-31 -22 23 48 37 47 51 51 25 6z m50 4 c-10 -12 -27 -31 -37 -43 -10 -11 -37
-46 -60 -77 -42 -57 -65 -72 -32 -21 30 46 129 163 139 163 5 0 1 -10 -10 -22z
m-262 -20 c-7 -7 -12 -8 -12 -2 0 14 12 26 19 19 2 -3 -1 -11 -7 -17z m-7937
2 c3 -5 1 -10 -4 -10 -6 0 -11 5 -11 10 0 6 2 10 4 10 3 0 8 -4 11 -10z m195
-17 c0 -14 -3 -23 -7 -20 -3 4 -12 -2 -20 -13 -19 -27 -27 -25 -40 11 -12 31
-12 31 18 27 22 -4 29 -1 25 9 -3 7 1 13 9 13 10 0 15 -10 15 -27z m148 7 c6
0 12 -7 12 -15 0 -21 -20 -18 -50 6 l-25 21 25 -6 c14 -3 31 -6 38 -6z m122
-95 c0 -8 -7 -15 -15 -15 -9 0 -12 6 -9 15 4 8 10 15 15 15 5 0 9 -7 9 -15z
m-350 -70 c0 -5 -9 1 -20 15 -11 14 -20 30 -20 35 0 6 9 -1 20 -15 11 -14 20
-29 20 -35z m180 39 c0 -8 -4 -12 -10 -9 -5 3 -10 10 -10 16 0 5 5 9 10 9 6 0
10 -7 10 -16z m-36 -30 c20 -19 21 -35 2 -28 -8 3 -16 14 -19 25 -6 23 -3 24
17 3z m106 -10 c0 -8 -4 -12 -10 -9 -5 3 -10 10 -10 16 0 5 5 9 10 9 6 0 10
-7 10 -16z m7551 -12 c-5 -9 -19 -26 -32 -37 -19 -16 -18 -13 5 18 30 39 43
49 27 19z m76 -2 c-7 -9 -29 -36 -51 -61 -34 -39 -36 -40 -22 -12 9 17 21 35
27 38 5 4 14 17 19 29 4 13 15 23 24 23 12 0 13 -4 3 -17z m-7916 -28 c7 -19
6 -23 -7 -20 -9 2 -24 14 -32 26 -15 23 -15 24 8 20 13 -2 26 -13 31 -26z
m106 -17 c9 -24 -1 -27 -15 -5 -8 13 -8 20 -2 20 6 0 13 -7 17 -15z m-27 -34
c0 -18 -12 -41 -22 -41 -8 0 -38 59 -38 75 0 3 14 -1 30 -10 17 -9 30 -20 30
-24z m295 29 c3 -5 1 -10 -4 -10 -6 0 -11 5 -11 10 0 6 2 10 4 10 3 0 8 -4 11
-10z m-82 -47 c19 -21 20 -33 4 -53 -28 -36 -38 -63 -32 -91 8 -37 -5 -37 -33
1 -27 36 -27 36 -1 43 19 5 20 7 5 36 -19 36 -20 42 -3 40 27 -3 35 2 30 21
-7 25 9 26 30 3z m7478 -40 c-12 -20 -14 -14 -5 12 4 9 9 14 11 11 3 -2 0 -13
-6 -23z m-7617 -29 c9 -8 16 -25 16 -37 0 -20 -2 -19 -20 8 -29 44 -26 60 4
29z m7582 -42 c-16 -15 -25 -20 -21 -12 13 25 38 50 44 45 3 -3 -8 -18 -23
-33z m49 -39 c-20 -30 -39 -52 -42 -49 -3 3 12 32 33 65 22 33 41 56 43 50 1
-6 -13 -35 -34 -66z m-7655 46 c0 -5 -4 -9 -10 -9 -5 0 -10 7 -10 16 0 8 5 12
10 9 6 -3 10 -10 10 -16z m270 -3 c0 -16 -18 -31 -27 -22 -8 8 5 36 17 36 5 0
10 -6 10 -14z m7221 -139 l-34 -32 29 37 c15 20 30 35 33 32 3 -2 -10 -19 -28
-37z m-212 30 c-2 -1 -13 -9 -24 -17 -19 -14 -19 -14 -6 3 7 9 18 17 24 17 6
0 8 -1 6 -3z m-139 -87 c0 -5 -5 -10 -11 -10 -5 0 -7 5 -4 10 3 6 8 10 11 10
2 0 4 -4 4 -10z m-30 -70 c-37 -28 -50 -24 -15 4 17 13 32 22 35 19 3 -2 -6
-13 -20 -23z m350 -49 c-10 -21 -30 -37 -30 -26 0 14 21 45 31 45 6 0 6 -7 -1
-19z m-375 -27 c-26 -20 -55 -36 -55 -30 0 5 63 46 70 46 3 -1 -4 -8 -15 -16z
m-94 -15 c-13 -11 -27 -17 -30 -13 -7 7 28 34 43 34 6 -1 0 -10 -13 -21z m9
-43 c0 -2 -8 -10 -17 -17 -16 -13 -17 -12 -4 4 13 16 21 21 21 13z m-150 -36
c0 -5 -5 -10 -11 -10 -5 0 -7 5 -4 10 3 6 8 10 11 10 2 0 4 -4 4 -10z m140 -5
c0 -11 -29 -11 -33 -1 -4 10 1 12 14 9 10 -3 19 -7 19 -8z m-135 -43 c-28 -24
-82 -59 -100 -66 -19 -7 -19 -6 -3 10 19 19 88 62 103 63 6 1 6 -2 0 -7z m270
-18 c-26 -20 -55 -36 -55 -30 0 5 63 46 70 46 3 -1 -4 -8 -15 -16z m85 -38 c0
-2 -8 -10 -17 -17 -16 -13 -17 -12 -4 4 13 16 21 21 21 13z m-74 -15 c-3 -5
-21 -18 -40 -29 -41 -24 -39 -4 2 21 30 18 46 22 38 8z m-136 -15 c0 -2 -7 -7
-16 -10 -8 -3 -12 -2 -9 4 6 10 25 14 25 6z m138 -31 c-21 -19 -43 -35 -50
-34 -7 0 -3 7 9 15 12 9 32 24 44 35 38 33 36 20 -3 -16z m-135 -79 c-33 -27
-73 -49 -79 -44 -5 5 87 67 99 68 5 0 -4 -11 -20 -24z m-353 -79 c0 -2 -26
-25 -57 -52 l-58 -48 50 51 c42 44 65 62 65 49z m213 -25 c-35 -30 -93 -66
-93 -58 0 8 104 85 115 85 6 0 -4 -12 -22 -27z m-34 14 c-9 -10 -80 -56 -85
-56 -14 0 11 22 44 40 37 19 49 24 41 16z m-259 -10 c0 -2 -8 -10 -17 -17 -16
-13 -17 -12 -4 4 13 16 21 21 21 13z m-105 -136 c-10 -11 -21 -18 -23 -15 -3
3 3 12 14 20 27 20 30 18 9 -5z m45 -50 c-33 -27 -50 -36 -50 -25 0 5 72 55
79 55 3 0 -10 -13 -29 -30z m-94 -99 c-6 -9 -66 -33 -66 -26 0 6 52 34 63 35
5 0 6 -4 3 -9z m9 -131 c-10 -11 -23 -20 -29 -20 -6 0 0 9 14 20 32 25 38 25
15 0z m-365 -60 c0 -9 -70 -50 -85 -50 -15 0 9 22 43 40 44 23 42 22 42 10z
m50 -25 c-14 -8 -29 -14 -35 -14 -5 0 1 6 15 14 14 8 30 14 35 14 6 0 -1 -6
-15 -14z m0 -39 c0 -4 -78 -56 -84 -56 -14 0 52 58 67 59 9 0 17 -1 17 -3z
m-255 -46 c-3 -5 -11 -10 -16 -10 -6 0 -7 5 -4 10 3 6 11 10 16 10 6 0 7 -4 4
-10z m155 -20 c0 -5 -7 -10 -16 -10 -8 0 -12 5 -9 10 3 6 10 10 16 10 5 0 9
-4 9 -10z m-183 -46 c-3 -3 -12 -4 -19 -1 -8 3 -5 6 6 6 11 1 17 -2 13 -5z
m-67 -14 c0 -5 -5 -10 -11 -10 -5 0 -7 5 -4 10 3 6 8 10 11 10 2 0 4 -4 4 -10z
m-402 -112 c-3 -7 -20 -14 -39 -15 l-34 -1 25 13 c31 18 53 19 48 3z m-788
-58 c-8 -5 -22 -9 -30 -9 -10 0 -8 3 5 9 27 12 43 12 25 0z m405 -30 c-3 -5
-12 -10 -18 -10 -7 0 -6 4 3 10 19 12 23 12 15 0z m-45 -10 c-20 -13 -43 -13
-35 0 3 6 16 10 28 10 18 0 19 -2 7 -10z m-50 -49 c-8 -5 -31 -11 -50 -14
l-35 -6 30 14 c33 16 81 21 55 6z m-233 -7 c-3 -3 -12 -4 -19 -1 -8 3 -5 6 6
6 11 1 17 -2 13 -5z m-68 -8 c-2 -2 -36 -9 -76 -15 -39 -6 -79 -14 -90 -17
-12 -5 -15 -4 -8 4 6 5 35 15 65 20 59 10 116 15 109 8z m311 -16 c-34 -11
-60 -11 -35 0 11 5 29 8 40 8 16 0 15 -2 -5 -8z m-221 -14 c-2 -2 -22 -9 -44
-15 -36 -9 -38 -9 -21 4 17 13 77 23 65 11z m131 -21 c-33 -19 -50 -18 -26 0
11 8 27 15 35 15 10 -1 7 -6 -9 -15z m-60 -24 c0 -5 -9 -7 -20 -4 -11 3 -20 7
-20 9 0 2 9 4 20 4 11 0 20 -4 20 -9z m-283 -7 c-3 -3 -12 -4 -19 -1 -8 3 -5
6 6 6 11 1 17 -2 13 -5z m-89 -71 c-10 -2 -26 -2 -35 0 -10 3 -2 5 17 5 19 0
27 -2 18 -5z"/>
<path d="M6505 9551 c-19 -8 -19 -8 2 -19 26 -14 99 -16 107 -3 6 10 -46 31
-73 30 -9 0 -25 -4 -36 -8z"/>
<path d="M9737 5293 c-4 -3 -7 -11 -7 -17 0 -6 5 -5 12 2 6 6 9 14 7 17 -3 3
-9 2 -12 -2z"/>
<path d="M9711 5174 c0 -11 3 -14 6 -6 3 7 2 16 -1 19 -3 4 -6 -2 -5 -13z"/>
<path d="M9622 4585 c0 -16 2 -22 5 -12 2 9 2 23 0 30 -3 6 -5 -1 -5 -18z"/>
<path d="M5370 9920 c0 -5 12 -10 26 -10 14 0 23 4 19 10 -3 6 -15 10 -26 10
-10 0 -19 -4 -19 -10z"/>
<path d="M5555 9890 c3 -5 13 -10 21 -10 8 0 14 5 14 10 0 6 -9 10 -21 10 -11
0 -17 -4 -14 -10z"/>
<path d="M5710 9880 c0 -5 14 -10 31 -10 17 0 28 4 24 10 -3 6 -17 10 -31 10
-13 0 -24 -4 -24 -10z"/>
<path d="M4880 9865 l-25 -14 25 0 c14 0 36 6 50 14 l25 14 -25 0 c-14 0 -36
-6 -50 -14z"/>
<path d="M5245 9861 c-16 -7 -10 -10 27 -16 48 -7 73 -1 63 16 -7 11 -62 11
-90 0z"/>
<path d="M5890 9860 c20 -13 50 -13 50 0 0 6 -15 10 -32 10 -25 0 -29 -3 -18
-10z"/>
<path d="M5057 9853 c-14 -13 -6 -23 17 -23 30 0 42 15 20 24 -20 8 -29 8 -37
-1z"/>
<path d="M5405 9850 c-6 -10 26 -30 49 -30 9 0 16 4 16 9 0 13 -58 32 -65 21z"/>
<path d="M5737 9844 c-12 -12 4 -24 34 -24 34 0 39 15 7 24 -29 7 -33 7 -41 0z"/>
<path d="M5236 9812 c-13 -12 -5 -22 19 -22 14 0 25 4 25 9 0 10 -36 21 -44
13z"/>
<path d="M4988 9774 c24 -17 39 -14 27 5 -3 6 -16 11 -28 11 l-21 0 22 -16z"/>
<path d="M5162 9773 c2 -10 13 -19 26 -21 17 -3 22 2 22 17 0 16 -6 21 -26 21
-19 0 -25 -5 -22 -17z"/>
<path d="M4780 9750 c-10 -18 -8 -20 25 -20 37 0 50 22 19 34 -25 10 -33 7
-44 -14z"/>
<path d="M5060 9742 c0 -10 21 -32 32 -32 16 0 8 19 -12 30 -11 6 -20 7 -20 2z"/>
<path d="M4834 9708 c-8 -12 5 -25 30 -30 29 -5 29 15 1 29 -16 7 -27 8 -31 1z"/>
<path d="M5230 9701 c0 -5 7 -12 16 -15 21 -8 21 -8 28 9 4 11 -1 15 -19 15
-14 0 -25 -4 -25 -9z"/>
<path d="M5062 9671 c-11 -31 -7 -41 14 -41 15 0 46 54 37 64 -16 15 -42 4
-51 -23z"/>
<path d="M5094 9595 c-10 -25 4 -45 30 -45 31 0 56 38 35 51 -22 14 -59 10
-65 -6z"/>
<path d="M5383 9585 c-42 -41 -24 -75 34 -66 33 5 38 10 44 41 11 54 -35 69
-78 25z"/>
<path d="M5211 9541 c-8 -6 -11 -16 -7 -27 6 -16 8 -16 23 -1 20 19 6 41 -16
28z"/>
<path d="M4870 9505 c0 -10 10 -15 30 -15 20 0 30 5 30 15 0 10 -10 15 -30 15
-20 0 -30 -5 -30 -15z"/>
<path d="M5451 9496 c-17 -20 -9 -64 16 -88 18 -17 20 -25 12 -41 -9 -16 -7
-23 15 -41 22 -18 27 -32 33 -89 6 -69 25 -88 31 -32 2 16 11 35 20 41 14 10
15 17 6 43 -9 24 -9 34 2 48 20 27 17 40 -16 60 -25 14 -30 22 -25 43 11 49
-63 93 -94 56z"/>
<path d="M5313 9485 c-34 -15 -38 -21 -25 -42 6 -10 19 -7 55 9 78 36 48 67
-30 33z"/>
<path d="M5148 9459 c-33 -25 -36 -39 -7 -39 32 0 59 19 59 40 0 25 -18 25
-52 -1z"/>
<path d="M5204 9385 c-21 -33 -13 -41 26 -25 18 8 30 20 30 31 0 28 -36 24
-56 -6z"/>
<path d="M4857 9383 c-13 -12 -7 -23 12 -23 26 0 35 16 15 24 -19 7 -19 7 -27
-1z"/>
<path d="M5328 9352 c-20 -15 -41 -37 -47 -49 -6 -13 -16 -34 -22 -47 -13 -27
-52 -47 -84 -43 -12 1 -21 -5 -23 -17 -3 -15 0 -18 17 -13 22 5 47 -16 36 -33
-3 -5 -17 -10 -30 -10 -37 0 -71 -39 -78 -87 -4 -37 -3 -43 13 -43 22 0 35 16
20 25 -22 14 -8 33 33 44 23 6 49 10 57 9 50 -5 69 24 34 52 -27 23 -13 62 26
75 32 11 35 15 35 53 1 23 3 44 7 47 10 10 68 9 78 -1 13 -13 -5 -86 -24 -96
-19 -11 -20 -47 -2 -71 8 -10 12 -27 9 -38 -4 -15 2 -22 26 -30 17 -6 31 -15
31 -19 0 -5 -16 -21 -35 -36 -26 -19 -34 -32 -30 -45 5 -14 -1 -22 -20 -29
-23 -9 -26 -15 -22 -38 10 -55 35 -106 61 -125 34 -24 34 -66 1 -97 -14 -13
-25 -26 -25 -29 1 -14 17 -29 37 -35 18 -6 25 -2 35 18 8 20 19 26 42 26 66 0
102 59 51 82 -28 13 -33 43 -9 52 9 3 33 6 54 6 27 0 38 4 36 14 -2 13 -57 66
-69 66 -2 0 -23 -18 -45 -40 -45 -45 -61 -49 -87 -20 -16 18 -16 20 4 54 12
19 31 38 41 41 11 4 21 16 21 28 1 12 3 54 5 94 l3 71 -37 9 c-41 10 -44 27
-16 81 19 36 18 61 -5 105 -39 76 -47 79 -103 39z"/>
<path d="M5160 9290 c-8 -5 -12 -11 -9 -14 2 -3 11 -1 19 4 8 5 12 11 9 14 -2
3 -11 1 -19 -4z"/>
<path d="M4733 9263 c-7 -2 -13 -13 -13 -23 0 -10 -4 -22 -10 -25 -13 -8 -13
-45 0 -45 9 0 60 79 60 93 0 8 -19 8 -37 0z"/>
<path d="M4902 9259 c2 -6 8 -10 13 -10 5 0 11 4 13 10 2 6 -4 11 -13 11 -9 0
-15 -5 -13 -11z"/>
<path d="M4985 9210 c-3 -5 1 -10 9 -10 9 0 16 5 16 10 0 6 -4 10 -9 10 -6 0
-13 -4 -16 -10z"/>
<path d="M4845 9187 c-4 -10 -5 -21 -1 -24 10 -10 18 4 13 24 -4 17 -4 17 -12
0z"/>
<path d="M4750 9095 c-16 -19 -5 -47 17 -43 23 4 31 58 10 58 -8 0 -20 -7 -27
-15z"/>
<path d="M4952 9088 c-6 -7 -12 -30 -13 -50 -3 -30 1 -41 18 -53 35 -25 50
-10 49 46 -1 32 -6 53 -16 59 -20 13 -26 12 -38 -2z"/>
<path d="M5800 9065 c0 -12 8 -16 33 -13 17 2 32 8 32 13 0 6 -15 11 -32 13
-25 3 -33 -1 -33 -13z"/>
<path d="M5261 9040 c6 -16 17 -30 25 -30 19 0 18 46 -2 54 -29 11 -33 6 -23
-24z"/>
<path d="M4587 9053 c-12 -11 -8 -21 13 -26 15 -4 20 0 20 14 0 18 -20 26 -33
12z"/>
<path d="M5590 9028 c-23 -39 -27 -98 -6 -98 19 0 76 66 76 88 0 21 -19 42
-37 42 -7 0 -22 -15 -33 -32z"/>
<path d="M4621 8994 c0 -11 3 -14 6 -6 3 7 2 16 -1 19 -3 4 -6 -2 -5 -13z"/>
<path d="M4822 8984 c-18 -13 -21 -19 -11 -30 20 -24 39 -16 39 16 0 35 1 35
-28 14z"/>
<path d="M5140 8944 c-36 -33 -39 -39 -26 -52 12 -13 20 -12 58 9 33 19 43 30
43 49 0 38 -29 36 -75 -6z"/>
<path d="M5709 8907 c-24 -28 -44 -59 -45 -68 -2 -29 94 5 135 48 36 38 33 48
-16 62 -28 8 -33 5 -74 -42z"/>
<path d="M3852 8933 c-15 -6 -6 -23 14 -23 8 0 14 7 14 15 0 15 -6 17 -28 8z"/>
<path d="M4443 8894 c-29 -45 -29 -54 2 -54 18 0 26 7 31 24 3 14 3 30 -1 35
-3 6 -1 11 4 11 6 0 11 5 11 10 0 22 -26 7 -47 -26z"/>
<path d="M4847 8878 c-20 -23 -31 -45 -25 -47 6 -2 34 5 64 15 42 14 58 15 77
7 26 -12 37 -8 37 11 -1 25 -29 45 -71 51 -45 7 -47 6 -82 -37z"/>
<path d="M4633 8888 c-39 -27 -43 -54 -9 -60 29 -6 39 -1 55 30 12 23 9 52 -6
52 -5 0 -23 -10 -40 -22z"/>
<path d="M3602 8868 c-18 -18 -15 -41 4 -34 9 3 18 6 20 6 2 0 4 9 4 20 0 23
-10 26 -28 8z"/>
<path d="M4143 8853 c-23 -5 -49 -30 -40 -39 3 -3 25 -2 49 3 28 6 44 14 46
26 4 17 -7 19 -55 10z"/>
<path d="M5093 8814 c-28 -32 -35 -35 -65 -29 -18 4 -40 12 -50 19 -14 8 -24
4 -53 -24 -37 -36 -45 -64 -19 -74 22 -8 19 -9 59 25 31 27 43 31 104 34 38 1
74 6 80 9 22 14 6 76 -18 76 -4 0 -20 -16 -38 -36z"/>
<path d="M4327 8828 c-19 -10 -23 -38 -6 -38 16 0 49 20 49 29 0 14 -25 20
-43 9z"/>
<path d="M3900 8788 c-11 -12 -20 -30 -20 -40 0 -9 -11 -25 -25 -34 -33 -22
-23 -34 29 -34 53 0 73 18 56 50 -10 18 -8 24 6 34 20 15 13 46 -10 46 -9 0
-24 -10 -36 -22z"/>
<path d="M5255 8774 c-15 -20 -47 -49 -72 -64 -39 -25 -47 -27 -74 -16 -28 10
-33 9 -50 -13 -26 -31 -24 -43 11 -81 26 -28 31 -30 35 -13 13 42 32 68 52 71
27 4 53 -23 53 -54 0 -30 22 -32 50 -4 13 13 20 33 20 58 0 25 7 45 19 56 35
32 32 96 -4 96 -7 0 -25 -16 -40 -36z"/>
<path d="M4700 8781 c0 -11 5 -23 10 -26 6 -3 10 -19 10 -35 0 -29 26 -70 44
-70 28 0 51 100 26 115 -6 4 -8 11 -5 16 4 5 -1 9 -9 9 -8 0 -18 -9 -21 -20
-9 -27 -23 -25 -31 5 -7 30 -24 33 -24 6z"/>
<path d="M4524 8724 c9 -86 19 -104 57 -104 22 0 32 6 41 24 9 21 7 29 -14 54
-13 16 -30 43 -37 61 -9 20 -20 31 -34 31 -18 0 -19 -4 -13 -66z"/>
<path d="M4221 8751 c-6 -10 -28 -25 -48 -32 -45 -14 -52 -22 -45 -55 6 -32
16 -30 53 11 17 19 47 39 66 46 23 7 33 16 31 27 -5 25 -45 27 -57 3z"/>
<path d="M4290 8637 c-59 -31 -118 -74 -177 -127 -17 -16 -47 -32 -67 -35 -26
-5 -36 -12 -36 -26 0 -24 18 -34 35 -19 8 7 15 9 15 5 0 -3 11 2 25 13 14 11
48 26 76 33 42 11 61 24 103 70 28 32 64 61 79 64 30 8 35 20 11 29 -23 9 -36
7 -64 -7z"/>
<path d="M4411 8631 c-10 -6 -10 -14 -3 -28 8 -14 6 -24 -9 -43 -20 -27 -26
-70 -9 -70 6 0 22 7 35 16 24 16 60 15 98 -1 13 -5 17 -2 17 12 0 26 -19 43
-49 43 -36 1 -61 22 -55 47 7 24 -6 35 -25 24z"/>
<path d="M3700 8608 c-22 -24 -25 -34 -10 -43 12 -7 62 44 54 56 -9 14 -22 10
-44 -13z"/>
<path d="M3957 8582 c-10 -10 -17 -29 -17 -42 0 -21 3 -19 30 15 17 21 30 39
30 41 0 11 -29 1 -43 -14z"/>
<path d="M4935 8581 c-46 -21 -73 -64 -54 -87 6 -8 17 -14 24 -14 18 0 26 -81
10 -98 -15 -16 -79 -7 -100 14 -7 8 -20 14 -27 14 -10 0 -10 -2 1 -9 10 -7 12
-22 7 -60 l-7 -51 34 0 c21 0 41 8 52 20 10 11 30 20 45 20 37 0 80 -22 80
-41 0 -17 25 -42 52 -52 17 -6 31 14 23 36 -6 16 3 28 42 55 22 15 37 37 44
65 16 53 56 93 90 89 26 -3 89 34 97 56 3 11 -14 12 -84 6 -86 -6 -123 -21
-124 -48 -1 -6 -19 -23 -41 -39 -22 -15 -44 -39 -49 -53 -8 -20 -16 -25 -38
-22 -24 3 -27 7 -24 36 1 18 -3 43 -10 55 -15 27 -11 67 9 89 14 16 11 38 -5
38 -4 0 -25 -9 -47 -19z"/>
<path d="M4661 8572 c-45 -22 -47 -33 -15 -71 39 -46 63 -57 83 -36 15 15 15
17 -1 29 -13 9 -15 22 -11 54 6 48 -2 52 -56 24z"/>
<path d="M3800 8525 c-7 -9 -10 -18 -7 -21 10 -11 37 5 37 21 0 19 -14 19 -30
0z"/>
<path d="M5007 8533 c-4 -3 -7 -17 -7 -30 0 -20 5 -24 22 -21 26 3 37 36 16
49 -16 11 -23 11 -31 2z"/>
<path d="M4552 8464 c5 -26 35 -41 50 -26 11 11 9 16 -6 28 -26 19 -48 18 -44
-2z"/>
<path d="M4246 8441 c-14 -15 -16 -26 -8 -54 12 -41 -2 -78 -47 -126 -34 -37
-39 -58 -15 -68 26 -10 48 11 54 48 5 33 10 37 80 69 8 4 18 26 21 51 3 24 9
56 13 72 8 27 7 27 -36 27 -31 0 -50 -6 -62 -19z"/>
<path d="M3875 8441 c-3 -5 -1 -12 5 -16 12 -7 30 2 30 16 0 12 -27 12 -35 0z"/>
<path d="M3477 8410 c-6 -16 -17 -30 -24 -30 -14 0 -36 -36 -31 -51 2 -5 22 4
46 22 33 24 42 37 42 60 0 38 -19 37 -33 -1z"/>
<path d="M4447 8422 c-41 -45 -8 -81 41 -46 27 19 28 40 3 54 -25 13 -25 13
-44 -8z"/>
<path d="M4064 8396 c-3 -8 -11 -13 -19 -10 -20 8 -46 -26 -43 -55 3 -23 7
-26 46 -27 35 0 47 5 63 24 24 31 24 37 -1 62 -24 24 -39 25 -46 6z"/>
<path d="M4654 8390 c-12 -4 -30 -20 -40 -34 -13 -18 -33 -29 -68 -35 -53 -10
-68 -23 -64 -61 4 -34 32 -37 69 -6 22 19 42 26 73 26 50 0 70 13 85 59 17 51
-5 72 -55 51z"/>
<path d="M3816 8337 c-32 -28 -33 -47 -3 -47 27 0 47 17 47 41 0 28 -15 30
-44 6z"/>
<path d="M4742 8254 c-26 -18 -27 -57 -1 -62 15 -3 39 35 39 63 0 19 -10 19
-38 -1z"/>
<path d="M4038 8249 c-28 -11 -63 -71 -54 -95 3 -8 -8 -35 -24 -61 -17 -26
-30 -55 -30 -66 0 -10 -8 -31 -18 -45 -29 -41 -33 -71 -13 -82 19 -10 41 4 41
26 0 6 8 22 18 35 11 13 22 41 25 62 7 47 20 63 69 88 44 22 58 47 37 63 -9 7
-13 25 -11 49 3 40 2 41 -40 26z"/>
<path d="M4356 8217 c-4 -14 2 -32 15 -50 l21 -29 -31 -32 c-32 -33 -39 -64
-19 -84 21 -21 43 -13 57 19 7 17 23 34 35 39 11 4 29 17 39 28 18 20 18 21
-11 36 -17 9 -40 31 -51 50 -27 43 -47 52 -55 23z"/>
<path d="M4526 8192 c-9 -17 -11 -34 -6 -42 7 -12 14 -12 44 3 40 19 46 41 17
57 -30 15 -39 12 -55 -18z"/>
<path d="M4705 8176 c-41 -22 -107 -94 -103 -112 4 -25 35 -30 40 -8 2 10 21
27 43 38 24 13 43 32 49 49 12 33 -1 48 -29 33z"/>
<path d="M3802 8101 c-40 -37 -42 -61 -4 -61 19 0 36 12 60 40 17 21 32 41 32
44 0 3 -12 6 -28 6 -17 0 -40 -12 -60 -29z"/>
<path d="M4190 8050 c-6 -11 -16 -17 -25 -14 -16 7 -65 -21 -65 -36 0 -5 -13
-31 -30 -57 -32 -50 -39 -83 -17 -83 8 0 22 -9 33 -21 17 -18 17 -23 4 -46
-10 -17 -25 -27 -44 -29 -59 -6 -60 -44 -1 -44 55 0 58 -47 6 -94 -16 -14 -21
-31 -21 -68 0 -54 19 -65 38 -23 6 14 16 25 22 25 16 0 40 57 40 97 0 28 7 45
30 68 l29 30 -36 40 c-25 27 -36 49 -36 68 1 15 2 37 2 50 2 41 24 60 71 61
54 1 69 20 50 65 -14 35 -34 40 -50 11z"/>
<path d="M4755 8049 c-11 -4 -41 -8 -66 -8 -48 -1 -59 -11 -59 -50 0 -25 32
-51 63 -51 37 0 34 -15 -10 -45 -70 -46 -88 -59 -108 -75 -11 -9 -37 -17 -58
-17 -56 -1 -87 -26 -87 -68 0 -31 3 -35 25 -35 38 0 82 26 88 52 5 20 11 23
44 20 33 -3 49 4 114 51 58 41 80 52 93 45 22 -12 53 -1 59 21 3 15 -4 21 -34
30 l-38 12 -3 63 c-3 59 -4 63 -23 55z"/>
<path d="M4447 8033 c-12 -12 -7 -42 8 -51 27 -14 7 -42 -30 -42 -21 0 -47
-11 -76 -34 -24 -18 -53 -36 -65 -40 -28 -9 -49 -53 -33 -72 16 -19 44 -18 60
3 8 9 32 24 54 34 22 10 48 27 57 38 10 12 30 22 45 22 16 1 39 2 53 3 21 1
26 7 28 33 3 30 -24 84 -53 105 -13 10 -40 10 -48 1z"/>
<path d="M3667 7980 c-45 -29 -66 -54 -54 -66 10 -11 107 60 107 78 0 22 4 23
-53 -12z"/>
<path d="M3465 7910 c-3 -5 1 -10 9 -10 9 0 16 5 16 10 0 6 -4 10 -9 10 -6 0
-13 -4 -16 -10z"/>
<path d="M3736 7874 c-33 -33 -9 -47 32 -18 12 8 22 19 22 25 0 15 -37 10 -54
-7z"/>
<path d="M3625 7831 c-6 -11 9 -23 19 -14 9 9 7 23 -3 23 -6 0 -12 -4 -16 -9z"/>
<path d="M3824 7789 c-3 -6 -1 -16 5 -22 6 -6 11 -28 11 -49 0 -40 13 -50 29
-20 6 12 5 23 -5 36 -8 11 -11 29 -8 43 5 17 2 23 -9 23 -9 0 -19 -5 -23 -11z"/>
<path d="M4277 7718 c-49 -65 -99 -184 -74 -175 34 11 42 -39 22 -139 -4 -19
-1 -21 27 -15 17 4 34 13 38 21 4 8 15 32 25 52 12 24 16 48 11 68 -4 21 -1
36 8 46 10 9 13 26 9 48 -4 27 0 38 22 58 39 37 28 68 -25 68 -32 0 -43 -6
-63 -32z"/>
<path d="M3240 7645 c-13 -14 -21 -27 -18 -30 7 -7 58 34 58 46 0 16 -16 10
-40 -16z"/>
<path d="M3940 7610 c0 -5 5 -10 10 -10 6 0 10 5 10 10 0 6 -4 10 -10 10 -5 0
-10 -4 -10 -10z"/>
<path d="M3816 7585 c-9 -9 -16 -24 -16 -34 0 -17 29 -64 30 -47 0 5 6 3 14
-3 12 -10 17 -8 25 8 6 11 11 25 11 32 0 7 7 21 17 31 15 17 15 18 -3 18 -10
0 -28 3 -40 6 -13 3 -28 -1 -38 -11z"/>
<path d="M4095 7455 c-14 -51 -15 -59 -1 -80 21 -33 75 -43 93 -19 12 16 11
20 -3 31 -9 7 -19 33 -23 65 -5 44 -10 54 -28 56 -18 3 -24 -5 -38 -53z"/>
<path d="M3438 7464 c-29 -15 -38 -44 -14 -44 8 0 24 9 37 19 33 27 15 45 -23
25z"/>
<path d="M3710 7447 c-22 -11 -25 -20 -28 -71 -4 -67 5 -67 49 2 45 71 37 98
-21 69z"/>
<path d="M4014 7362 c-16 -10 -34 -48 -27 -55 14 -15 73 32 73 59 0 7 -34 4
-46 -4z"/>
<path d="M3756 7250 c-70 -70 -77 -91 -29 -82 23 4 153 119 153 135 0 2 -12 7
-27 10 -24 5 -38 -4 -97 -63z"/>
<path d="M4083 7272 c-7 -4 -19 -24 -28 -45 -18 -44 -45 -48 -73 -12 -25 31
-38 31 -63 3 -25 -31 -24 -44 6 -70 30 -26 32 -51 5 -78 -27 -27 -37 -25 -55
10 -28 54 -63 30 -92 -61 -11 -36 -25 -61 -36 -65 -18 -6 -35 -31 -47 -73 -6
-22 -4 -27 11 -28 13 -1 23 12 37 50 19 50 21 52 58 52 38 0 39 -1 37 -34 -1
-24 -10 -40 -34 -60 -35 -30 -33 -46 7 -61 20 -8 22 -13 15 -33 -10 -26 2 -47
27 -47 11 0 13 9 8 40 -5 29 -2 47 10 65 13 20 15 40 11 85 -6 72 12 96 65 86
32 -6 34 -4 52 42 24 58 42 80 82 97 27 11 33 19 37 57 2 23 8 53 12 66 6 19
4 22 -16 22 -13 0 -29 -4 -36 -8z"/>
<path d="M3513 7037 c-6 -12 -9 -45 -7 -72 3 -40 -1 -54 -21 -81 -28 -36 -32
-54 -12 -54 27 0 57 40 51 66 -3 13 -1 30 5 38 15 18 19 118 5 123 -6 2 -15
-7 -21 -20z"/>
<path d="M3678 7049 c-10 -5 -18 -14 -18 -19 0 -14 34 -12 48 2 26 26 5 38
-30 17z"/>
<path d="M3230 7015 c-6 -8 -10 -22 -8 -31 3 -17 4 -17 21 0 18 18 23 46 8 46
-5 0 -14 -7 -21 -15z"/>
<path d="M3366 6961 c-18 -19 -21 -41 -7 -41 12 0 41 29 41 40 0 18 -18 19
-34 1z"/>
<path d="M3178 6819 c-10 -5 -18 -17 -18 -24 0 -22 28 -18 40 4 17 33 10 39
-22 20z"/>
<path d="M3326 6665 c-26 -32 -35 -51 -31 -65 14 -43 84 -30 105 20 9 23 8 34
-4 59 -9 17 -20 31 -24 31 -4 0 -25 -20 -46 -45z"/>
<path d="M3734 6696 c-4 -10 -2 -22 4 -28 8 -8 13 -7 18 6 4 10 2 22 -4 28 -8
8 -13 7 -18 -6z"/>
<path d="M3060 6680 c-9 -17 -8 -20 8 -20 18 0 42 18 42 32 0 17 -40 7 -50
-12z"/>
<path d="M2670 6600 c-8 -5 -10 -10 -5 -10 6 0 17 5 25 10 8 5 11 10 5 10 -5
0 -17 -5 -25 -10z"/>
<path d="M2998 6528 c-9 -7 -19 -29 -22 -48 l-7 -35 35 39 c42 46 37 77 -6 44z"/>
<path d="M2820 6500 c-6 -12 -9 -24 -7 -27 3 -2 11 5 17 17 6 12 9 24 7 27 -3
2 -11 -5 -17 -17z"/>
<path d="M2944 6361 c-15 -23 -29 -39 -32 -37 -10 11 -42 -16 -42 -34 0 -29
17 -33 34 -8 14 20 19 21 37 10 18 -12 24 -11 45 9 29 27 31 60 5 83 -19 17
-21 16 -47 -23z"/>
<path d="M2690 6224 c0 -14 3 -14 15 -4 8 7 15 14 15 16 0 2 -7 4 -15 4 -8 0
-15 -7 -15 -16z"/>
<path d="M3016 6193 c-12 -12 -6 -43 9 -43 8 0 15 9 15 19 0 21 -13 34 -24 24z"/>
<path d="M2907 6143 c-4 -3 -7 -18 -7 -33 0 -18 -14 -39 -45 -68 -25 -23 -51
-42 -59 -42 -7 0 -25 -13 -39 -30 -15 -16 -44 -38 -65 -49 -53 -27 -116 -118
-106 -154 9 -38 33 -33 51 11 8 21 33 51 59 71 24 18 61 49 81 67 25 23 47 34
68 34 17 0 40 7 51 15 10 8 29 15 42 15 15 0 22 6 22 21 0 11 -4 18 -10 14
-15 -9 -34 76 -21 97 6 10 11 22 11 28 0 11 -23 14 -33 3z"/>
<path d="M2640 6015 c0 -22 3 -24 19 -16 31 17 34 41 6 41 -20 0 -25 -5 -25
-25z"/>
<path d="M2427 5984 c-30 -16 -28 -34 3 -34 20 0 46 35 32 43 -4 3 -20 -1 -35
-9z"/>
<path d="M2342 5958 c-13 -13 -16 -38 -4 -38 13 0 52 30 52 41 0 13 -34 11
-48 -3z"/>
<path d="M1880 5854 c0 -14 3 -14 15 -4 8 7 15 14 15 16 0 2 -7 4 -15 4 -8 0
-15 -7 -15 -16z"/>
<path d="M9870 5776 c0 -8 5 -18 10 -21 6 -3 10 3 10 14 0 12 -4 21 -10 21 -5
0 -10 -6 -10 -14z"/>
<path d="M2317 5773 c-4 -3 -7 -13 -7 -22 1 -13 3 -13 11 2 11 19 8 33 -4 20z"/>
<path d="M2441 5736 c-16 -17 -21 -31 -16 -46 4 -11 10 -20 13 -18 4 2 20 10
35 18 21 10 27 20 25 39 -4 34 -29 37 -57 7z"/>
<path d="M2411 5638 c-21 -22 -39 -84 -27 -95 13 -13 66 50 66 78 0 38 -15 44
-39 17z"/>
<path d="M9912 5600 c-1 -19 5 -66 13 -105 l14 -70 -6 65 c-3 36 -9 83 -13
105 l-8 40 0 -35z"/>
<path d="M2156 5481 c-12 -22 -13 -32 -4 -37 13 -8 51 33 45 49 -7 23 -27 17
-41 -12z"/>
<path d="M9880 5479 c0 -5 5 -7 10 -4 6 3 10 8 10 11 0 2 -4 4 -10 4 -5 0 -10
-5 -10 -11z"/>
<path d="M2605 5460 c-10 -11 -23 -20 -29 -20 -6 0 -31 -14 -56 -30 -25 -16
-55 -30 -66 -30 -26 0 -48 -24 -40 -45 7 -20 22 -19 44 3 13 13 29 17 60 14
60 -6 85 3 105 37 18 31 23 76 8 85 -4 3 -16 -3 -26 -14z"/>
<path d="M1775 5390 c-3 -5 -1 -10 4 -10 6 0 11 5 11 10 0 6 -2 10 -4 10 -3 0
-8 -4 -11 -10z"/>
<path d="M9926 5348 c10 -41 10 -96 1 -168 -3 -30 -4 -47 -1 -37 3 9 9 17 13
17 8 0 5 -112 -4 -152 -2 -11 3 -18 12 -18 9 0 13 -6 10 -15 -4 -8 -3 -17 2
-19 9 -6 7 88 -3 229 -11 154 -17 195 -28 195 -7 0 -8 -11 -2 -32z"/>
<path d="M9862 5344 c-1 -12 -5 -43 -8 -70 -4 -36 -3 -45 5 -34 9 12 11 11 12
-10 1 -22 3 -21 13 10 6 19 15 41 19 48 6 8 2 12 -12 12 -15 0 -21 8 -24 33
-2 17 -5 23 -5 11z"/>
<path d="M2420 5261 c0 -35 15 -48 35 -31 20 16 19 46 -1 54 -28 11 -34 7 -34
-23z"/>
<path d="M1950 5261 c-7 -15 -7 -21 0 -21 12 0 25 28 17 36 -3 3 -10 -4 -17
-15z"/>
<path d="M2096 5263 c-9 -22 10 -41 25 -26 13 13 5 43 -10 43 -5 0 -12 -8 -15
-17z"/>
<path d="M1791 5256 c-10 -12 -6 -26 10 -26 11 0 19 29 10 35 -5 2 -14 -1 -20
-9z"/>
<path d="M2202 5258 c-15 -15 -16 -45 -1 -54 12 -7 48 32 49 54 0 15 -32 16
-48 0z"/>
<path d="M2523 5150 c-23 -28 -30 -60 -15 -60 15 0 32 24 32 45 0 12 5 26 12
33 7 7 8 12 3 11 -6 0 -20 -13 -32 -29z"/>
<path d="M2375 5110 c-20 -22 -14 -50 10 -50 18 0 65 43 65 60 0 18 -56 11
-75 -10z"/>
<path d="M9882 5091 c2 -27 8 -46 17 -49 10 -3 11 3 6 29 -12 58 -25 69 -23
20z"/>
<path d="M1425 5087 c-14 -22 -12 -57 4 -57 20 0 52 34 49 53 -4 31 -34 33
-53 4z"/>
<path d="M1623 5084 c-39 -30 -56 -82 -41 -126 8 -23 8 -32 -2 -38 -19 -12 -8
-55 15 -55 17 0 20 7 21 45 0 33 10 59 34 97 24 39 31 59 26 78 -8 31 -13 31
-53 -1z"/>
<path d="M1750 5090 c0 -5 9 -10 21 -10 11 0 17 5 14 10 -3 6 -13 10 -21 10
-8 0 -14 -4 -14 -10z"/>
<path d="M1942 5081 c-10 -6 -10 -10 3 -21 10 -8 15 -9 15 -1 0 6 7 11 16 11
8 0 12 5 9 10 -7 12 -25 13 -43 1z"/>
<path d="M9847 5038 c-4 -12 -6 -36 -6 -53 1 -19 3 -23 6 -11 4 15 7 16 14 5
6 -10 9 -3 9 21 0 46 -15 70 -23 38z"/>
<path d="M9806 4985 c-9 -25 -7 -67 3 -61 5 3 12 18 15 32 8 30 -8 55 -18 29z"/>
<path d="M2098 4974 c-25 -13 -33 -29 -29 -60 2 -14 -63 -64 -83 -64 -23 0
-29 -18 -9 -29 12 -6 31 -5 58 5 22 7 41 14 43 14 1 0 2 16 2 35 0 19 4 35 8
35 11 0 48 67 42 74 -3 2 -17 -2 -32 -10z"/>
<path d="M2359 4934 c-43 -31 -64 -68 -46 -81 6 -5 26 -10 43 -11 28 -2 34 2
43 29 13 38 14 76 2 83 -4 3 -23 -6 -42 -20z"/>
<path d="M9928 4893 c-4 -76 0 -105 13 -97 5 3 9 -15 9 -39 0 -41 26 -114 37
-104 2 3 0 22 -6 43 -6 22 -8 68 -4 106 4 45 2 68 -5 68 -6 0 -13 -6 -15 -12
-3 -7 -6 10 -6 39 -1 77 -19 74 -23 -4z"/>
<path d="M1732 4914 c-34 -41 -42 -81 -18 -90 29 -11 54 14 58 58 8 67 -4 76
-40 32z"/>
<path d="M1313 4889 c-19 -20 -46 -34 -70 -38 -32 -5 -38 -10 -38 -31 0 -19 4
-24 20 -22 11 2 35 5 54 5 39 2 67 33 77 85 8 40 -3 41 -43 1z"/>
<path d="M2182 4907 c-16 -19 -25 -64 -14 -71 13 -8 29 12 37 45 7 30 -7 46
-23 26z"/>
<path d="M1831 4856 c-26 -28 -21 -46 14 -46 31 0 52 35 34 56 -16 19 -22 18
-48 -10z"/>
<path d="M9847 4833 c-11 -10 -8 -53 3 -53 6 0 10 14 10 30 0 31 -2 35 -13 23z"/>
<path d="M9876 4778 c-3 -13 -6 -39 -6 -58 1 -44 15 -23 25 38 7 44 -8 60 -19
20z"/>
<path d="M1042 4738 c-6 -7 -13 -31 -17 -53 l-7 -40 20 28 c10 15 29 35 41 43
11 8 21 19 21 25 0 13 -46 11 -58 -3z"/>
<path d="M2212 4733 c-7 -12 -12 -40 -12 -62 0 -28 -7 -48 -25 -69 -24 -29
-24 -31 -7 -52 22 -27 50 -18 58 19 3 14 10 47 17 73 9 39 8 54 -5 80 -15 32
-15 32 -26 11z"/>
<path d="M9931 4659 c-1 -46 -6 -70 -16 -79 -9 -7 -15 -28 -14 -49 0 -29 2
-32 9 -16 l9 20 0 -20 c1 -16 4 -15 16 9 18 34 19 68 7 146 l-10 55 -1 -66z"/>
<path d="M1877 4703 c-13 -12 -7 -43 8 -43 8 0 15 6 15 13 0 18 -15 38 -23 30z"/>
<path d="M2111 4694 c0 -11 3 -14 6 -6 3 7 2 16 -1 19 -3 4 -6 -2 -5 -13z"/>
<path d="M9801 4698 c-1 -9 -9 -24 -18 -34 -13 -12 -19 -38 -21 -90 -4 -61 -7
-72 -20 -67 -10 4 -13 2 -8 -5 3 -6 1 -14 -5 -18 -7 -4 -9 -25 -5 -63 3 -31 2
-70 -3 -87 -5 -18 -5 -37 0 -47 6 -10 5 -18 -1 -22 -13 -8 -13 -45 1 -45 6 0
13 9 16 20 3 11 9 20 13 20 10 0 30 47 31 78 1 20 4 17 9 -13 5 -29 7 -15 8
55 l0 95 -22 -90 -23 -90 -6 50 c-3 28 -8 69 -11 91 -5 35 -3 42 12 40 13 -1
18 10 23 49 3 28 7 39 9 25 1 -17 5 -9 12 25 5 27 13 54 18 60 5 6 5 26 0 45
-4 19 -8 27 -9 18z m-14 -80 c-3 -7 -5 -2 -5 12 0 14 2 19 5 13 2 -7 2 -19 0
-25z"/>
<path d="M1750 4665 c0 -8 7 -15 15 -15 8 0 15 7 15 15 0 8 -7 15 -15 15 -8 0
-15 -7 -15 -15z"/>
<path d="M9897 4640 c-3 -11 -1 -20 4 -20 5 0 9 9 9 20 0 11 -2 20 -4 20 -2 0
-6 -9 -9 -20z"/>
<path d="M9687 4555 c-3 -20 -2 -46 2 -58 7 -17 9 -13 15 27 4 28 4 52 -2 58
-6 6 -11 -4 -15 -27z"/>
<path d="M1880 4535 c-16 -19 -6 -45 18 -45 29 0 48 26 32 45 -16 19 -34 19
-50 0z"/>
<path d="M9837 4520 c-10 -28 -14 -110 -6 -104 5 3 9 14 9 25 0 11 4 28 9 37
5 9 5 26 1 37 -6 16 -9 17 -13 5z"/>
<path d="M1763 4474 c-7 -19 20 -49 36 -40 6 4 11 18 11 32 0 17 -5 24 -20 24
-11 0 -23 -7 -27 -16z"/>
<path d="M9922 4415 c0 -16 2 -22 5 -12 2 9 2 23 0 30 -3 6 -5 -1 -5 -18z"/>
<path d="M1881 4401 c-1 -24 2 -32 9 -25 7 7 7 19 1 35 -9 23 -10 22 -10 -10z"/>
<path d="M9870 4405 c-1 -5 -5 -30 -11 -55 -5 -25 -12 -61 -14 -80 l-3 -35 10
35 c5 19 15 54 22 77 7 23 9 48 5 55 -5 7 -9 9 -9 3z"/>
<path d="M945 4331 c-14 -23 -31 -41 -37 -41 -9 0 -9 -3 -1 -11 5 -5 30 -9 54
-7 38 3 45 7 53 31 7 19 7 34 0 45 -20 31 -42 25 -69 -17z"/>
<path d="M9675 4340 c-3 -11 -6 -48 -5 -82 1 -35 -1 -85 -6 -113 -7 -49 -7
-50 13 -32 25 21 33 22 33 0 0 -9 3 -13 6 -10 4 3 -1 22 -10 42 -14 28 -16 51
-10 119 4 55 3 85 -4 90 -6 3 -13 -3 -17 -14z"/>
<path d="M522 4319 c2 -18 9 -34 16 -37 10 -3 13 5 10 29 -2 18 -9 34 -16 37
-10 3 -13 -5 -10 -29z"/>
<path d="M500 4241 c0 -11 4 -22 9 -25 4 -3 6 6 3 19 -5 30 -12 33 -12 6z"/>
<path d="M635 4230 c-5 -9 -4 -15 3 -18 7 -2 19 -17 28 -33 16 -32 34 -31 34
2 0 12 -7 19 -18 19 -11 0 -23 10 -29 22 -7 17 -11 19 -18 8z"/>
<path d="M1003 4210 c-12 -5 -29 -20 -38 -34 -15 -22 -15 -27 0 -55 11 -22 23
-31 40 -31 15 0 25 6 25 14 0 8 9 33 19 57 25 55 9 71 -46 49z"/>
<path d="M760 4195 c0 -8 5 -15 10 -15 6 0 10 7 10 15 0 8 -4 15 -10 15 -5 0
-10 -7 -10 -15z"/>
<path d="M857 4182 c-9 -10 -19 -32 -22 -48 -5 -22 -2 -32 15 -42 17 -11 21
-10 27 5 4 10 15 27 25 38 11 11 17 29 16 40 -4 26 -40 31 -61 7z"/>
<path d="M220 4171 c0 -11 5 -23 10 -26 6 -3 10 3 10 14 0 11 -4 23 -10 26 -5
3 -10 -3 -10 -14z"/>
<path d="M9942 4170 c0 -14 2 -19 5 -12 2 6 2 18 0 25 -3 6 -5 1 -5 -13z"/>
<path d="M9791 4078 c0 -40 3 -68 9 -68 6 0 10 8 11 18 0 9 2 27 5 40 2 12 0
22 -5 22 -5 0 -12 12 -14 28 -2 15 -5 -3 -6 -40z"/>
<path d="M9932 4110 c0 -19 2 -27 5 -17 2 9 2 25 0 35 -3 9 -5 1 -5 -18z"/>
<path d="M9862 4100 c0 -14 2 -19 5 -12 2 6 2 18 0 25 -3 6 -5 1 -5 -13z"/>
<path d="M500 4099 c0 -17 26 -57 33 -49 2 3 -4 19 -14 35 -11 17 -19 23 -19
14z"/>
<path d="M9761 4093 c-1 -6 -4 -20 -7 -30 -5 -17 -5 -17 6 0 6 10 9 23 6 30
-3 9 -5 9 -5 0z"/>
<path d="M9718 4051 c-5 -18 -8 -50 -7 -70 l1 -36 9 33 c6 19 9 50 7 70 l-3
37 -7 -34z"/>
<path d="M570 4060 c1 -8 7 -28 16 -45 l14 -30 -5 35 c-5 35 -25 67 -25 40z"/>
<path d="M888 4029 c-16 -11 -28 -27 -28 -34 0 -20 -36 -28 -59 -13 -15 9 -26
10 -38 2 -40 -25 -21 -54 43 -65 52 -8 41 -13 188 83 17 11 -24 48 -53 48 -14
0 -38 -10 -53 -21z"/>
<path d="M9910 4022 c0 -15 -5 -20 -15 -16 -15 6 -19 0 -30 -49 -4 -20 -2 -27
6 -22 7 5 9 1 6 -11 -16 -60 -17 -74 -3 -74 9 0 17 15 21 43 3 23 11 64 17 90
5 26 7 51 4 54 -3 4 -6 -3 -6 -15z"/>
<path d="M9772 3970 c0 -14 2 -19 5 -12 2 6 2 18 0 25 -3 6 -5 1 -5 -13z"/>
<path d="M638 3948 c-2 -7 -1 -26 3 -43 4 -16 7 -24 8 -17 0 6 10 12 21 12 24
0 25 8 4 38 -17 25 -30 28 -36 10z"/>
<path d="M9730 3943 c0 -12 -3 -28 -6 -37 -3 -9 -2 -16 4 -16 15 0 25 51 13
63 -8 8 -11 5 -11 -10z"/>
<path d="M455 3940 c3 -5 8 -10 11 -10 2 0 4 5 4 10 0 6 -5 10 -11 10 -5 0 -7
-4 -4 -10z"/>
<path d="M530 3921 c13 -25 33 -28 28 -4 -2 10 -11 19 -21 21 -16 3 -17 1 -7
-17z"/>
<path d="M9850 3911 c0 -7 -7 -19 -15 -28 -9 -8 -19 -28 -22 -44 -3 -16 -10
-29 -15 -29 -6 0 -8 -15 -5 -32 2 -18 -4 -68 -14 -111 -14 -57 -16 -83 -9 -95
9 -14 10 -12 4 7 -4 18 -3 22 7 16 9 -6 11 -4 6 8 -3 8 3 32 13 53 11 20 17
41 14 46 -4 5 1 28 9 51 8 23 15 49 15 57 -1 8 5 35 11 59 7 23 10 46 7 49 -3
3 -6 0 -6 -7z"/>
<path d="M708 3888 c-12 -34 6 -69 43 -89 40 -20 54 -46 47 -90 -2 -18 -10
-25 -31 -27 -15 -2 -25 -7 -22 -12 3 -5 8 -37 11 -72 6 -71 9 -78 29 -78 11 0
13 10 9 43 -5 33 -2 47 10 60 38 37 22 140 -30 195 -12 13 -24 37 -28 53 -5
29 -31 40 -38 17z"/>
<path d="M9752 3854 c-7 -21 -18 -49 -24 -60 -7 -15 -7 -28 0 -39 8 -15 12 -9
26 33 10 28 16 64 14 79 -3 25 -4 24 -16 -13z"/>
<path d="M9695 3795 c-4 -37 -5 -69 -2 -72 3 -2 8 25 12 62 4 36 5 68 2 71 -2
3 -8 -25 -12 -61z"/>
<path d="M620 3805 c0 -25 14 -34 24 -16 8 12 -3 41 -15 41 -5 0 -9 -11 -9
-25z"/>
<path d="M9635 3801 c3 -18 5 -39 5 -45 0 -6 5 -4 10 4 5 8 9 29 8 45 -1 28
-1 28 -6 5 l-5 -25 -8 25 c-7 21 -8 19 -4 -9z"/>
<path d="M661 3804 c0 -11 3 -14 6 -6 3 7 2 16 -1 19 -3 4 -6 -2 -5 -13z"/>
<path d="M410 3795 c0 -8 4 -15 10 -15 5 0 7 7 4 15 -4 8 -8 15 -10 15 -2 0
-4 -7 -4 -15z"/>
<path d="M192 3775 c0 -16 2 -22 5 -12 2 9 2 23 0 30 -3 6 -5 -1 -5 -18z"/>
<path d="M250 3751 c0 -5 5 -13 10 -16 6 -3 10 -2 10 4 0 5 -4 13 -10 16 -5 3
-10 2 -10 -4z"/>
<path d="M846 3731 c-3 -5 4 -31 16 -57 18 -42 22 -46 29 -29 12 31 10 70 -3
83 -14 14 -35 16 -42 3z"/>
<path d="M9647 3700 c-4 -14 -6 -38 -6 -55 l1 -30 9 34 c6 18 9 43 7 55 -3 20
-4 19 -11 -4z"/>
<path d="M550 3695 c0 -8 4 -15 10 -15 5 0 7 7 4 15 -4 8 -8 15 -10 15 -2 0
-4 -7 -4 -15z"/>
<path d="M488 3661 c-20 -19 -24 -41 -8 -41 6 0 12 1 13 3 2 1 11 -4 21 -12 9
-8 19 -12 21 -9 5 4 -22 79 -28 77 -1 0 -10 -8 -19 -18z"/>
<path d="M324 3653 c-4 -13 -10 -21 -14 -18 -5 3 -11 1 -14 -4 -8 -12 21 -41
40 -41 16 0 19 47 4 70 -8 13 -11 11 -16 -7z"/>
<path d="M9691 3644 c0 -11 3 -14 6 -6 3 7 2 16 -1 19 -3 4 -6 -2 -5 -13z"/>
<path d="M400 3613 c0 -5 6 -18 14 -29 17 -22 35 -11 20 13 -12 19 -34 29 -34
16z"/>
<path d="M874 3586 c-3 -19 -15 -42 -25 -52 -23 -21 -24 -38 -3 -59 20 -19 31
-11 38 28 3 16 10 35 16 42 7 9 9 23 4 37 -4 13 -7 26 -6 31 1 4 -2 7 -8 7 -5
0 -12 -15 -16 -34z"/>
<path d="M9715 3589 c-4 -17 -4 -33 -1 -36 3 -4 6 1 6 10 0 10 5 17 11 17 7 0
9 -9 6 -21 -6 -23 1 -49 12 -49 9 0 6 55 -4 88 -10 31 -22 28 -30 -9z"/>
<path d="M9642 3568 c-6 -24 -20 -61 -32 -83 -20 -39 -27 -95 -12 -95 4 0 19
39 34 88 39 124 40 132 30 132 -5 0 -15 -19 -20 -42z"/>
<path d="M250 3566 c0 -23 75 -126 92 -126 4 0 8 16 8 36 0 27 -5 37 -20 41
-10 3 -28 20 -39 39 -24 40 -41 44 -41 10z"/>
<path d="M683 3583 c-7 -3 -13 -11 -13 -18 0 -8 -7 -21 -16 -29 -10 -11 -12
-21 -6 -32 7 -13 13 -8 32 30 23 49 24 56 3 49z"/>
<path d="M526 3495 c4 -8 10 -12 15 -9 11 6 2 24 -11 24 -5 0 -7 -7 -4 -15z"/>
<path d="M480 3465 c-13 -33 -15 -34 -32 -18 -17 15 -19 15 -33 -3 -9 -12 -12
-31 -8 -53 3 -21 1 -36 -6 -40 -9 -6 -9 -15 -1 -35 11 -29 30 -27 30 4 0 33
33 80 57 80 20 0 22 5 21 50 -1 28 -4 50 -8 50 -3 0 -12 -16 -20 -35z"/>
<path d="M9725 3480 c3 -5 8 -10 11 -10 2 0 4 5 4 10 0 6 -5 10 -11 10 -5 0
-7 -4 -4 -10z"/>
<path d="M738 3445 c-4 -21 -1 -25 18 -25 27 0 29 7 10 33 -18 23 -23 22 -28
-8z"/>
<path d="M9711 3463 c-1 -6 -4 -20 -7 -30 -5 -17 -5 -17 6 0 6 10 9 23 6 30
-3 9 -5 9 -5 0z"/>
<path d="M803 3430 c-29 -12 -29 -22 1 -57 20 -24 26 -25 40 -14 21 17 20 34
-1 59 -14 16 -23 18 -40 12z"/>
<path d="M620 3405 c0 -15 6 -25 14 -25 19 0 28 14 20 34 -10 25 -34 19 -34
-9z"/>
<path d="M700 3403 c0 -11 7 -28 15 -39 14 -18 15 -17 13 15 -3 36 -28 57 -28
24z"/>
<path d="M9626 3395 c-9 -26 -7 -32 5 -12 6 10 9 21 6 23 -2 3 -7 -2 -11 -11z"/>
<path d="M306 3376 c3 -8 17 -22 30 -31 22 -14 24 -14 24 3 0 23 -19 42 -42
42 -11 0 -15 -5 -12 -14z"/>
<path d="M547 3373 c10 -29 14 -34 24 -28 5 4 5 14 -1 26 -13 24 -32 25 -23 2z"/>
<path d="M9690 3341 c0 -6 4 -13 10 -16 6 -3 7 1 4 9 -7 18 -14 21 -14 7z"/>
<path d="M9561 3294 c0 -11 3 -14 6 -6 3 7 2 16 -1 19 -3 4 -6 -2 -5 -13z"/>
<path d="M525 3270 c3 -5 11 -10 16 -10 6 0 7 5 4 10 -3 6 -11 10 -16 10 -6 0
-7 -4 -4 -10z"/>
<path d="M340 3205 c0 -27 23 -66 31 -53 4 6 1 24 -7 40 -16 31 -24 35 -24 13z"/>
<path d="M9600 3170 c0 -5 5 -10 10 -10 6 0 10 5 10 10 0 6 -4 10 -10 10 -5 0
-10 -4 -10 -10z"/>
<path d="M9502 3090 c0 -14 2 -19 5 -12 2 6 2 18 0 25 -3 6 -5 1 -5 -13z"/>
<path d="M9407 2853 c-4 -3 -7 -11 -7 -17 0 -6 5 -5 12 2 6 6 9 14 7 17 -3 3
-9 2 -12 -2z"/>
<path d="M9195 2379 c-4 -6 -5 -12 -2 -15 2 -3 7 2 10 11 7 17 1 20 -8 4z"/>
<path d="M9116 2353 c-6 -14 -5 -15 5 -6 7 7 10 15 7 18 -3 3 -9 -2 -12 -12z"/>
<path d="M9066 2323 c-6 -14 -5 -15 5 -6 7 7 10 15 7 18 -3 3 -9 -2 -12 -12z"/>
<path d="M9000 2248 c-11 -18 -23 -43 -26 -55 -4 -13 -10 -23 -14 -23 -4 0 -5
-12 -2 -26 l5 -27 23 38 c12 21 20 43 17 50 -2 7 3 27 12 44 21 41 10 40 -15
-1z"/>
<path d="M9046 2199 c-27 -37 -32 -48 -17 -39 17 9 69 90 58 90 -1 0 -20 -23
-41 -51z"/>
<path d="M8940 2091 c-13 -25 -13 -34 0 -26 16 10 32 45 21 45 -6 0 -15 -9
-21 -19z"/>
<path d="M8910 2000 c-17 -22 -27 -40 -21 -40 12 0 66 69 59 76 -3 3 -20 -13
-38 -36z"/>
<path d="M7315 640 c-3 -5 -2 -10 4 -10 5 0 13 5 16 10 3 6 2 10 -4 10 -5 0
-13 -4 -16 -10z"/>
</g>
</svg>
