<svg width="178" height="63" viewBox="0 0 178 63" fill="none" xmlns="http://www.w3.org/2000/svg">
<g clip-path="url(#clip0)">
<path d="M22.2167 2L156.783 2C163.813 2 166.362 2.7318 168.932 4.10597C171.502 5.48014 173.519 7.49668 174.894 10.0662C176.268 12.6356 177 15.1843 177 22.2127V40.7873C177 47.8157 176.268 50.3644 174.894 52.9338C173.519 55.5033 171.502 57.5199 168.932 58.894C166.362 60.2682 163.813 61 156.783 61H22.2167C15.1869 61 12.6377 60.2682 10.0678 58.894C7.49777 57.5199 5.48083 55.5033 4.10639 52.9338C2.73195 50.3644 2 47.8157 2 40.7873L2 22.2127C2 15.1843 2.73195 12.6356 4.10639 10.0662C5.48083 7.49668 7.49777 5.48014 10.0678 4.10597C12.6377 2.7318 15.1869 2 22.2167 2Z" fill="white"/>
<path d="M77.2997 32.2688C80.6694 32.2689 82.8907 34.932 82.8907 39.0457C82.8907 43.1708 80.6824 45.8211 77.3498 45.8211C75.6273 45.9112 74.0047 45.0091 73.1724 43.4987H73.1093V50.0736H70.384V32.4077H73.022V34.6156H73.0721C73.9415 33.1146 75.5658 32.2129 77.2997 32.2688ZM91.9129 32.2689C95.2827 32.2689 97.5039 34.932 97.5039 39.0457C97.5039 43.1708 95.2956 45.8211 91.9631 45.8211C90.2405 45.9112 88.618 45.0091 87.7856 43.4987H87.7226V50.0736H84.9972V32.4077H87.6352V34.6156H87.6853C88.5547 33.1146 90.179 32.2129 91.9129 32.2689ZM111.478 27.1715C115.326 27.1715 117.964 29.3292 118.053 32.4707H115.302C115.137 30.6537 113.635 29.5569 111.44 29.5569C109.244 29.5569 107.742 30.6666 107.742 32.2817C107.742 33.5689 108.702 34.3263 111.049 34.9061L113.055 35.3987C116.792 36.2821 118.344 37.7827 118.344 40.4459C118.344 43.8522 115.63 45.9856 111.314 45.9856C107.275 45.9856 104.548 43.9023 104.372 40.6091L107.162 40.6092C107.364 42.4148 109.118 43.6003 111.516 43.6003C113.813 43.6003 115.465 42.4147 115.465 40.7867C115.465 39.3735 114.469 38.5273 112.109 37.9474L109.748 37.379C106.404 36.5714 104.852 35.0079 104.852 32.4707C104.852 29.3292 107.59 27.1715 111.478 27.1715ZM156.578 32.2445C160.252 32.2445 162.562 34.7674 162.562 38.7922V39.7258H153.184V39.8905C153.097 40.8787 153.438 41.857 154.121 42.5763C154.805 43.2957 155.764 43.6869 156.756 43.6504C158.079 43.7743 159.325 43.015 159.822 41.7833L162.41 41.7833C162.043 44.1931 159.696 45.8469 156.693 45.8469C152.831 45.8469 150.433 43.2595 150.433 39.1087C150.433 34.9449 152.843 32.2445 156.578 32.2445ZM134.51 32.2445C138.359 32.2445 140.808 34.869 140.808 39.0457C140.808 43.2338 138.372 45.8469 134.51 45.8469C130.649 45.8469 128.213 43.2338 128.213 39.0457C128.213 34.8691 130.673 32.2445 134.51 32.2445ZM124.226 29.2663V32.4077H126.75V34.5655H124.226V41.8836C124.226 43.0204 124.731 43.5502 125.841 43.5502C126.141 43.545 126.44 43.5239 126.738 43.4872V45.632C126.239 45.7253 125.731 45.7675 125.224 45.758C122.536 45.758 121.487 44.7486 121.487 42.1742V34.5655H119.557V32.4077H121.487V29.2663H124.226ZM62.1165 27.4751L68.6913 45.6822H65.701L64.0355 40.761H57.0941L55.4271 45.6822H52.487L59.0618 27.4751H62.1165ZM148.911 32.2688C149.225 32.2677 149.538 32.3018 149.845 32.3705V34.9191C149.448 34.798 149.035 34.7424 148.62 34.7545C147.819 34.722 147.044 35.0412 146.498 35.6284C145.952 36.2156 145.69 37.012 145.78 37.8086V45.6822H143.055V32.4077H145.654V34.6671H145.717C146.08 33.2127 147.413 32.2116 148.911 32.2688ZM29.8212 22.9558C31.0761 22.9558 33.4635 21.2241 35.926 21.4825C38.2667 21.5557 40.4358 22.7281 41.779 24.6461C39.6595 25.9489 38.3552 28.2464 38.3231 30.7338C38.3262 33.5479 40.0118 36.0876 42.6041 37.1838C42.1056 38.8031 41.3541 40.3334 40.3774 41.718C39.0658 43.6796 37.6906 45.5961 35.5079 45.6315C33.3871 45.6804 32.6744 44.3836 30.2418 44.3836C27.7865 44.3836 27.0268 45.5961 24.9927 45.6804C22.914 45.7574 21.3254 43.5868 19.9661 41.6436C17.2493 37.6752 15.1338 30.46 17.97 25.5505C19.3018 23.1577 21.792 21.6394 24.5294 21.551C26.61 21.5082 28.5421 22.9558 29.8212 22.9558ZM134.51 34.4896C132.301 34.4896 130.99 36.1935 130.99 39.0457C130.99 41.9222 132.301 43.6003 134.51 43.6003C136.718 43.6003 138.031 41.9222 138.031 39.0457C138.031 36.1806 136.718 34.4896 134.51 34.4896ZM76.5808 34.5913C74.4985 34.5913 73.0979 36.3954 73.0979 39.0457C73.0979 41.7203 74.4985 43.5116 76.5808 43.5116C78.7003 43.5116 80.0895 41.7576 80.0895 39.0457C80.0895 36.3582 78.7003 34.5913 76.5808 34.5913ZM91.194 34.5913C89.1117 34.5913 87.7111 36.3954 87.7111 39.0457C87.7111 41.7203 89.1117 43.5116 91.194 43.5116C93.3136 43.5116 94.7027 41.7576 94.7027 39.0457C94.7027 36.3582 93.3135 34.5913 91.194 34.5913ZM60.6028 30.5034H60.5269L57.813 38.4901H63.3152L60.6028 30.5034ZM156.578 34.4524C155.682 34.447 154.821 34.7999 154.186 35.4326C153.551 36.0652 153.195 36.9252 153.197 37.8215H159.835C159.885 36.9335 159.561 36.0651 158.943 35.4255C158.325 34.786 157.468 34.4333 156.578 34.4524ZM152.763 15.7892C154.601 15.7892 155.709 17.0443 155.709 19.1175V19.5721H151.046V19.6452C151.005 20.1351 151.172 20.6197 151.507 20.9797C151.842 21.3398 152.313 21.542 152.805 21.5365C153.442 21.6131 154.063 21.2969 154.376 20.7361L155.63 20.7362C155.265 21.9815 154.06 22.7862 152.769 22.6462C151.889 22.6695 151.042 22.3046 150.455 21.6483C149.867 20.9921 149.598 20.1109 149.719 19.2385C149.601 18.3637 149.87 17.4811 150.454 16.8193C151.038 16.1575 151.881 15.7817 152.763 15.7892ZM96.5388 16.2593C97.5492 16.8861 98.1169 18.0314 98.0037 19.2149C98.119 20.3996 97.5518 21.547 96.5406 22.1752C95.5293 22.8033 94.2492 22.8033 93.2379 22.1752C92.2267 21.547 91.6595 20.3996 91.7747 19.2149C91.6616 18.0314 92.2292 16.8861 93.2396 16.2593C94.25 15.6325 95.5285 15.6325 96.5388 16.2593ZM122.953 16.2594C123.963 16.8862 124.531 18.0315 124.418 19.2149C124.533 20.3995 123.966 21.547 122.955 22.1752C121.943 22.8034 120.663 22.8034 119.652 22.1752C118.641 21.547 118.074 20.3995 118.189 19.2149C118.076 18.0315 118.644 16.8862 119.654 16.2594C120.664 15.6326 121.943 15.6326 122.953 16.2594ZM67.8876 16.2594C68.8979 16.8862 69.4654 18.0315 69.3522 19.2149C69.4676 20.3995 68.9006 21.547 67.8894 22.1752C66.8782 22.8034 65.598 22.8034 64.5868 22.1752C63.5756 21.547 63.0086 20.3995 63.124 19.2149C63.0107 18.0315 63.5783 16.8862 64.5886 16.2594C65.5989 15.6326 66.8773 15.6326 67.8876 16.2594ZM102.329 15.7892C103.984 15.7892 104.918 16.6132 104.918 18.0079V22.5188H103.663V21.591H103.56C103.134 22.2686 102.377 22.6646 101.577 22.6276C101.016 22.6859 100.457 22.5044 100.038 22.1279C99.6184 21.7515 99.3779 21.2152 99.3757 20.6517C99.3757 19.4633 100.261 18.7782 101.832 18.6808L103.62 18.5777V18.0079C103.62 17.3105 103.159 16.9168 102.269 16.9168C101.541 16.9168 101.037 17.1838 100.892 17.6506H99.6306C99.7638 16.5166 100.831 15.7892 102.329 15.7892ZM112.797 13.3394V22.5188H111.549V21.4757H111.446C111.022 22.2153 110.223 22.659 109.372 22.6276C107.692 22.6277 106.631 21.3061 106.631 19.2149C106.631 17.1287 107.703 15.8071 109.372 15.8071C110.214 15.7683 111.003 16.2196 111.397 16.9654H111.494V13.3394H112.797ZM139.138 14.2729V15.9467H140.569V17.0442H139.138V20.4391C139.138 21.1307 139.423 21.4335 140.072 21.4335C140.238 21.433 140.404 21.4229 140.569 21.4034V22.4887C140.335 22.5306 140.098 22.5529 139.86 22.5553C138.411 22.5553 137.834 22.0456 137.834 20.7727V17.0442H136.785V15.9467H137.834V14.2729H139.138ZM60.5592 14.9696C61.3568 15.8116 61.7346 16.9669 61.5888 18.1174C61.5888 20.9124 60.0779 22.5189 57.4714 22.5189H54.3108V13.7704H57.4714C58.6284 13.6874 59.7616 14.1275 60.5592 14.9696ZM89.9631 13.3394V22.5188H88.6599V13.3394H89.9631ZM84.2977 15.7892C84.9486 15.7403 85.5863 15.9899 86.031 16.4676C86.4756 16.9453 86.6789 17.5993 86.5834 18.2448V22.5187H85.2801V18.572C85.2801 17.511 84.819 16.9834 83.8552 16.9834C83.4137 16.9628 82.9853 17.136 82.6822 17.4576C82.3792 17.7792 82.2317 18.2171 82.2784 18.6565V22.5188H80.9752V15.9167H82.2297V16.9655H82.3271C82.6658 16.1933 83.4571 15.7209 84.2977 15.7892ZM71.615 15.9167L72.7979 20.9545H72.8953L74.2529 15.9167H75.5031L76.8608 20.9545H76.9639L78.1411 15.9167H79.4443L77.6312 22.5188H76.2793L74.9145 17.6563H74.8114L73.4524 22.5188H72.1133L70.2931 15.9167H71.615ZM129.489 15.7892C130.14 15.7403 130.777 15.9899 131.222 16.4676C131.667 16.9453 131.87 17.5993 131.774 18.2448V22.5187H130.471V18.572C130.471 17.511 130.01 16.9834 129.046 16.9834C128.605 16.9628 128.176 17.136 127.873 17.4576C127.57 17.7792 127.423 18.2171 127.469 18.6565V22.5188H126.166V15.9167H127.421V16.9655H127.518C127.857 16.1933 128.648 15.7209 129.489 15.7892ZM143.641 13.3394V16.9776H143.744C144.099 16.1987 144.904 15.7257 145.757 15.7949C146.405 15.7597 147.034 16.0149 147.473 16.4908C147.913 16.9668 148.118 17.614 148.032 18.2563V22.5188H146.727V18.5777C146.727 17.5231 146.236 16.9891 145.315 16.9891C144.862 16.9519 144.415 17.1167 144.094 17.4394C143.774 17.7621 143.612 18.2098 143.652 18.6629V22.5188H142.349L142.349 13.3394H143.641ZM103.62 19.5356L102.008 19.6387C101.099 19.6995 100.686 20.0088 100.686 20.5909C100.686 21.1851 101.202 21.5308 101.911 21.5308C102.33 21.5733 102.749 21.4437 103.072 21.1716C103.394 20.8996 103.592 20.5084 103.62 20.0876V19.5356ZM94.891 16.9469C93.7582 16.9469 93.121 17.7838 93.121 19.2149C93.121 20.6575 93.7583 21.4879 94.891 21.4879C96.0195 21.4879 96.6625 20.6517 96.6625 19.2149C96.6625 17.7838 96.0195 16.9469 94.891 16.9469ZM66.2402 16.9469C65.1074 16.9469 64.4702 17.7838 64.4702 19.2149C64.4702 20.6575 65.1075 21.4879 66.2402 21.4879C67.3688 21.4879 68.0118 20.6517 68.0118 19.2149C68.0118 17.7838 67.3687 16.9469 66.2402 16.9469ZM121.306 16.9469C120.173 16.9469 119.536 17.7838 119.536 19.2149C119.536 20.6575 120.173 21.4879 121.306 21.4879C122.434 21.4879 123.077 20.6517 123.077 19.2149C123.077 17.7838 122.434 16.9469 121.306 16.9469ZM109.741 16.9777C108.644 16.9777 107.977 17.826 107.977 19.2149C107.977 20.6152 108.637 21.4578 109.741 21.4578C110.84 21.4578 111.519 20.6031 111.519 19.2206C111.519 17.8446 110.833 16.9777 109.741 16.9777ZM57.3196 15.0067H55.6698V21.2817H57.3196C58.1465 21.3311 58.9515 21.0054 59.5113 20.395C60.0711 19.7847 60.3261 18.9546 60.2053 18.1353C60.3173 17.3194 60.0587 16.4961 59.5003 15.8907C58.9419 15.2853 58.1421 14.9611 57.3196 15.0067ZM35.9517 13.7547C36.0937 15.6083 35.5073 17.4442 34.3173 18.8726C33.1626 20.3084 31.4132 21.1354 29.5706 21.1164C29.4534 19.3162 30.0568 17.5432 31.2478 16.188C32.454 14.8144 34.1335 13.9456 35.9517 13.7547ZM152.756 16.8982C152.301 16.8925 151.862 17.0708 151.54 17.3929C151.218 17.7149 151.04 18.1532 151.046 18.6085H154.382C154.415 18.1604 154.257 17.7192 153.948 17.3935C153.638 17.0678 153.205 16.8879 152.756 16.8982Z" fill="black"/>
<rect x="50.8372" y="5.5603" width="117.006" height="49.8448" fill="white"/>
<path d="M60.1229 45.819H62.9667V29.9498H68.5653V27.4996H54.5116V29.9498H60.1229V45.819ZM72.9833 46.0856C76.2206 46.0856 78.2772 44.1559 78.7089 42.0358L78.7343 41.8961H76.1317L76.0936 41.9977C75.7509 43.0006 74.6718 43.8385 73.0468 43.8385C70.8632 43.8385 69.4794 42.3658 69.4286 39.8395H78.8866V38.9127C78.8866 34.901 76.5887 32.2096 72.8436 32.2096C69.0985 32.2096 66.6864 35.0026 66.6864 39.1793V39.192C66.6864 43.4069 69.0604 46.0856 72.9833 46.0856ZM72.8563 34.4567C74.6464 34.4567 75.9413 35.5865 76.1698 37.8971H69.4667C69.7079 35.6627 71.079 34.4567 72.8563 34.4567ZM86.0214 46.0856C89.1698 46.0856 91.455 44.4098 91.455 41.9723V41.9596C91.455 40.0426 90.4139 38.9635 87.6844 38.3287L85.5135 37.8336C84.079 37.4908 83.5331 36.9323 83.5331 36.1071V36.0944C83.5331 35.028 84.4598 34.3297 85.9325 34.3297C87.4813 34.3297 88.3954 35.1422 88.5604 36.3102L88.5731 36.399H91.1503L91.1376 36.2467C90.9979 33.9742 89.0936 32.2096 85.9325 32.2096C82.8602 32.2096 80.7782 33.8473 80.7782 36.234V36.2467C80.7782 38.1891 82.035 39.4078 84.5741 39.9918L86.7577 40.4869C88.1923 40.8297 88.6747 41.3248 88.6747 42.1881V42.2008C88.6747 43.2799 87.6844 43.9655 86.0341 43.9655C84.3456 43.9655 83.4315 43.2418 83.1776 42.0104L83.1522 41.8834H80.4354L80.4481 41.9977C80.7274 44.4352 82.6825 46.0856 86.0214 46.0856ZM98.2723 46.0856C98.8309 46.0856 99.3514 46.0221 99.6688 45.9713V43.8512C99.4657 43.8766 99.2245 43.902 98.9325 43.902C97.7772 43.902 97.1678 43.4957 97.1678 42.1373V34.6471H99.6688V32.4635H97.1678V28.985H94.3622V32.4635H92.4452V34.6471H94.3622V42.3024C94.3622 44.9684 95.6317 46.0856 98.2723 46.0856ZM102.741 45.819H105.496V34.6471H108.162V32.4635H105.445V31.0924C105.445 29.9117 106.029 29.3151 107.261 29.3151C107.603 29.3151 107.946 29.3405 108.213 29.3785V27.3473C107.845 27.2838 107.235 27.233 106.677 27.233C103.96 27.233 102.741 28.4518 102.741 31.0416V32.4635H100.9V34.6471H102.741V45.819ZM110.422 45.819H113.164V27.4996H110.422V45.819ZM117.468 30.4069C118.369 30.4069 119.067 29.6959 119.067 28.8326C119.067 27.9567 118.369 27.2457 117.468 27.2457C116.579 27.2457 115.868 27.9567 115.868 28.8326C115.868 29.6959 116.579 30.4069 117.468 30.4069ZM116.097 45.819H118.839V32.4635H116.097V45.819ZM127.522 50.5289C131.293 50.5289 133.654 48.4977 133.654 45.4508V32.4635H130.899V34.736H130.836C130.049 33.2252 128.576 32.2096 126.697 32.2096C123.307 32.2096 121.073 34.8375 121.073 39.027V39.0397C121.073 43.2037 123.282 45.8317 126.634 45.8317C128.551 45.8317 130.074 44.9049 130.836 43.4576H130.899V45.2858C130.899 47.152 129.693 48.3199 127.51 48.3199C125.796 48.3199 124.641 47.736 124.272 46.8854L124.222 46.7838H121.505L121.517 46.8981C121.924 48.942 124.095 50.5289 127.522 50.5289ZM127.408 43.5973C125.237 43.5973 123.879 41.8707 123.879 39.0778V39.0651C123.879 36.3102 125.237 34.5582 127.408 34.5582C129.49 34.5582 130.899 36.3229 130.899 39.0651V39.0778C130.899 41.8326 129.503 43.5973 127.408 43.5973ZM136.473 45.819H139.215V38.0875C139.215 36.0055 140.472 34.5582 142.363 34.5582C144.293 34.5582 145.41 35.8785 145.41 38.0875V45.819H148.152V37.567C148.152 34.3424 146.273 32.2096 143.417 32.2096C141.424 32.2096 139.989 33.111 139.278 34.6598H139.215V27.4996H136.473V45.819ZM155.503 46.0856C156.061 46.0856 156.582 46.0221 156.899 45.9713V43.8512C156.696 43.8766 156.455 43.902 156.163 43.902C155.008 43.902 154.398 43.4957 154.398 42.1373V34.6471H156.899V32.4635H154.398V28.985H151.593V32.4635H149.676V34.6471H151.593V42.3024C151.593 44.9684 152.862 46.0856 155.503 46.0856Z" fill="black"/>
<path d="M58.3075 22.8044C60.5985 22.8044 61.952 21.4392 61.952 19.1482V18.281H58.4364V19.3533H60.6571V19.4939C60.6395 20.7771 59.6903 21.6443 58.3192 21.6443C56.7079 21.6443 55.7001 20.4138 55.7001 18.3923V18.3865C55.7001 16.406 56.6786 15.2283 58.2958 15.2283C59.3973 15.2283 60.1649 15.7966 60.5223 16.7751L60.5399 16.8396H61.8876L61.8641 16.7341C61.5126 15.2107 60.2704 14.0681 58.2899 14.0681C55.8876 14.0681 54.3641 15.7263 54.3641 18.3923V18.3982C54.3641 21.1169 55.8876 22.8044 58.3075 22.8044ZM65.7137 22.7869C67.2079 22.7869 68.1571 21.8962 68.3563 20.9177L68.368 20.8533H67.1669L67.1493 20.9001C66.9911 21.363 66.493 21.7498 65.743 21.7498C64.7352 21.7498 64.0966 21.0701 64.0731 19.9041H68.4384V19.4763C68.4384 17.6248 67.3778 16.3826 65.6493 16.3826C63.9208 16.3826 62.8075 17.6716 62.8075 19.5994V19.6052C62.8075 21.5505 63.9032 22.7869 65.7137 22.7869ZM65.6552 17.4197C66.4813 17.4197 67.079 17.9412 67.1844 19.0076H64.0907C64.202 17.9763 64.8348 17.4197 65.6552 17.4197ZM71.5848 22.7869C71.8427 22.7869 72.0829 22.7576 72.2294 22.7341V21.7556C72.1356 21.7673 72.0243 21.7791 71.8895 21.7791C71.3563 21.7791 71.0751 21.5916 71.0751 20.9646V17.5076H72.2294V16.4998H71.0751V14.8943H69.7802V16.4998H68.8954V17.5076H69.7802V21.0408C69.7802 22.2712 70.3661 22.7869 71.5848 22.7869ZM77.8778 22.7869C78.1356 22.7869 78.3759 22.7576 78.5223 22.7341V21.7556C78.4286 21.7673 78.3173 21.7791 78.1825 21.7791C77.6493 21.7791 77.368 21.5916 77.368 20.9646V17.5076H78.5223V16.4998H77.368V14.8943H76.0731V16.4998H75.1884V17.5076H76.0731V21.0408C76.0731 22.2712 76.6591 22.7869 77.8778 22.7869ZM79.618 22.6638H80.8837V19.0955C80.8837 18.1345 81.4637 17.4666 82.3368 17.4666C83.2274 17.4666 83.743 18.0759 83.743 19.0955V22.6638H85.0087V18.8552C85.0087 17.3669 84.1415 16.3826 82.8231 16.3826C81.9032 16.3826 81.2411 16.7986 80.913 17.5134H80.8837V14.2087H79.618V22.6638ZM88.87 22.7869C90.3641 22.7869 91.3134 21.8962 91.5126 20.9177L91.5243 20.8533H90.3231L90.3055 20.9001C90.1473 21.363 89.6493 21.7498 88.8993 21.7498C87.8915 21.7498 87.2528 21.0701 87.2294 19.9041H91.5946V19.4763C91.5946 17.6248 90.5341 16.3826 88.8055 16.3826C87.077 16.3826 85.9637 17.6716 85.9637 19.5994V19.6052C85.9637 21.5505 87.0594 22.7869 88.87 22.7869ZM88.8114 17.4197C89.6376 17.4197 90.2352 17.9412 90.3407 19.0076H87.2469C87.3583 17.9763 87.9911 17.4197 88.8114 17.4197ZM95.702 15.5505C96.118 15.5505 96.4403 15.2224 96.4403 14.824C96.4403 14.4197 96.118 14.0916 95.702 14.0916C95.2919 14.0916 94.9637 14.4197 94.9637 14.824C94.9637 15.2224 95.2919 15.5505 95.702 15.5505ZM95.0692 22.6638H96.3348V16.4998H95.0692V22.6638ZM101.45 22.8044C103.893 22.8044 105.411 21.1228 105.411 18.4392V18.4275C105.411 15.7498 103.888 14.0681 101.45 14.0681C99.0184 14.0681 97.4891 15.7439 97.4891 18.4275V18.4392C97.4891 21.1287 99.0126 22.8044 101.45 22.8044ZM101.45 21.6443C99.8446 21.6443 98.8251 20.408 98.8251 18.4392V18.4275C98.8251 16.4587 99.8505 15.2283 101.45 15.2283C103.056 15.2283 104.069 16.4646 104.069 18.4275V18.4392C104.069 20.3904 103.073 21.6443 101.45 21.6443ZM109.548 22.8044C111.552 22.8044 112.77 21.8259 112.77 20.2849V20.2791C112.77 18.9724 112.02 18.2634 110.274 17.8943L109.349 17.7009C108.294 17.4724 107.813 17.0857 107.813 16.4529V16.447C107.813 15.7087 108.481 15.2107 109.53 15.2048C110.532 15.2048 111.212 15.6794 111.329 16.4646L111.335 16.5466H112.612L112.606 16.447C112.518 15.0291 111.311 14.0681 109.548 14.0681C107.761 14.0681 106.489 15.0583 106.483 16.4998V16.5056C106.483 17.7595 107.286 18.5212 108.944 18.8728L109.864 19.0662C110.983 19.3123 111.446 19.6814 111.446 20.3611V20.3669C111.446 21.158 110.731 21.6677 109.6 21.6677C108.47 21.6677 107.69 21.1814 107.573 20.4021L107.561 20.3259H106.284L106.29 20.4138C106.395 21.9021 107.649 22.8044 109.548 22.8044ZM116.391 22.6638H119.784C121.583 22.6638 122.667 21.7615 122.667 20.2791V20.2673C122.667 19.1541 121.888 18.3279 120.686 18.2048V18.1814C121.577 18.0525 122.251 17.2263 122.251 16.3357V16.324C122.251 15.0466 121.266 14.2087 119.766 14.2087H116.391V22.6638ZM119.45 15.281C120.399 15.281 120.944 15.7087 120.944 16.4822V16.4939C120.944 17.3435 120.317 17.8123 119.157 17.8123H117.704V15.281H119.45ZM119.427 18.8259C120.681 18.8259 121.325 19.2947 121.325 20.2029V20.2146C121.325 21.1169 120.692 21.5916 119.515 21.5916H117.704V18.8259H119.427ZM126.276 22.7869C127.77 22.7869 128.72 21.8962 128.919 20.9177L128.931 20.8533H127.729L127.712 20.9001C127.554 21.363 127.056 21.7498 126.306 21.7498C125.298 21.7498 124.659 21.0701 124.636 19.9041H129.001V19.4763C129.001 17.6248 127.94 16.3826 126.212 16.3826C124.483 16.3826 123.37 17.6716 123.37 19.5994V19.6052C123.37 21.5505 124.466 22.7869 126.276 22.7869ZM126.218 17.4197C127.044 17.4197 127.641 17.9412 127.747 19.0076H124.653C124.765 17.9763 125.397 17.4197 126.218 17.4197ZM132.147 22.7869C132.405 22.7869 132.645 22.7576 132.792 22.7341V21.7556C132.698 21.7673 132.587 21.7791 132.452 21.7791C131.919 21.7791 131.638 21.5916 131.638 20.9646V17.5076H132.792V16.4998H131.638V14.8943H130.343V16.4998H129.458V17.5076H130.343V21.0408C130.343 22.2712 130.929 22.7869 132.147 22.7869ZM135.557 22.7751C136.372 22.7751 137.087 22.3533 137.444 21.6912H137.468V22.6638H138.739V18.4158C138.739 17.1794 137.784 16.3826 136.278 16.3826C134.761 16.3826 133.841 17.197 133.753 18.2576L133.747 18.322H134.942L134.954 18.2693C135.059 17.7771 135.511 17.4314 136.243 17.4314C137.028 17.4314 137.468 17.8416 137.468 18.5212V18.9841L135.792 19.0837C134.333 19.1716 133.501 19.8279 133.501 20.9001V20.9119C133.501 22.0193 134.327 22.7751 135.557 22.7751ZM134.778 20.8826V20.8708C134.778 20.3494 135.2 20.0154 135.962 19.9685L137.468 19.8748V20.3552C137.468 21.158 136.794 21.7615 135.903 21.7615C135.224 21.7615 134.778 21.4216 134.778 20.8826ZM145.056 22.7869C146.819 22.7869 147.979 21.5681 147.979 19.5818V19.5701C147.979 17.5955 146.807 16.3826 145.05 16.3826C143.298 16.3826 142.132 17.6013 142.132 19.5701V19.5818C142.132 21.5623 143.286 22.7869 145.056 22.7869ZM145.061 21.7263C144.071 21.7263 143.427 20.947 143.427 19.5818V19.5701C143.427 18.2224 144.077 17.4431 145.05 17.4431C146.04 17.4431 146.684 18.2224 146.684 19.5701V19.5818C146.684 20.9412 146.052 21.7263 145.061 21.7263ZM148.958 22.6638H150.224V19.072C150.224 18.1111 150.798 17.4666 151.688 17.4666C152.567 17.4666 153.001 17.988 153.001 18.9138V22.6638H154.272V18.6736C154.272 17.2556 153.493 16.3826 152.14 16.3826C151.208 16.3826 150.575 16.8044 150.253 17.4314H150.224V16.4998H148.958V22.6638Z" fill="black"/>
<rect x="10.1395" y="12.681" width="37.6454" height="37.6379" fill="white"/>
<path d="M35.0902 16.1311C35.4508 16.7461 35.6586 17.461 35.6586 18.2239C35.6586 18.4366 35.6572 18.6494 35.6547 18.8621C41.2359 20.6267 45.2931 25.8526 45.2931 32.0086C45.2931 33.0318 45.1801 34.029 44.9676 34.9893C45.1531 35.0935 45.3381 35.1988 45.5224 35.3052C46.1834 35.6868 46.699 36.2244 47.0514 36.8443C47.5279 35.316 47.7848 33.6917 47.7848 32.0086C47.7848 24.2651 42.3478 17.768 35.0902 16.1311Z" fill="#1867DC"/>
<path d="M27.9213 16.1311C20.6637 17.768 15.2267 24.2651 15.2267 32.0086C15.2267 33.6917 15.4836 35.316 15.9602 36.8443C16.3126 36.2244 16.8281 35.6868 17.4891 35.3052C17.6734 35.1988 17.8584 35.0935 18.044 34.9893C17.8314 34.029 17.7184 33.0318 17.7184 32.0086C17.7184 25.8526 21.7756 20.6267 27.3568 18.8621C27.3543 18.6494 27.353 18.4366 27.353 18.2239C27.353 17.461 27.5608 16.7461 27.9213 16.1311Z" fill="#1867DC"/>
<path d="M41.3697 42.4967C41.1832 42.389 40.9973 42.2802 40.812 42.1703C38.3576 44.419 35.0894 45.7933 31.5059 45.7933C27.9224 45.7933 24.6542 44.419 22.1998 42.1703C22.0145 42.2802 21.8287 42.389 21.6421 42.4967C20.9853 42.8758 20.2669 43.0535 19.5582 43.051C22.5341 46.2672 26.7885 48.2845 31.5059 48.2845C36.2234 48.2845 40.4778 46.2672 43.4536 43.051C42.7449 43.0535 42.0265 42.8759 41.3697 42.4967Z" fill="#1867DC"/>
<path d="M44.692 36.7436C41.6874 35.0092 38.503 33.5678 35.2162 32.453C35.2335 32.3072 35.2435 32.1591 35.2435 32.0087C35.2435 30.4699 34.3082 29.1457 32.9762 28.5736C33.654 25.1706 33.9977 21.6928 33.9977 18.224C33.9977 16.8503 32.8799 15.7328 31.506 15.7328C30.132 15.7328 29.0143 16.8503 29.0143 18.224C29.0143 21.6928 29.358 25.1706 30.0357 28.5736C28.7037 29.1457 27.7684 30.4699 27.7684 32.0087C27.7684 32.1591 27.7784 32.3072 27.7957 32.453C24.5089 33.5678 21.3246 35.0092 18.3199 36.7436C17.13 37.4305 16.721 38.9571 17.4079 40.1466C17.8689 40.945 18.7081 41.3917 19.57 41.3917C19.9924 41.3917 20.4203 41.2844 20.8117 41.0584C23.8166 39.3239 26.6575 37.2872 29.2667 34.9985C29.8911 35.4673 30.6666 35.7455 31.506 35.7455C32.3453 35.7455 33.1208 35.4673 33.7454 34.9985C36.3547 37.2873 39.1955 39.3239 42.2003 41.0585C42.5918 41.2844 43.0195 41.3918 43.442 41.3918C44.3037 41.3918 45.1431 40.945 45.6041 40.1467C46.291 38.957 45.8819 37.4305 44.692 36.7436ZM31.506 33.2543C30.819 33.2543 30.2601 32.6955 30.2601 32.0087C30.2601 31.3219 30.819 30.7631 31.506 30.7631C32.1929 30.7631 32.7518 31.3219 32.7518 32.0087C32.7518 32.6955 32.1929 33.2543 31.506 33.2543Z" fill="#1867DC"/>
</g>
<defs>
<clipPath id="clip0">
<rect width="178" height="63" fill="white"/>
</clipPath>
</defs>
</svg>
