<svg width="178" height="63" viewBox="0 0 178 63" fill="none" xmlns="http://www.w3.org/2000/svg">
<g clip-path="url(#clip0)">
<path d="M22.2167 2L156.783 2C163.813 2 166.362 2.7318 168.932 4.10597C171.502 5.48014 173.519 7.49668 174.894 10.0662C176.268 12.6356 177 15.1843 177 22.2127V40.7873C177 47.8157 176.268 50.3644 174.894 52.9338C173.519 55.5033 171.502 57.5199 168.932 58.894C166.362 60.2682 163.813 61 156.783 61H22.2167C15.1869 61 12.6377 60.2682 10.0677 58.894C7.49777 57.5199 5.48083 55.5033 4.10639 52.9338C2.73195 50.3644 2 47.8157 2 40.7873L2 22.2127C2 15.1843 2.73195 12.6356 4.10639 10.0662C5.48083 7.49668 7.49777 5.48014 10.0677 4.10597C12.6377 2.7318 15.1869 2 22.2167 2Z" fill="white"/>
<path d="M77.2997 32.2688C80.6694 32.2689 82.8907 34.932 82.8907 39.0457C82.8907 43.1708 80.6824 45.8211 77.3498 45.8211C75.6273 45.9112 74.0047 45.0091 73.1724 43.4986H73.1093V50.0736H70.384V32.4077H73.022V34.6156H73.0721C73.9415 33.1146 75.5658 32.2129 77.2997 32.2688ZM91.9129 32.2689C95.2827 32.2689 97.5039 34.932 97.5039 39.0457C97.5039 43.1708 95.2956 45.8211 91.9631 45.8211C90.2405 45.9112 88.618 45.0091 87.7856 43.4986H87.7226V50.0736H84.9972V32.4077H87.6352V34.6156H87.6853C88.5547 33.1146 90.179 32.2129 91.9129 32.2689ZM111.478 27.1715C115.326 27.1715 117.964 29.3292 118.053 32.4707H115.302C115.137 30.6537 113.635 29.5569 111.44 29.5569C109.244 29.5569 107.742 30.6666 107.742 32.2817C107.742 33.5689 108.702 34.3263 111.049 34.9061L113.055 35.3987C116.792 36.2821 118.344 37.7827 118.344 40.4459C118.344 43.8522 115.63 45.9856 111.314 45.9856C107.275 45.9856 104.548 43.9023 104.372 40.6091L107.162 40.6092C107.364 42.4148 109.118 43.6003 111.516 43.6003C113.813 43.6003 115.465 42.4147 115.465 40.7867C115.465 39.3735 114.469 38.5273 112.109 37.9474L109.748 37.379C106.404 36.5714 104.852 35.0079 104.852 32.4707C104.852 29.3292 107.59 27.1715 111.478 27.1715ZM156.578 32.2445C160.252 32.2445 162.562 34.7674 162.562 38.7922V39.7258H153.184V39.8905C153.097 40.8787 153.438 41.857 154.121 42.5763C154.805 43.2957 155.764 43.6869 156.756 43.6504C158.079 43.7743 159.325 43.015 159.822 41.7833L162.41 41.7833C162.043 44.1931 159.696 45.8469 156.693 45.8469C152.831 45.8469 150.433 43.2595 150.433 39.1087C150.433 34.9449 152.844 32.2445 156.578 32.2445ZM134.51 32.2445C138.359 32.2445 140.808 34.869 140.808 39.0457C140.808 43.2338 138.372 45.8469 134.51 45.8469C130.649 45.8469 128.213 43.2338 128.213 39.0457C128.213 34.8691 130.673 32.2445 134.51 32.2445ZM124.226 29.2663V32.4077H126.75V34.5655H124.226V41.8836C124.226 43.0204 124.731 43.5502 125.841 43.5502C126.141 43.545 126.44 43.5239 126.738 43.4872V45.632C126.239 45.7253 125.731 45.7675 125.224 45.758C122.536 45.758 121.487 44.7486 121.487 42.1742V34.5655H119.557V32.4077H121.487V29.2663H124.226ZM62.1165 27.4751L68.6913 45.6822H65.701L64.0355 40.761H57.0941L55.4271 45.6822H52.487L59.0618 27.4751H62.1165ZM148.911 32.2688C149.225 32.2677 149.538 32.3018 149.845 32.3705V34.9191C149.448 34.798 149.035 34.7424 148.62 34.7545C147.819 34.722 147.044 35.0412 146.498 35.6284C145.952 36.2156 145.69 37.012 145.78 37.8086V45.6822H143.055V32.4077H145.654V34.6671H145.717C146.08 33.2127 147.413 32.2116 148.911 32.2688ZM29.8212 22.9558C31.0761 22.9558 33.4635 21.2241 35.926 21.4825C38.2667 21.5557 40.4358 22.7281 41.779 24.6461C39.6595 25.9489 38.3552 28.2464 38.3231 30.7338C38.3262 33.5479 40.0118 36.0876 42.6041 37.1838C42.1056 38.8031 41.3541 40.3334 40.3774 41.718C39.0658 43.6796 37.6906 45.5961 35.5079 45.6315C33.3871 45.6804 32.6744 44.3836 30.2418 44.3836C27.7865 44.3836 27.0268 45.5961 24.9927 45.6804C22.914 45.7574 21.3254 43.5868 19.9661 41.6436C17.2493 37.6752 15.1338 30.46 17.97 25.5505C19.3018 23.1577 21.792 21.6394 24.5294 21.551C26.61 21.5082 28.5421 22.9558 29.8212 22.9558ZM134.51 34.4896C132.301 34.4896 130.99 36.1935 130.99 39.0457C130.99 41.9222 132.301 43.6003 134.51 43.6003C136.718 43.6003 138.031 41.9222 138.031 39.0457C138.031 36.1806 136.718 34.4896 134.51 34.4896ZM76.5808 34.5913C74.4985 34.5913 73.0979 36.3954 73.0979 39.0457C73.0979 41.7203 74.4985 43.5116 76.5808 43.5116C78.7003 43.5116 80.0895 41.7576 80.0895 39.0457C80.0895 36.3582 78.7003 34.5913 76.5808 34.5913ZM91.194 34.5913C89.1117 34.5913 87.7111 36.3954 87.7111 39.0457C87.7111 41.7203 89.1117 43.5116 91.194 43.5116C93.3136 43.5116 94.7027 41.7576 94.7027 39.0457C94.7027 36.3582 93.3135 34.5913 91.194 34.5913ZM60.6028 30.5034H60.5269L57.813 38.4901H63.3152L60.6028 30.5034ZM156.578 34.4524C155.682 34.447 154.821 34.7999 154.186 35.4326C153.551 36.0652 153.195 36.9252 153.197 37.8215H159.835C159.885 36.9335 159.561 36.0651 158.943 35.4255C158.325 34.786 157.468 34.4333 156.578 34.4524ZM152.763 15.7892C154.601 15.7892 155.709 17.0443 155.709 19.1175V19.5721H151.046V19.6452C151.005 20.1351 151.172 20.6197 151.507 20.9797C151.842 21.3398 152.313 21.542 152.805 21.5365C153.442 21.6131 154.063 21.2969 154.376 20.7361L155.63 20.7362C155.265 21.9815 154.06 22.7862 152.769 22.6462C151.889 22.6695 151.042 22.3046 150.455 21.6483C149.867 20.9921 149.598 20.1109 149.719 19.2385C149.601 18.3637 149.87 17.4811 150.454 16.8193C151.038 16.1575 151.881 15.7817 152.763 15.7892ZM96.5388 16.2593C97.5492 16.8861 98.1169 18.0314 98.0037 19.2149C98.119 20.3996 97.5518 21.547 96.5406 22.1752C95.5293 22.8033 94.2492 22.8033 93.2379 22.1752C92.2267 21.547 91.6595 20.3996 91.7747 19.2149C91.6616 18.0314 92.2292 16.8861 93.2396 16.2593C94.25 15.6325 95.5285 15.6325 96.5388 16.2593ZM122.953 16.2594C123.963 16.8862 124.531 18.0315 124.418 19.2149C124.533 20.3995 123.966 21.547 122.955 22.1752C121.943 22.8034 120.663 22.8034 119.652 22.1752C118.641 21.547 118.074 20.3995 118.189 19.2149C118.076 18.0315 118.644 16.8862 119.654 16.2594C120.664 15.6326 121.943 15.6326 122.953 16.2594ZM67.8876 16.2594C68.8979 16.8862 69.4654 18.0315 69.3522 19.2149C69.4676 20.3995 68.9006 21.547 67.8894 22.1752C66.8782 22.8034 65.598 22.8034 64.5868 22.1752C63.5756 21.547 63.0086 20.3995 63.124 19.2149C63.0107 18.0315 63.5783 16.8862 64.5886 16.2594C65.5989 15.6326 66.8773 15.6326 67.8876 16.2594ZM102.329 15.7892C103.984 15.7892 104.918 16.6132 104.918 18.0079V22.5188H103.663V21.591H103.56C103.134 22.2686 102.377 22.6646 101.577 22.6276C101.016 22.6859 100.457 22.5044 100.038 22.1279C99.6184 21.7515 99.3779 21.2152 99.3757 20.6517C99.3757 19.4633 100.261 18.7782 101.832 18.6808L103.62 18.5777V18.0079C103.62 17.3105 103.159 16.9168 102.269 16.9168C101.541 16.9168 101.037 17.1838 100.892 17.6506H99.6306C99.7638 16.5166 100.831 15.7892 102.329 15.7892ZM112.797 13.3394V22.5188H111.549V21.4757H111.446C111.022 22.2153 110.223 22.659 109.372 22.6276C107.692 22.6277 106.631 21.3061 106.631 19.2149C106.631 17.1287 107.703 15.8071 109.372 15.8071C110.214 15.7683 111.003 16.2196 111.397 16.9654H111.494V13.3394H112.797ZM139.138 14.2729V15.9467H140.569V17.0442H139.138V20.4391C139.138 21.1307 139.423 21.4335 140.072 21.4335C140.238 21.433 140.404 21.4229 140.569 21.4034V22.4887C140.335 22.5306 140.098 22.5529 139.86 22.5553C138.411 22.5553 137.834 22.0456 137.834 20.7727V17.0442H136.785V15.9467H137.834V14.2729H139.138ZM60.5592 14.9696C61.3568 15.8116 61.7346 16.9669 61.5888 18.1174C61.5888 20.9124 60.0779 22.5189 57.4714 22.5189H54.3108V13.7704H57.4714C58.6284 13.6874 59.7616 14.1275 60.5592 14.9696ZM89.9631 13.3394V22.5188H88.6599V13.3394H89.9631ZM84.2977 15.7892C84.9486 15.7403 85.5863 15.9899 86.031 16.4676C86.4756 16.9453 86.6789 17.5993 86.5834 18.2448V22.5187H85.2801V18.572C85.2801 17.511 84.819 16.9834 83.8552 16.9834C83.4137 16.9628 82.9853 17.136 82.6822 17.4576C82.3792 17.7792 82.2317 18.2171 82.2784 18.6565V22.5188H80.9752V15.9167H82.2297V16.9655H82.3271C82.6658 16.1933 83.4571 15.7209 84.2977 15.7892ZM71.615 15.9167L72.7979 20.9545H72.8953L74.2529 15.9167H75.5031L76.8608 20.9545H76.9639L78.1411 15.9167H79.4443L77.6312 22.5188H76.2793L74.9145 17.6563H74.8114L73.4524 22.5188H72.1133L70.2931 15.9167H71.615ZM129.489 15.7892C130.14 15.7403 130.777 15.9899 131.222 16.4676C131.667 16.9453 131.87 17.5993 131.774 18.2448V22.5187H130.471V18.572C130.471 17.511 130.01 16.9834 129.046 16.9834C128.605 16.9628 128.176 17.136 127.873 17.4576C127.57 17.7792 127.423 18.2171 127.469 18.6565V22.5188H126.166V15.9167H127.421V16.9655H127.518C127.857 16.1933 128.648 15.7209 129.489 15.7892ZM143.641 13.3394V16.9776H143.744C144.099 16.1987 144.904 15.7257 145.757 15.7949C146.404 15.7597 147.034 16.0149 147.473 16.4908C147.913 16.9668 148.118 17.614 148.032 18.2563V22.5188H146.727V18.5777C146.727 17.5231 146.236 16.9891 145.315 16.9891C144.862 16.9519 144.415 17.1167 144.094 17.4394C143.774 17.7621 143.612 18.2098 143.652 18.6629V22.5188H142.349L142.349 13.3394H143.641ZM103.62 19.5356L102.008 19.6387C101.099 19.6995 100.686 20.0088 100.686 20.5909C100.686 21.1851 101.202 21.5308 101.911 21.5308C102.33 21.5733 102.749 21.4437 103.072 21.1716C103.394 20.8996 103.592 20.5084 103.62 20.0876V19.5356ZM94.891 16.9469C93.7582 16.9469 93.121 17.7838 93.121 19.2149C93.121 20.6575 93.7583 21.4879 94.891 21.4879C96.0195 21.4879 96.6625 20.6517 96.6625 19.2149C96.6625 17.7838 96.0195 16.9469 94.891 16.9469ZM66.2402 16.9469C65.1074 16.9469 64.4702 17.7838 64.4702 19.2149C64.4702 20.6575 65.1075 21.4879 66.2402 21.4879C67.3688 21.4879 68.0118 20.6517 68.0118 19.2149C68.0118 17.7838 67.3687 16.9469 66.2402 16.9469ZM121.306 16.9469C120.173 16.9469 119.536 17.7838 119.536 19.2149C119.536 20.6575 120.173 21.4879 121.306 21.4879C122.434 21.4879 123.077 20.6517 123.077 19.2149C123.077 17.7838 122.434 16.9469 121.306 16.9469ZM109.741 16.9777C108.644 16.9777 107.977 17.826 107.977 19.2149C107.977 20.6152 108.637 21.4578 109.741 21.4578C110.84 21.4578 111.519 20.6031 111.519 19.2206C111.519 17.8446 110.833 16.9777 109.741 16.9777ZM57.3196 15.0067H55.6698V21.2817H57.3196C58.1465 21.3311 58.9515 21.0054 59.5113 20.395C60.0711 19.7847 60.3261 18.9546 60.2053 18.1353C60.3173 17.3194 60.0587 16.4961 59.5003 15.8907C58.9419 15.2853 58.1421 14.9611 57.3196 15.0067ZM35.9517 13.7547C36.0937 15.6083 35.5073 17.4442 34.3173 18.8726C33.1626 20.3084 31.4132 21.1354 29.5706 21.1164C29.4534 19.3162 30.0568 17.5432 31.2478 16.188C32.454 14.8144 34.1335 13.9456 35.9517 13.7547ZM152.756 16.8982C152.301 16.8925 151.862 17.0708 151.54 17.3929C151.219 17.7149 151.04 18.1532 151.046 18.6085H154.382C154.415 18.1604 154.257 17.7192 153.948 17.3935C153.638 17.0678 153.205 16.8879 152.756 16.8982Z" fill="black"/>
<rect x="50.8372" y="5.5603" width="117.006" height="49.8448" fill="white"/>
<path d="M64.7821 45.819H67.7655L69.454 40.8678H76.5126L78.1884 45.819H81.1718L74.5194 27.4996H71.4471L64.7821 45.819ZM72.9579 30.5338H73.0087L75.7382 38.5826H70.2157L72.9579 30.5338ZM88.2557 46.0856C91.4677 46.0856 93.702 44.0289 93.994 41.3502L94.0067 41.2614H91.3661L91.3534 41.3629C91.0233 42.8102 89.9442 43.7877 88.2557 43.7877C86.1356 43.7877 84.7264 42.0739 84.7264 39.1539V39.1412C84.7264 36.2848 86.1102 34.5074 88.243 34.5074C90.0331 34.5074 91.0487 35.6119 91.3407 36.9196L91.3661 37.0211H93.9813L93.9686 36.9323C93.7401 34.4186 91.6581 32.2096 88.2177 32.2096C84.4091 32.2096 81.9208 34.8883 81.9208 39.1158V39.1285C81.9208 43.4069 84.3583 46.0856 88.2557 46.0856ZM101.687 46.0856C104.899 46.0856 107.134 44.0289 107.426 41.3502L107.438 41.2614H104.798L104.785 41.3629C104.455 42.8102 103.376 43.7877 101.687 43.7877C99.5673 43.7877 98.1581 42.0739 98.1581 39.1539V39.1412C98.1581 36.2848 99.5419 34.5074 101.675 34.5074C103.465 34.5074 104.48 35.6119 104.772 36.9196L104.798 37.0211H107.413L107.4 36.9323C107.172 34.4186 105.09 32.2096 101.649 32.2096C97.8407 32.2096 95.3524 34.8883 95.3524 39.1158V39.1285C95.3524 43.4069 97.7899 46.0856 101.687 46.0856ZM115.081 46.0856C118.318 46.0856 120.375 44.1559 120.807 42.0358L120.832 41.8961H118.229L118.191 41.9977C117.849 43.0006 116.769 43.8385 115.144 43.8385C112.961 43.8385 111.577 42.3658 111.526 39.8395H120.984V38.9127C120.984 34.901 118.686 32.2096 114.941 32.2096C111.196 32.2096 108.784 35.0026 108.784 39.1793V39.192C108.784 43.4069 111.158 46.0856 115.081 46.0856ZM114.954 34.4567C116.744 34.4567 118.039 35.5865 118.267 37.8971H111.564C111.806 35.6627 113.177 34.4567 114.954 34.4567ZM128.119 46.0856C131.267 46.0856 133.553 44.4098 133.553 41.9723V41.9596C133.553 40.0426 132.512 38.9635 129.782 38.3287L127.611 37.8336C126.177 37.4908 125.631 36.9323 125.631 36.1071V36.0944C125.631 35.028 126.557 34.3297 128.03 34.3297C129.579 34.3297 130.493 35.1422 130.658 36.3102L130.671 36.399H133.248L133.235 36.2467C133.096 33.9742 131.191 32.2096 128.03 32.2096C124.958 32.2096 122.876 33.8473 122.876 36.234V36.2467C122.876 38.1891 124.133 39.4078 126.672 39.9918L128.855 40.4869C130.29 40.8297 130.772 41.3248 130.772 42.1881V42.2008C130.772 43.2799 129.782 43.9655 128.132 43.9655C126.443 43.9655 125.529 43.2418 125.275 42.0104L125.25 41.8834H122.533L122.546 41.9977C122.825 44.4352 124.78 46.0856 128.119 46.0856ZM140.687 46.0856C143.836 46.0856 146.121 44.4098 146.121 41.9723V41.9596C146.121 40.0426 145.08 38.9635 142.35 38.3287L140.18 37.8336C138.745 37.4908 138.199 36.9323 138.199 36.1071V36.0944C138.199 35.028 139.126 34.3297 140.599 34.3297C142.147 34.3297 143.061 35.1422 143.226 36.3102L143.239 36.399H145.816L145.804 36.2467C145.664 33.9742 143.76 32.2096 140.599 32.2096C137.526 32.2096 135.444 33.8473 135.444 36.234V36.2467C135.444 38.1891 136.701 39.4078 139.24 39.9918L141.424 40.4869C142.858 40.8297 143.341 41.3248 143.341 42.1881V42.2008C143.341 43.2799 142.35 43.9655 140.7 43.9655C139.012 43.9655 138.098 43.2418 137.844 42.0104L137.818 41.8834H135.101L135.114 41.9977C135.393 44.4352 137.349 46.0856 140.687 46.0856Z" fill="black"/>
<path d="M68.954 22.6638H70.2665V15.3396H72.8505V14.2087H66.3641V15.3396H68.954V22.6638ZM74.0458 22.7751C74.8602 22.7751 75.5751 22.3533 75.9325 21.6912H75.9559V22.6638H77.2274V18.4158C77.2274 17.1794 76.2723 16.3826 74.7665 16.3826C73.2489 16.3826 72.329 17.197 72.2411 18.2576L72.2352 18.322H73.4305L73.4423 18.2693C73.5477 17.7771 73.9989 17.4314 74.7313 17.4314C75.5165 17.4314 75.9559 17.8416 75.9559 18.5212V18.9841L74.2802 19.0837C72.8212 19.1716 71.9891 19.8279 71.9891 20.9001V20.9119C71.9891 22.0193 72.8153 22.7751 74.0458 22.7751ZM73.2665 20.8826V20.8708C73.2665 20.3494 73.6884 20.0154 74.4501 19.9685L75.9559 19.8748V20.3552C75.9559 21.158 75.2821 21.7615 74.3915 21.7615C73.7118 21.7615 73.2665 21.4216 73.2665 20.8826ZM78.4579 24.7146H79.7235V21.6267H79.7528C80.1161 22.3416 80.8251 22.7869 81.6981 22.7869C83.245 22.7869 84.2587 21.5505 84.2587 19.5876V19.5818C84.2587 17.613 83.2509 16.3826 81.6805 16.3826C80.8016 16.3826 80.1219 16.8279 79.7528 17.5603H79.7235V16.4998H78.4579V24.7146ZM81.3524 21.697C80.3973 21.697 79.7177 20.865 79.7177 19.5876V19.5818C79.7177 18.2986 80.3915 17.4666 81.3524 17.4666C82.3427 17.4666 82.9696 18.2693 82.9696 19.5818V19.5876C82.9696 20.8884 82.3485 21.697 81.3524 21.697ZM87.7274 22.6638H88.993V19.0955C88.993 18.1345 89.5731 17.4666 90.4462 17.4666C91.3368 17.4666 91.8524 18.0759 91.8524 19.0955V22.6638H93.118V18.8552C93.118 17.3669 92.2509 16.3826 90.9325 16.3826C90.0126 16.3826 89.3505 16.7986 89.0223 17.5134H88.993V14.2087H87.7274V22.6638ZM96.9794 22.7869C98.4735 22.7869 99.4227 21.8962 99.6219 20.9177L99.6337 20.8533H98.4325L98.4149 20.9001C98.2567 21.363 97.7587 21.7498 97.0087 21.7498C96.0009 21.7498 95.3622 21.0701 95.3387 19.9041H99.704V19.4763C99.704 17.6248 98.6434 16.3826 96.9149 16.3826C95.1864 16.3826 94.0731 17.6716 94.0731 19.5994V19.6052C94.0731 21.5505 95.1688 22.7869 96.9794 22.7869ZM96.9208 17.4197C97.7469 17.4197 98.3446 17.9412 98.4501 19.0076H95.3563C95.4677 17.9763 96.1005 17.4197 96.9208 17.4197ZM100.688 22.6638H101.954V18.99C101.954 18.0701 102.458 17.5369 103.272 17.5369C103.518 17.5369 103.741 17.5662 103.841 17.6072V16.4294C103.741 16.4119 103.583 16.3826 103.401 16.3826C102.698 16.3826 102.182 16.8337 101.983 17.5544H101.954V16.4998H100.688V22.6638ZM106.987 22.7869C108.481 22.7869 109.431 21.8962 109.63 20.9177L109.641 20.8533H108.44L108.423 20.9001C108.265 21.363 107.766 21.7498 107.016 21.7498C106.009 21.7498 105.37 21.0701 105.347 19.9041H109.712V19.4763C109.712 17.6248 108.651 16.3826 106.923 16.3826C105.194 16.3826 104.081 17.6716 104.081 19.5994V19.6052C104.081 21.5505 105.177 22.7869 106.987 22.7869ZM106.929 17.4197C107.755 17.4197 108.352 17.9412 108.458 19.0076H105.364C105.475 17.9763 106.108 17.4197 106.929 17.4197ZM115.296 22.7869C115.554 22.7869 115.794 22.7576 115.94 22.7341V21.7556C115.847 21.7673 115.735 21.7791 115.6 21.7791C115.067 21.7791 114.786 21.5916 114.786 20.9646V17.5076H115.94V16.4998H114.786V14.8943H113.491V16.4998H112.606V17.5076H113.491V21.0408C113.491 22.2712 114.077 22.7869 115.296 22.7869ZM119.485 22.7869C121.249 22.7869 122.409 21.5681 122.409 19.5818V19.5701C122.409 17.5955 121.237 16.3826 119.479 16.3826C117.727 16.3826 116.561 17.6013 116.561 19.5701V19.5818C116.561 21.5623 117.716 22.7869 119.485 22.7869ZM119.491 21.7263C118.501 21.7263 117.856 20.947 117.856 19.5818V19.5701C117.856 18.2224 118.507 17.4431 119.479 17.4431C120.47 17.4431 121.114 18.2224 121.114 19.5701V19.5818C121.114 20.9412 120.481 21.7263 119.491 21.7263Z" fill="black"/>
<rect x="10.1395" y="12.681" width="37.6454" height="37.6379" fill="white"/>
<path d="M35.463 19L33.2664 21.2031L41.9593 29.9375H23V33.0625H41.9593L33.2664 41.7969L35.463 44L47.926 31.5L35.463 19Z" fill="#53A36D"/>
</g>
<defs>
<clipPath id="clip0">
<rect width="178" height="63" fill="white"/>
</clipPath>
</defs>
</svg>
