<svg width="178" height="63" viewBox="0 0 178 63" fill="none" xmlns="http://www.w3.org/2000/svg">
<g clip-path="url(#clip0)">
<path d="M22.2167 2L156.783 2C163.813 2 166.362 2.7318 168.932 4.10597C171.502 5.48014 173.519 7.49668 174.894 10.0662C176.268 12.6356 177 15.1843 177 22.2127V40.7873C177 47.8157 176.268 50.3644 174.894 52.9338C173.519 55.5033 171.502 57.5199 168.932 58.894C166.362 60.2682 163.813 61 156.783 61H22.2167C15.1869 61 12.6377 60.2682 10.0678 58.894C7.49777 57.5199 5.48083 55.5033 4.10639 52.9338C2.73195 50.3644 2 47.8157 2 40.7873L2 22.2127C2 15.1843 2.73195 12.6356 4.10639 10.0662C5.48083 7.49668 7.49777 5.48014 10.0678 4.10597C12.6377 2.7318 15.1869 2 22.2167 2Z" fill="white"/>
<path d="M77.2997 32.2688C80.6694 32.2689 82.8907 34.932 82.8907 39.0457C82.8907 43.1708 80.6824 45.8211 77.3498 45.8211C75.6273 45.9112 74.0047 45.0091 73.1724 43.4987H73.1093V50.0736H70.384V32.4077H73.022V34.6156H73.0721C73.9415 33.1146 75.5658 32.2129 77.2997 32.2688ZM91.9129 32.2689C95.2827 32.2689 97.5039 34.932 97.5039 39.0457C97.5039 43.1708 95.2956 45.8211 91.9631 45.8211C90.2405 45.9112 88.618 45.0091 87.7856 43.4987H87.7226V50.0736H84.9972V32.4077H87.6352V34.6156H87.6853C88.5547 33.1146 90.179 32.2129 91.9129 32.2689ZM111.478 27.1715C115.326 27.1715 117.964 29.3292 118.053 32.4707H115.302C115.137 30.6537 113.635 29.5569 111.44 29.5569C109.244 29.5569 107.742 30.6666 107.742 32.2817C107.742 33.5689 108.702 34.3263 111.049 34.9061L113.055 35.3987C116.792 36.2821 118.344 37.7827 118.344 40.4459C118.344 43.8522 115.63 45.9856 111.314 45.9856C107.275 45.9856 104.548 43.9023 104.372 40.6091L107.162 40.6092C107.364 42.4148 109.118 43.6003 111.516 43.6003C113.813 43.6003 115.465 42.4147 115.465 40.7867C115.465 39.3735 114.469 38.5273 112.109 37.9474L109.748 37.379C106.404 36.5714 104.852 35.0079 104.852 32.4707C104.852 29.3292 107.59 27.1715 111.478 27.1715ZM156.578 32.2445C160.252 32.2445 162.562 34.7674 162.562 38.7922V39.7258H153.184V39.8905C153.097 40.8787 153.438 41.857 154.121 42.5763C154.805 43.2957 155.764 43.6869 156.756 43.6504C158.079 43.7743 159.325 43.015 159.822 41.7833L162.41 41.7833C162.043 44.1931 159.696 45.8469 156.693 45.8469C152.831 45.8469 150.433 43.2595 150.433 39.1087C150.433 34.9449 152.843 32.2445 156.578 32.2445ZM134.51 32.2445C138.359 32.2445 140.808 34.869 140.808 39.0457C140.808 43.2338 138.372 45.8469 134.51 45.8469C130.649 45.8469 128.213 43.2338 128.213 39.0457C128.213 34.8691 130.673 32.2445 134.51 32.2445ZM124.226 29.2663V32.4077H126.75V34.5655H124.226V41.8836C124.226 43.0204 124.731 43.5502 125.841 43.5502C126.141 43.545 126.44 43.5239 126.738 43.4872V45.632C126.239 45.7253 125.731 45.7675 125.224 45.758C122.536 45.758 121.487 44.7486 121.487 42.1742V34.5655H119.557V32.4077H121.487V29.2663H124.226ZM62.1165 27.4751L68.6913 45.6822H65.701L64.0355 40.761H57.0941L55.4271 45.6822H52.487L59.0618 27.4751H62.1165ZM148.911 32.2688C149.225 32.2677 149.538 32.3018 149.845 32.3705V34.9191C149.448 34.798 149.035 34.7424 148.62 34.7545C147.819 34.722 147.044 35.0412 146.498 35.6284C145.952 36.2156 145.69 37.012 145.78 37.8086V45.6822H143.055V32.4077H145.654V34.6671H145.717C146.08 33.2127 147.413 32.2116 148.911 32.2688ZM29.8212 22.9558C31.0761 22.9558 33.4635 21.2241 35.926 21.4825C38.2667 21.5557 40.4358 22.7281 41.779 24.6461C39.6595 25.9489 38.3552 28.2464 38.3231 30.7338C38.3262 33.5479 40.0118 36.0876 42.6041 37.1838C42.1056 38.8031 41.3541 40.3334 40.3774 41.718C39.0658 43.6796 37.6906 45.5961 35.5079 45.6315C33.3871 45.6804 32.6744 44.3836 30.2418 44.3836C27.7865 44.3836 27.0268 45.5961 24.9927 45.6804C22.914 45.7574 21.3254 43.5868 19.9661 41.6436C17.2493 37.6752 15.1338 30.46 17.97 25.5505C19.3018 23.1577 21.792 21.6394 24.5294 21.551C26.61 21.5082 28.5421 22.9558 29.8212 22.9558ZM134.51 34.4896C132.301 34.4896 130.99 36.1935 130.99 39.0457C130.99 41.9222 132.301 43.6003 134.51 43.6003C136.718 43.6003 138.031 41.9222 138.031 39.0457C138.031 36.1806 136.718 34.4896 134.51 34.4896ZM76.5808 34.5913C74.4985 34.5913 73.0979 36.3954 73.0979 39.0457C73.0979 41.7203 74.4985 43.5116 76.5808 43.5116C78.7003 43.5116 80.0895 41.7576 80.0895 39.0457C80.0895 36.3582 78.7003 34.5913 76.5808 34.5913ZM91.194 34.5913C89.1117 34.5913 87.7111 36.3954 87.7111 39.0457C87.7111 41.7203 89.1117 43.5116 91.194 43.5116C93.3136 43.5116 94.7027 41.7576 94.7027 39.0457C94.7027 36.3582 93.3135 34.5913 91.194 34.5913ZM60.6028 30.5034H60.5269L57.813 38.4901H63.3152L60.6028 30.5034ZM156.578 34.4524C155.682 34.447 154.821 34.7999 154.186 35.4326C153.551 36.0652 153.195 36.9252 153.197 37.8215H159.835C159.885 36.9335 159.561 36.0651 158.943 35.4255C158.325 34.786 157.468 34.4333 156.578 34.4524ZM152.763 15.7892C154.601 15.7892 155.709 17.0443 155.709 19.1175V19.5721H151.046V19.6452C151.005 20.1351 151.172 20.6197 151.507 20.9797C151.842 21.3398 152.313 21.542 152.805 21.5365C153.442 21.6131 154.063 21.2969 154.376 20.7361L155.63 20.7362C155.265 21.9815 154.06 22.7862 152.769 22.6462C151.889 22.6695 151.042 22.3046 150.455 21.6483C149.867 20.9921 149.598 20.1109 149.719 19.2385C149.601 18.3637 149.87 17.4811 150.454 16.8193C151.038 16.1575 151.881 15.7817 152.763 15.7892ZM96.5388 16.2593C97.5492 16.8861 98.1169 18.0314 98.0037 19.2149C98.119 20.3996 97.5518 21.547 96.5406 22.1752C95.5293 22.8033 94.2492 22.8033 93.2379 22.1752C92.2267 21.547 91.6595 20.3996 91.7747 19.2149C91.6616 18.0314 92.2292 16.8861 93.2396 16.2593C94.25 15.6325 95.5285 15.6325 96.5388 16.2593ZM122.953 16.2594C123.963 16.8862 124.531 18.0315 124.418 19.2149C124.533 20.3995 123.966 21.547 122.955 22.1752C121.943 22.8034 120.663 22.8034 119.652 22.1752C118.641 21.547 118.074 20.3995 118.189 19.2149C118.076 18.0315 118.644 16.8862 119.654 16.2594C120.664 15.6326 121.943 15.6326 122.953 16.2594ZM67.8876 16.2594C68.8979 16.8862 69.4654 18.0315 69.3522 19.2149C69.4676 20.3995 68.9006 21.547 67.8894 22.1752C66.8782 22.8034 65.598 22.8034 64.5868 22.1752C63.5756 21.547 63.0086 20.3995 63.124 19.2149C63.0107 18.0315 63.5783 16.8862 64.5886 16.2594C65.5989 15.6326 66.8773 15.6326 67.8876 16.2594ZM102.329 15.7892C103.984 15.7892 104.918 16.6132 104.918 18.0079V22.5188H103.663V21.591H103.56C103.134 22.2686 102.377 22.6646 101.577 22.6276C101.016 22.6859 100.457 22.5044 100.038 22.1279C99.6184 21.7515 99.3779 21.2152 99.3757 20.6517C99.3757 19.4633 100.261 18.7782 101.832 18.6808L103.62 18.5777V18.0079C103.62 17.3105 103.159 16.9168 102.269 16.9168C101.541 16.9168 101.037 17.1838 100.892 17.6506H99.6306C99.7638 16.5166 100.831 15.7892 102.329 15.7892ZM112.797 13.3394V22.5188H111.549V21.4757H111.446C111.022 22.2153 110.223 22.659 109.372 22.6276C107.692 22.6277 106.631 21.3061 106.631 19.2149C106.631 17.1287 107.703 15.8071 109.372 15.8071C110.214 15.7683 111.003 16.2196 111.397 16.9654H111.494V13.3394H112.797ZM139.138 14.2729V15.9467H140.569V17.0442H139.138V20.4391C139.138 21.1307 139.423 21.4335 140.072 21.4335C140.238 21.433 140.404 21.4229 140.569 21.4034V22.4887C140.335 22.5306 140.098 22.5529 139.86 22.5553C138.411 22.5553 137.834 22.0456 137.834 20.7727V17.0442H136.785V15.9467H137.834V14.2729H139.138ZM60.5592 14.9696C61.3568 15.8116 61.7346 16.9669 61.5888 18.1174C61.5888 20.9124 60.0779 22.5189 57.4714 22.5189H54.3108V13.7704H57.4714C58.6284 13.6874 59.7616 14.1275 60.5592 14.9696ZM89.9631 13.3394V22.5188H88.6599V13.3394H89.9631ZM84.2977 15.7892C84.9486 15.7403 85.5863 15.9899 86.031 16.4676C86.4756 16.9453 86.6789 17.5993 86.5834 18.2448V22.5187H85.2801V18.572C85.2801 17.511 84.819 16.9834 83.8552 16.9834C83.4137 16.9628 82.9853 17.136 82.6822 17.4576C82.3792 17.7792 82.2317 18.2171 82.2784 18.6565V22.5188H80.9752V15.9167H82.2297V16.9655H82.3271C82.6658 16.1933 83.4571 15.7209 84.2977 15.7892ZM71.615 15.9167L72.7979 20.9545H72.8953L74.2529 15.9167H75.5031L76.8608 20.9545H76.9639L78.1411 15.9167H79.4443L77.6312 22.5188H76.2793L74.9145 17.6563H74.8114L73.4524 22.5188H72.1133L70.2931 15.9167H71.615ZM129.489 15.7892C130.14 15.7403 130.777 15.9899 131.222 16.4676C131.667 16.9453 131.87 17.5993 131.774 18.2448V22.5187H130.471V18.572C130.471 17.511 130.01 16.9834 129.046 16.9834C128.605 16.9628 128.176 17.136 127.873 17.4576C127.57 17.7792 127.423 18.2171 127.469 18.6565V22.5188H126.166V15.9167H127.421V16.9655H127.518C127.857 16.1933 128.648 15.7209 129.489 15.7892ZM143.641 13.3394V16.9776H143.744C144.099 16.1987 144.904 15.7257 145.757 15.7949C146.405 15.7597 147.034 16.0149 147.473 16.4908C147.913 16.9668 148.118 17.614 148.032 18.2563V22.5188H146.727V18.5777C146.727 17.5231 146.236 16.9891 145.315 16.9891C144.862 16.9519 144.415 17.1167 144.094 17.4394C143.774 17.7621 143.612 18.2098 143.652 18.6629V22.5188H142.349L142.349 13.3394H143.641ZM103.62 19.5356L102.008 19.6387C101.099 19.6995 100.686 20.0088 100.686 20.5909C100.686 21.1851 101.202 21.5308 101.911 21.5308C102.33 21.5733 102.749 21.4437 103.072 21.1716C103.394 20.8996 103.592 20.5084 103.62 20.0876V19.5356ZM94.891 16.9469C93.7582 16.9469 93.121 17.7838 93.121 19.2149C93.121 20.6575 93.7583 21.4879 94.891 21.4879C96.0195 21.4879 96.6625 20.6517 96.6625 19.2149C96.6625 17.7838 96.0195 16.9469 94.891 16.9469ZM66.2402 16.9469C65.1074 16.9469 64.4702 17.7838 64.4702 19.2149C64.4702 20.6575 65.1075 21.4879 66.2402 21.4879C67.3688 21.4879 68.0118 20.6517 68.0118 19.2149C68.0118 17.7838 67.3687 16.9469 66.2402 16.9469ZM121.306 16.9469C120.173 16.9469 119.536 17.7838 119.536 19.2149C119.536 20.6575 120.173 21.4879 121.306 21.4879C122.434 21.4879 123.077 20.6517 123.077 19.2149C123.077 17.7838 122.434 16.9469 121.306 16.9469ZM109.741 16.9777C108.644 16.9777 107.977 17.826 107.977 19.2149C107.977 20.6152 108.637 21.4578 109.741 21.4578C110.84 21.4578 111.519 20.6031 111.519 19.2206C111.519 17.8446 110.833 16.9777 109.741 16.9777ZM57.3196 15.0067H55.6698V21.2817H57.3196C58.1465 21.3311 58.9515 21.0054 59.5113 20.395C60.0711 19.7847 60.3261 18.9546 60.2053 18.1353C60.3173 17.3194 60.0587 16.4961 59.5003 15.8907C58.9419 15.2853 58.1421 14.9611 57.3196 15.0067ZM35.9517 13.7547C36.0937 15.6083 35.5073 17.4442 34.3173 18.8726C33.1626 20.3084 31.4132 21.1354 29.5706 21.1164C29.4534 19.3162 30.0568 17.5432 31.2478 16.188C32.454 14.8144 34.1335 13.9456 35.9517 13.7547ZM152.756 16.8982C152.301 16.8925 151.862 17.0708 151.54 17.3929C151.218 17.7149 151.04 18.1532 151.046 18.6085H154.382C154.415 18.1604 154.257 17.7192 153.948 17.3935C153.638 17.0678 153.205 16.8879 152.756 16.8982Z" fill="black"/>
<rect x="50.8372" y="5.5603" width="117.006" height="49.8448" fill="white"/>
<path d="M54.2196 45.819H57.203L58.8915 40.8678H65.9501L67.6259 45.819H70.6093L63.9569 27.4996H60.8846L54.2196 45.819ZM62.3954 30.5338H62.4462L65.1757 38.5826H59.6532L62.3954 30.5338ZM72.3104 45.819H75.0526V38.0367C75.0526 35.9547 76.2968 34.5582 78.2264 34.5582C80.1307 34.5582 81.0702 35.6881 81.0702 37.694V45.819H83.8251V37.1735C83.8251 34.1012 82.1366 32.2096 79.204 32.2096C77.1854 32.2096 75.8143 33.1237 75.1161 34.4821H75.0526V32.4635H72.3104V45.819ZM91.4677 46.0856C93.3846 46.0856 94.8573 45.1207 95.6571 43.5592H95.7079V45.819H98.4628V27.4996H95.7079V34.736H95.6571C94.8573 33.1617 93.3339 32.2096 91.4423 32.2096C88.0907 32.2096 85.8817 34.8756 85.8817 39.1285V39.1412C85.8817 43.3942 88.0653 46.0856 91.4677 46.0856ZM92.1913 43.7242C90.0204 43.7242 88.6874 41.985 88.6874 39.1412V39.1285C88.6874 36.3102 90.0331 34.5582 92.1913 34.5582C94.2479 34.5582 95.7206 36.361 95.7206 39.1285V39.1412C95.7206 41.9215 94.2606 43.7242 92.1913 43.7242ZM101.281 45.819H104.023V37.859C104.023 35.8658 105.115 34.7106 106.88 34.7106C107.413 34.7106 107.895 34.774 108.111 34.8629V32.3112C107.895 32.2731 107.553 32.2096 107.159 32.2096C105.636 32.2096 104.518 33.1871 104.087 34.7487H104.023V32.4635H101.281V45.819ZM114.967 46.0856C118.788 46.0856 121.302 43.4449 121.302 39.1412V39.1158C121.302 34.8375 118.763 32.2096 114.954 32.2096C111.158 32.2096 108.632 34.8502 108.632 39.1158V39.1412C108.632 43.4323 111.133 46.0856 114.967 46.0856ZM114.979 43.7877C112.834 43.7877 111.437 42.0992 111.437 39.1412V39.1158C111.437 36.1959 112.847 34.5074 114.954 34.5074C117.099 34.5074 118.496 36.1959 118.496 39.1158V39.1412C118.496 42.0865 117.125 43.7877 114.979 43.7877ZM124.907 30.4069C125.808 30.4069 126.507 29.6959 126.507 28.8326C126.507 27.9567 125.808 27.2457 124.907 27.2457C124.018 27.2457 123.307 27.9567 123.307 28.8326C123.307 29.6959 124.018 30.4069 124.907 30.4069ZM123.536 45.819H126.278V32.4635H123.536V45.819ZM134.099 46.0856C136.016 46.0856 137.488 45.1207 138.288 43.5592H138.339V45.819H141.094V27.4996H138.339V34.736H138.288C137.488 33.1617 135.965 32.2096 134.073 32.2096C130.722 32.2096 128.513 34.8756 128.513 39.1285V39.1412C128.513 43.3942 130.696 46.0856 134.099 46.0856ZM134.822 43.7242C132.651 43.7242 131.318 41.985 131.318 39.1412V39.1285C131.318 36.3102 132.664 34.5582 134.822 34.5582C136.879 34.5582 138.351 36.361 138.351 39.1285V39.1412C138.351 41.9215 136.891 43.7242 134.822 43.7242Z" fill="black"/>
<path d="M57.1063 22.6638H60.0887C62.6083 22.6638 64.0907 21.0935 64.0907 18.4216V18.4099C64.0907 15.7498 62.5966 14.2087 60.0887 14.2087H57.1063V22.6638ZM58.4188 21.5271V15.3396H59.9657C61.7469 15.3396 62.7489 16.4353 62.7489 18.4216V18.4333C62.7489 20.4314 61.7587 21.5271 59.9657 21.5271H58.4188ZM67.8407 22.7869C69.6044 22.7869 70.7645 21.5681 70.7645 19.5818V19.5701C70.7645 17.5955 69.5927 16.3826 67.8348 16.3826C66.0829 16.3826 64.9169 17.6013 64.9169 19.5701V19.5818C64.9169 21.5623 66.0712 22.7869 67.8407 22.7869ZM67.8466 21.7263C66.8563 21.7263 66.2118 20.947 66.2118 19.5818V19.5701C66.2118 18.2224 66.8622 17.4431 67.8348 17.4431C68.8251 17.4431 69.4696 18.2224 69.4696 19.5701V19.5818C69.4696 20.9412 68.8368 21.7263 67.8466 21.7263ZM72.9325 22.6638H74.2391L75.5223 18.0466H75.5516L76.8466 22.6638H78.1649L79.8524 16.4998H78.5985L77.4735 21.3513H77.4442L76.1552 16.4998H74.9364L73.6532 21.3513H73.6298L72.5048 16.4998H71.2391L72.9325 22.6638ZM80.6259 22.6638H81.8915V19.072C81.8915 18.1111 82.4657 17.4666 83.3563 17.4666C84.2352 17.4666 84.6688 17.988 84.6688 18.9138V22.6638H85.9403V18.6736C85.9403 17.2556 85.161 16.3826 83.8075 16.3826C82.8759 16.3826 82.243 16.8044 81.9208 17.4314H81.8915V16.4998H80.6259V22.6638ZM87.2118 22.6638H88.4774V14.2087H87.2118V22.6638ZM92.4266 22.7869C94.1903 22.7869 95.3505 21.5681 95.3505 19.5818V19.5701C95.3505 17.5955 94.1786 16.3826 92.4208 16.3826C90.6688 16.3826 89.5028 17.6013 89.5028 19.5701V19.5818C89.5028 21.5623 90.6571 22.7869 92.4266 22.7869ZM92.4325 21.7263C91.4423 21.7263 90.7977 20.947 90.7977 19.5818V19.5701C90.7977 18.2224 91.4481 17.4431 92.4208 17.4431C93.411 17.4431 94.0555 18.2224 94.0555 19.5701V19.5818C94.0555 20.9412 93.4227 21.7263 92.4325 21.7263ZM98.1395 22.7751C98.954 22.7751 99.6688 22.3533 100.026 21.6912H100.05V22.6638H101.321V18.4158C101.321 17.1794 100.366 16.3826 98.8602 16.3826C97.3427 16.3826 96.4227 17.197 96.3348 18.2576L96.329 18.322H97.5243L97.536 18.2693C97.6415 17.7771 98.0927 17.4314 98.8251 17.4314C99.6102 17.4314 100.05 17.8416 100.05 18.5212V18.9841L98.3739 19.0837C96.9149 19.1716 96.0829 19.8279 96.0829 20.9001V20.9119C96.0829 22.0193 96.9091 22.7751 98.1395 22.7751ZM97.3602 20.8826V20.8708C97.3602 20.3494 97.7821 20.0154 98.5438 19.9685L100.05 19.8748V20.3552C100.05 21.158 99.3759 21.7615 98.4852 21.7615C97.8055 21.7615 97.3602 21.4216 97.3602 20.8826ZM104.854 22.7869C105.739 22.7869 106.419 22.3416 106.788 21.6208H106.811V22.6638H108.083V14.2087H106.811V17.5486H106.788C106.419 16.822 105.716 16.3826 104.843 16.3826C103.296 16.3826 102.276 17.613 102.276 19.5759V19.5818C102.276 21.5447 103.284 22.7869 104.854 22.7869ZM105.188 21.697C104.186 21.697 103.571 20.8943 103.571 19.5818V19.5759C103.571 18.2751 104.192 17.4666 105.188 17.4666C106.138 17.4666 106.817 18.2986 106.817 19.5759V19.5818C106.817 20.865 106.143 21.697 105.188 21.697ZM112.542 22.7517C112.97 22.7517 113.309 22.4119 113.309 21.9841C113.309 21.5505 112.97 21.2166 112.542 21.2166C112.108 21.2166 111.768 21.5505 111.768 21.9841C111.768 22.4119 112.108 22.7517 112.542 22.7517ZM114.042 22.6638H115.419L116.198 20.3787H119.456L120.229 22.6638H121.606L118.536 14.2087H117.118L114.042 22.6638ZM117.815 15.6091H117.839L119.099 19.324H116.55L117.815 15.6091ZM122.544 22.6638H123.856V19.7751H125.69C127.349 19.7751 128.497 18.6443 128.497 16.9919V16.9802C128.497 15.322 127.349 14.2087 125.69 14.2087H122.544V22.6638ZM125.362 15.3162C126.505 15.3162 127.161 15.9314 127.161 16.9861V16.9978C127.161 18.0583 126.505 18.6736 125.362 18.6736H123.856V15.3162H125.362ZM129.645 22.6638H130.958V19.8396L131.819 18.8435L134.614 22.6638H136.237L132.757 17.947L135.962 14.2087H134.403L130.993 18.2576H130.958V14.2087H129.645V22.6638ZM142.02 22.7869C143.784 22.7869 144.944 21.5681 144.944 19.5818V19.5701C144.944 17.5955 143.772 16.3826 142.015 16.3826C140.263 16.3826 139.097 17.6013 139.097 19.5701V19.5818C139.097 21.5623 140.251 22.7869 142.02 22.7869ZM142.026 21.7263C141.036 21.7263 140.391 20.947 140.391 19.5818V19.5701C140.391 18.2224 141.042 17.4431 142.015 17.4431C143.005 17.4431 143.649 18.2224 143.649 19.5701V19.5818C143.649 20.9412 143.016 21.7263 142.026 21.7263ZM145.923 22.6638H147.188V19.072C147.188 18.1111 147.763 17.4666 148.653 17.4666C149.532 17.4666 149.966 17.988 149.966 18.9138V22.6638H151.237V18.6736C151.237 17.2556 150.458 16.3826 149.104 16.3826C148.173 16.3826 147.54 16.8044 147.218 17.4314H147.188V16.4998H145.923V22.6638Z" fill="black"/>
<rect x="10.1395" y="12.681" width="37.6454" height="37.6379" fill="white"/>
<g clip-path="url(#clip1)">
<path d="M40.4436 40.9674C39.8006 40.9674 39.2777 40.436 39.2777 39.7832C39.2777 39.1304 39.8006 38.5994 40.4436 38.5994C41.0865 38.5994 41.6094 39.1304 41.6094 39.7832C41.6094 40.436 41.0865 40.9674 40.4436 40.9674ZM27.5565 40.9674C26.9135 40.9674 26.3906 40.436 26.3906 39.7832C26.3906 39.1304 26.9135 38.5994 27.5565 38.5994C28.1994 38.5994 28.7223 39.1304 28.7223 39.7832C28.7223 40.436 28.1994 40.9674 27.5565 40.9674ZM40.8617 33.8361L43.1919 29.7382C43.3255 29.5027 43.246 29.2018 43.0145 29.0658C42.7829 28.9302 42.4862 29.0109 42.3522 29.246L39.9929 33.3957C38.1886 32.5596 36.1622 32.094 34 32.094C31.8378 32.094 29.8114 32.5596 28.0071 33.3957L25.6478 29.246C25.5138 29.0109 25.2171 28.9302 24.9855 29.0658C24.754 29.2018 24.6741 29.5027 24.8081 29.7382L27.1383 33.8361C23.137 36.0458 20.4004 40.159 20 45.0183H48C47.5993 40.159 44.8626 36.0458 40.8617 33.8361Z" fill="#A42FFF"/>
</g>
</g>
<defs>
<clipPath id="clip0">
<rect width="178" height="63" fill="white"/>
</clipPath>
<clipPath id="clip1">
<rect width="28" height="16.8" fill="white" transform="translate(20 29)"/>
</clipPath>
</defs>
</svg>
