<svg width="178" height="63" viewBox="0 0 178 63" fill="none" xmlns="http://www.w3.org/2000/svg">
<g clip-path="url(#clip0)">
<path d="M22.2167 2L156.783 2C163.813 2 166.362 2.7318 168.932 4.10597C171.502 5.48014 173.519 7.49668 174.894 10.0662C176.268 12.6356 177 15.1843 177 22.2127V40.7873C177 47.8157 176.268 50.3644 174.894 52.9338C173.519 55.5033 171.502 57.5199 168.932 58.894C166.362 60.2682 163.813 61 156.783 61H22.2167C15.1869 61 12.6377 60.2682 10.0678 58.894C7.49777 57.5199 5.48083 55.5033 4.10639 52.9338C2.73195 50.3644 2 47.8157 2 40.7873L2 22.2127C2 15.1843 2.73195 12.6356 4.10639 10.0662C5.48083 7.49668 7.49777 5.48014 10.0678 4.10597C12.6377 2.7318 15.1869 2 22.2167 2Z" fill="white"/>
<path d="M77.2997 32.2688C80.6694 32.2689 82.8907 34.932 82.8907 39.0457C82.8907 43.1708 80.6824 45.8211 77.3498 45.8211C75.6273 45.9112 74.0047 45.0091 73.1724 43.4987H73.1093V50.0736H70.384V32.4077H73.022V34.6156H73.0721C73.9415 33.1146 75.5658 32.2129 77.2997 32.2688ZM91.9129 32.2689C95.2827 32.2689 97.5039 34.932 97.5039 39.0457C97.5039 43.1708 95.2956 45.8211 91.9631 45.8211C90.2405 45.9112 88.618 45.0091 87.7856 43.4987H87.7226V50.0736H84.9972V32.4077H87.6352V34.6156H87.6853C88.5547 33.1146 90.179 32.2129 91.9129 32.2689ZM111.478 27.1715C115.326 27.1715 117.964 29.3292 118.053 32.4707H115.302C115.137 30.6537 113.635 29.5569 111.44 29.5569C109.244 29.5569 107.742 30.6666 107.742 32.2817C107.742 33.5689 108.702 34.3263 111.049 34.9061L113.055 35.3987C116.792 36.2821 118.344 37.7827 118.344 40.4459C118.344 43.8522 115.63 45.9856 111.314 45.9856C107.275 45.9856 104.548 43.9023 104.372 40.6091L107.162 40.6092C107.364 42.4148 109.118 43.6003 111.516 43.6003C113.813 43.6003 115.465 42.4147 115.465 40.7867C115.465 39.3735 114.469 38.5273 112.109 37.9474L109.748 37.379C106.404 36.5714 104.852 35.0079 104.852 32.4707C104.852 29.3292 107.59 27.1715 111.478 27.1715ZM156.578 32.2445C160.252 32.2445 162.562 34.7674 162.562 38.7922V39.7258H153.184V39.8905C153.097 40.8787 153.438 41.857 154.121 42.5763C154.805 43.2957 155.764 43.6869 156.756 43.6504C158.079 43.7743 159.325 43.015 159.822 41.7833L162.41 41.7833C162.043 44.1931 159.696 45.8469 156.693 45.8469C152.831 45.8469 150.433 43.2595 150.433 39.1087C150.433 34.9449 152.843 32.2445 156.578 32.2445ZM134.51 32.2445C138.359 32.2445 140.808 34.869 140.808 39.0457C140.808 43.2338 138.372 45.8469 134.51 45.8469C130.649 45.8469 128.213 43.2338 128.213 39.0457C128.213 34.8691 130.673 32.2445 134.51 32.2445ZM124.226 29.2663V32.4077H126.75V34.5655H124.226V41.8836C124.226 43.0204 124.731 43.5502 125.841 43.5502C126.141 43.545 126.44 43.5239 126.738 43.4872V45.632C126.239 45.7253 125.731 45.7675 125.224 45.758C122.536 45.758 121.487 44.7486 121.487 42.1742V34.5655H119.557V32.4077H121.487V29.2663H124.226ZM62.1165 27.4751L68.6913 45.6822H65.701L64.0355 40.761H57.0941L55.4271 45.6822H52.487L59.0618 27.4751H62.1165ZM148.911 32.2688C149.225 32.2677 149.538 32.3018 149.845 32.3705V34.9191C149.448 34.798 149.035 34.7424 148.62 34.7545C147.819 34.722 147.044 35.0412 146.498 35.6284C145.952 36.2156 145.69 37.012 145.78 37.8086V45.6822H143.055V32.4077H145.654V34.6671H145.717C146.08 33.2127 147.413 32.2116 148.911 32.2688ZM29.8212 22.9558C31.0761 22.9558 33.4635 21.2241 35.926 21.4825C38.2667 21.5557 40.4358 22.7281 41.779 24.6461C39.6595 25.9489 38.3552 28.2464 38.3231 30.7338C38.3262 33.5479 40.0118 36.0876 42.6041 37.1838C42.1056 38.8031 41.3541 40.3334 40.3774 41.718C39.0658 43.6796 37.6906 45.5961 35.5079 45.6315C33.3871 45.6804 32.6744 44.3836 30.2418 44.3836C27.7865 44.3836 27.0268 45.5961 24.9927 45.6804C22.914 45.7574 21.3254 43.5868 19.9661 41.6436C17.2493 37.6752 15.1338 30.46 17.97 25.5505C19.3018 23.1577 21.792 21.6394 24.5294 21.551C26.61 21.5082 28.5421 22.9558 29.8212 22.9558ZM134.51 34.4896C132.301 34.4896 130.99 36.1935 130.99 39.0457C130.99 41.9222 132.301 43.6003 134.51 43.6003C136.718 43.6003 138.031 41.9222 138.031 39.0457C138.031 36.1806 136.718 34.4896 134.51 34.4896ZM76.5808 34.5913C74.4985 34.5913 73.0979 36.3954 73.0979 39.0457C73.0979 41.7203 74.4985 43.5116 76.5808 43.5116C78.7003 43.5116 80.0895 41.7576 80.0895 39.0457C80.0895 36.3582 78.7003 34.5913 76.5808 34.5913ZM91.194 34.5913C89.1117 34.5913 87.7111 36.3954 87.7111 39.0457C87.7111 41.7203 89.1117 43.5116 91.194 43.5116C93.3136 43.5116 94.7027 41.7576 94.7027 39.0457C94.7027 36.3582 93.3135 34.5913 91.194 34.5913ZM60.6028 30.5034H60.5269L57.813 38.4901H63.3152L60.6028 30.5034ZM156.578 34.4524C155.682 34.447 154.821 34.7999 154.186 35.4326C153.551 36.0652 153.195 36.9252 153.197 37.8215H159.835C159.885 36.9335 159.561 36.0651 158.943 35.4255C158.325 34.786 157.468 34.4333 156.578 34.4524ZM152.763 15.7892C154.601 15.7892 155.709 17.0443 155.709 19.1175V19.5721H151.046V19.6452C151.005 20.1351 151.172 20.6197 151.507 20.9797C151.842 21.3398 152.313 21.542 152.805 21.5365C153.442 21.6131 154.063 21.2969 154.376 20.7361L155.63 20.7362C155.265 21.9815 154.06 22.7862 152.769 22.6462C151.889 22.6695 151.042 22.3046 150.455 21.6483C149.867 20.9921 149.598 20.1109 149.719 19.2385C149.601 18.3637 149.87 17.4811 150.454 16.8193C151.038 16.1575 151.881 15.7817 152.763 15.7892ZM96.5388 16.2593C97.5492 16.8861 98.1169 18.0314 98.0037 19.2149C98.119 20.3996 97.5518 21.547 96.5406 22.1752C95.5293 22.8033 94.2492 22.8033 93.2379 22.1752C92.2267 21.547 91.6595 20.3996 91.7747 19.2149C91.6616 18.0314 92.2292 16.8861 93.2396 16.2593C94.25 15.6325 95.5285 15.6325 96.5388 16.2593ZM122.953 16.2594C123.963 16.8862 124.531 18.0315 124.418 19.2149C124.533 20.3995 123.966 21.547 122.955 22.1752C121.943 22.8034 120.663 22.8034 119.652 22.1752C118.641 21.547 118.074 20.3995 118.189 19.2149C118.076 18.0315 118.644 16.8862 119.654 16.2594C120.664 15.6326 121.943 15.6326 122.953 16.2594ZM67.8876 16.2594C68.8979 16.8862 69.4654 18.0315 69.3522 19.2149C69.4676 20.3995 68.9006 21.547 67.8894 22.1752C66.8782 22.8034 65.598 22.8034 64.5868 22.1752C63.5756 21.547 63.0086 20.3995 63.124 19.2149C63.0107 18.0315 63.5783 16.8862 64.5886 16.2594C65.5989 15.6326 66.8773 15.6326 67.8876 16.2594ZM102.329 15.7892C103.984 15.7892 104.918 16.6132 104.918 18.0079V22.5188H103.663V21.591H103.56C103.134 22.2686 102.377 22.6646 101.577 22.6276C101.016 22.6859 100.457 22.5044 100.038 22.1279C99.6184 21.7515 99.3779 21.2152 99.3757 20.6517C99.3757 19.4633 100.261 18.7782 101.832 18.6808L103.62 18.5777V18.0079C103.62 17.3105 103.159 16.9168 102.269 16.9168C101.541 16.9168 101.037 17.1838 100.892 17.6506H99.6306C99.7638 16.5166 100.831 15.7892 102.329 15.7892ZM112.797 13.3394V22.5188H111.549V21.4757H111.446C111.022 22.2153 110.223 22.659 109.372 22.6276C107.692 22.6277 106.631 21.3061 106.631 19.2149C106.631 17.1287 107.703 15.8071 109.372 15.8071C110.214 15.7683 111.003 16.2196 111.397 16.9654H111.494V13.3394H112.797ZM139.138 14.2729V15.9467H140.569V17.0442H139.138V20.4391C139.138 21.1307 139.423 21.4335 140.072 21.4335C140.238 21.433 140.404 21.4229 140.569 21.4034V22.4887C140.335 22.5306 140.098 22.5529 139.86 22.5553C138.411 22.5553 137.834 22.0456 137.834 20.7727V17.0442H136.785V15.9467H137.834V14.2729H139.138ZM60.5592 14.9696C61.3568 15.8116 61.7346 16.9669 61.5888 18.1174C61.5888 20.9124 60.0779 22.5189 57.4714 22.5189H54.3108V13.7704H57.4714C58.6284 13.6874 59.7616 14.1275 60.5592 14.9696ZM89.9631 13.3394V22.5188H88.6599V13.3394H89.9631ZM84.2977 15.7892C84.9486 15.7403 85.5863 15.9899 86.031 16.4676C86.4756 16.9453 86.6789 17.5993 86.5834 18.2448V22.5187H85.2801V18.572C85.2801 17.511 84.819 16.9834 83.8552 16.9834C83.4137 16.9628 82.9853 17.136 82.6822 17.4576C82.3792 17.7792 82.2317 18.2171 82.2784 18.6565V22.5188H80.9752V15.9167H82.2297V16.9655H82.3271C82.6658 16.1933 83.4571 15.7209 84.2977 15.7892ZM71.615 15.9167L72.7979 20.9545H72.8953L74.2529 15.9167H75.5031L76.8608 20.9545H76.9639L78.1411 15.9167H79.4443L77.6312 22.5188H76.2793L74.9145 17.6563H74.8114L73.4524 22.5188H72.1133L70.2931 15.9167H71.615ZM129.489 15.7892C130.14 15.7403 130.777 15.9899 131.222 16.4676C131.667 16.9453 131.87 17.5993 131.774 18.2448V22.5187H130.471V18.572C130.471 17.511 130.01 16.9834 129.046 16.9834C128.605 16.9628 128.176 17.136 127.873 17.4576C127.57 17.7792 127.423 18.2171 127.469 18.6565V22.5188H126.166V15.9167H127.421V16.9655H127.518C127.857 16.1933 128.648 15.7209 129.489 15.7892ZM143.641 13.3394V16.9776H143.744C144.099 16.1987 144.904 15.7257 145.757 15.7949C146.405 15.7597 147.034 16.0149 147.473 16.4908C147.913 16.9668 148.118 17.614 148.032 18.2563V22.5188H146.727V18.5777C146.727 17.5231 146.236 16.9891 145.315 16.9891C144.862 16.9519 144.415 17.1167 144.094 17.4394C143.774 17.7621 143.612 18.2098 143.652 18.6629V22.5188H142.349L142.349 13.3394H143.641ZM103.62 19.5356L102.008 19.6387C101.099 19.6995 100.686 20.0088 100.686 20.5909C100.686 21.1851 101.202 21.5308 101.911 21.5308C102.33 21.5733 102.749 21.4437 103.072 21.1716C103.394 20.8996 103.592 20.5084 103.62 20.0876V19.5356ZM94.891 16.9469C93.7582 16.9469 93.121 17.7838 93.121 19.2149C93.121 20.6575 93.7583 21.4879 94.891 21.4879C96.0195 21.4879 96.6625 20.6517 96.6625 19.2149C96.6625 17.7838 96.0195 16.9469 94.891 16.9469ZM66.2402 16.9469C65.1074 16.9469 64.4702 17.7838 64.4702 19.2149C64.4702 20.6575 65.1075 21.4879 66.2402 21.4879C67.3688 21.4879 68.0118 20.6517 68.0118 19.2149C68.0118 17.7838 67.3687 16.9469 66.2402 16.9469ZM121.306 16.9469C120.173 16.9469 119.536 17.7838 119.536 19.2149C119.536 20.6575 120.173 21.4879 121.306 21.4879C122.434 21.4879 123.077 20.6517 123.077 19.2149C123.077 17.7838 122.434 16.9469 121.306 16.9469ZM109.741 16.9777C108.644 16.9777 107.977 17.826 107.977 19.2149C107.977 20.6152 108.637 21.4578 109.741 21.4578C110.84 21.4578 111.519 20.6031 111.519 19.2206C111.519 17.8446 110.833 16.9777 109.741 16.9777ZM57.3196 15.0067H55.6698V21.2817H57.3196C58.1465 21.3311 58.9515 21.0054 59.5113 20.395C60.0711 19.7847 60.3261 18.9546 60.2053 18.1353C60.3173 17.3194 60.0587 16.4961 59.5003 15.8907C58.9419 15.2853 58.1421 14.9611 57.3196 15.0067ZM35.9517 13.7547C36.0937 15.6083 35.5073 17.4442 34.3173 18.8726C33.1626 20.3084 31.4132 21.1354 29.5706 21.1164C29.4534 19.3162 30.0568 17.5432 31.2478 16.188C32.454 14.8144 34.1335 13.9456 35.9517 13.7547ZM152.756 16.8982C152.301 16.8925 151.862 17.0708 151.54 17.3929C151.218 17.7149 151.04 18.1532 151.046 18.6085H154.382C154.415 18.1604 154.257 17.7192 153.948 17.3935C153.638 17.0678 153.205 16.8879 152.756 16.8982Z" fill="black"/>
<rect x="50.8372" y="5.5603" width="117.006" height="49.8448" fill="white"/>
<path d="M55.578 45.819H58.4218V38.151H66.2928V35.7516H58.4218V29.9498H67.0165V27.4996H55.578V45.819ZM70.6473 30.4069C71.5487 30.4069 72.2469 29.6959 72.2469 28.8326C72.2469 27.9567 71.5487 27.2457 70.6473 27.2457C69.7587 27.2457 69.0477 27.9567 69.0477 28.8326C69.0477 29.6959 69.7587 30.4069 70.6473 30.4069ZM69.2762 45.819H72.0184V32.4635H69.2762V45.819ZM74.8495 45.819H77.5917V37.859C77.5917 35.8658 78.6835 34.7106 80.4481 34.7106C80.9813 34.7106 81.4637 34.774 81.6796 34.8629V32.3112C81.4637 32.2731 81.121 32.2096 80.7274 32.2096C79.204 32.2096 78.0868 33.1871 77.6552 34.7487H77.5917V32.4635H74.8495V45.819ZM88.4969 46.0856C91.7343 46.0856 93.7909 44.1559 94.2225 42.0358L94.2479 41.8961H91.6454L91.6073 41.9977C91.2645 43.0006 90.1854 43.8385 88.5604 43.8385C86.3768 43.8385 84.993 42.3658 84.9423 39.8395H94.4003V38.9127C94.4003 34.901 92.1024 32.2096 88.3573 32.2096C84.6122 32.2096 82.2001 35.0026 82.2001 39.1793V39.192C82.2001 43.4069 84.5741 46.0856 88.4969 46.0856ZM88.37 34.4567C90.16 34.4567 91.455 35.5865 91.6835 37.8971H84.9803C85.2216 35.6627 86.5927 34.4567 88.37 34.4567ZM103.63 46.0856C107.019 46.0856 109.216 43.3942 109.216 39.1412V39.1285C109.216 34.8756 107.007 32.2096 103.655 32.2096C101.764 32.2096 100.24 33.1617 99.4403 34.736H99.3768V27.4996H96.6346V45.819H99.3768V43.5592H99.4403C100.227 45.1207 101.713 46.0856 103.63 46.0856ZM102.906 43.7242C100.824 43.7242 99.3641 41.9215 99.3641 39.1412V39.1285C99.3641 36.361 100.837 34.5582 102.906 34.5582C105.064 34.5582 106.41 36.3102 106.41 39.1285V39.1412C106.41 41.985 105.064 43.7242 102.906 43.7242ZM115.259 46.0602C117.023 46.0602 118.572 45.1461 119.347 43.7115H119.397V45.819H122.152V36.6149C122.152 33.9362 120.083 32.2096 116.82 32.2096C113.532 32.2096 111.539 33.9742 111.349 36.2721L111.336 36.4117H113.926L113.951 36.2975C114.18 35.2311 115.157 34.4821 116.744 34.4821C118.445 34.4821 119.397 35.3707 119.397 36.8434V37.8463L115.766 38.0621C112.605 38.2526 110.803 39.6744 110.803 41.9977V42.0231C110.803 44.4225 112.593 46.0602 115.259 46.0602ZM113.57 41.9596V41.9342C113.57 40.8043 114.484 40.0807 116.135 39.9791L119.397 39.776V40.817C119.397 42.5563 117.937 43.8639 116.008 43.8639C114.535 43.8639 113.57 43.1276 113.57 41.9596ZM129.82 46.0856C132.969 46.0856 135.254 44.4098 135.254 41.9723V41.9596C135.254 40.0426 134.213 38.9635 131.483 38.3287L129.312 37.8336C127.878 37.4908 127.332 36.9323 127.332 36.1071V36.0944C127.332 35.028 128.259 34.3297 129.731 34.3297C131.28 34.3297 132.194 35.1422 132.359 36.3102L132.372 36.399H134.949L134.936 36.2467C134.797 33.9742 132.892 32.2096 129.731 32.2096C126.659 32.2096 124.577 33.8473 124.577 36.234V36.2467C124.577 38.1891 125.834 39.4078 128.373 39.9918L130.557 40.4869C131.991 40.8297 132.474 41.3248 132.474 42.1881V42.2008C132.474 43.2799 131.483 43.9655 129.833 43.9655C128.144 43.9655 127.23 43.2418 126.976 42.0104L126.951 41.8834H124.234L124.247 41.9977C124.526 44.4352 126.481 46.0856 129.82 46.0856ZM143.087 46.0856C146.324 46.0856 148.381 44.1559 148.812 42.0358L148.838 41.8961H146.235L146.197 41.9977C145.854 43.0006 144.775 43.8385 143.15 43.8385C140.967 43.8385 139.583 42.3658 139.532 39.8395H148.99V38.9127C148.99 34.901 146.692 32.2096 142.947 32.2096C139.202 32.2096 136.79 35.0026 136.79 39.1793V39.192C136.79 43.4069 139.164 46.0856 143.087 46.0856ZM142.96 34.4567C144.75 34.4567 146.045 35.5865 146.273 37.8971H139.57C139.811 35.6627 141.182 34.4567 142.96 34.4567Z" fill="black"/>
<path d="M58.3075 22.8044C60.5985 22.8044 61.952 21.4392 61.952 19.1482V18.281H58.4364V19.3533H60.6571V19.4939C60.6395 20.7771 59.6903 21.6443 58.3192 21.6443C56.7079 21.6443 55.7001 20.4138 55.7001 18.3923V18.3865C55.7001 16.406 56.6786 15.2283 58.2958 15.2283C59.3973 15.2283 60.1649 15.7966 60.5223 16.7751L60.5399 16.8396H61.8876L61.8641 16.7341C61.5126 15.2107 60.2704 14.0681 58.2899 14.0681C55.8876 14.0681 54.3641 15.7263 54.3641 18.3923V18.3982C54.3641 21.1169 55.8876 22.8044 58.3075 22.8044ZM65.7137 22.7869C67.2079 22.7869 68.1571 21.8962 68.3563 20.9177L68.368 20.8533H67.1669L67.1493 20.9001C66.9911 21.363 66.493 21.7498 65.743 21.7498C64.7352 21.7498 64.0966 21.0701 64.0731 19.9041H68.4384V19.4763C68.4384 17.6248 67.3778 16.3826 65.6493 16.3826C63.9208 16.3826 62.8075 17.6716 62.8075 19.5994V19.6052C62.8075 21.5505 63.9032 22.7869 65.7137 22.7869ZM65.6552 17.4197C66.4813 17.4197 67.079 17.9412 67.1844 19.0076H64.0907C64.202 17.9763 64.8348 17.4197 65.6552 17.4197ZM71.5848 22.7869C71.8427 22.7869 72.0829 22.7576 72.2294 22.7341V21.7556C72.1356 21.7673 72.0243 21.7791 71.8895 21.7791C71.3563 21.7791 71.0751 21.5916 71.0751 20.9646V17.5076H72.2294V16.4998H71.0751V14.8943H69.7802V16.4998H68.8954V17.5076H69.7802V21.0408C69.7802 22.2712 70.3661 22.7869 71.5848 22.7869ZM77.8778 22.7869C78.1356 22.7869 78.3759 22.7576 78.5223 22.7341V21.7556C78.4286 21.7673 78.3173 21.7791 78.1825 21.7791C77.6493 21.7791 77.368 21.5916 77.368 20.9646V17.5076H78.5223V16.4998H77.368V14.8943H76.0731V16.4998H75.1884V17.5076H76.0731V21.0408C76.0731 22.2712 76.6591 22.7869 77.8778 22.7869ZM79.618 22.6638H80.8837V19.0955C80.8837 18.1345 81.4637 17.4666 82.3368 17.4666C83.2274 17.4666 83.743 18.0759 83.743 19.0955V22.6638H85.0087V18.8552C85.0087 17.3669 84.1415 16.3826 82.8231 16.3826C81.9032 16.3826 81.2411 16.7986 80.913 17.5134H80.8837V14.2087H79.618V22.6638ZM88.87 22.7869C90.3641 22.7869 91.3134 21.8962 91.5126 20.9177L91.5243 20.8533H90.3231L90.3055 20.9001C90.1473 21.363 89.6493 21.7498 88.8993 21.7498C87.8915 21.7498 87.2528 21.0701 87.2294 19.9041H91.5946V19.4763C91.5946 17.6248 90.5341 16.3826 88.8055 16.3826C87.077 16.3826 85.9637 17.6716 85.9637 19.5994V19.6052C85.9637 21.5505 87.0594 22.7869 88.87 22.7869ZM88.8114 17.4197C89.6376 17.4197 90.2352 17.9412 90.3407 19.0076H87.2469C87.3583 17.9763 87.9911 17.4197 88.8114 17.4197ZM94.5419 22.6638H95.9188L96.6981 20.3787H99.9559L100.729 22.6638H102.106L99.036 14.2087H97.618L94.5419 22.6638ZM98.3153 15.6091H98.3387L99.5985 19.324H97.0497L98.3153 15.6091ZM102.891 22.6638H104.157V19.072C104.157 18.1111 104.731 17.4666 105.622 17.4666C106.501 17.4666 106.934 17.988 106.934 18.9138V22.6638H108.206V18.6736C108.206 17.2556 107.427 16.3826 106.073 16.3826C105.141 16.3826 104.509 16.8044 104.186 17.4314H104.157V16.4998H102.891V22.6638ZM111.733 22.7869C112.618 22.7869 113.298 22.3416 113.667 21.6208H113.69V22.6638H114.962V14.2087H113.69V17.5486H113.667C113.298 16.822 112.595 16.3826 111.722 16.3826C110.175 16.3826 109.155 17.613 109.155 19.5759V19.5818C109.155 21.5447 110.163 22.7869 111.733 22.7869ZM112.067 21.697C111.065 21.697 110.45 20.8943 110.45 19.5818V19.5759C110.45 18.2751 111.071 17.4666 112.067 17.4666C113.016 17.4666 113.696 18.2986 113.696 19.5759V19.5818C113.696 20.865 113.022 21.697 112.067 21.697ZM116.263 22.6638H117.528V18.99C117.528 18.0701 118.032 17.5369 118.847 17.5369C119.093 17.5369 119.315 17.5662 119.415 17.6072V16.4294C119.315 16.4119 119.157 16.3826 118.975 16.3826C118.272 16.3826 117.757 16.8337 117.557 17.5544H117.528V16.4998H116.263V22.6638ZM122.579 22.7869C124.343 22.7869 125.503 21.5681 125.503 19.5818V19.5701C125.503 17.5955 124.331 16.3826 122.573 16.3826C120.821 16.3826 119.655 17.6013 119.655 19.5701V19.5818C119.655 21.5623 120.809 22.7869 122.579 22.7869ZM122.585 21.7263C121.595 21.7263 120.95 20.947 120.95 19.5818V19.5701C120.95 18.2224 121.6 17.4431 122.573 17.4431C123.563 17.4431 124.208 18.2224 124.208 19.5701V19.5818C124.208 20.9412 123.575 21.7263 122.585 21.7263ZM127.167 15.5505C127.583 15.5505 127.905 15.2224 127.905 14.824C127.905 14.4197 127.583 14.0916 127.167 14.0916C126.757 14.0916 126.429 14.4197 126.429 14.824C126.429 15.2224 126.757 15.5505 127.167 15.5505ZM126.534 22.6638H127.8V16.4998H126.534V22.6638ZM131.409 22.7869C132.294 22.7869 132.974 22.3416 133.343 21.6208H133.366V22.6638H134.638V14.2087H133.366V17.5486H133.343C132.974 16.822 132.27 16.3826 131.397 16.3826C129.85 16.3826 128.831 17.613 128.831 19.5759V19.5818C128.831 21.5447 129.839 22.7869 131.409 22.7869ZM131.743 21.697C130.741 21.697 130.126 20.8943 130.126 19.5818V19.5759C130.126 18.2751 130.747 17.4666 131.743 17.4666C132.692 17.4666 133.372 18.2986 133.372 19.5759V19.5818C133.372 20.865 132.698 21.697 131.743 21.697ZM141.024 22.7869C142.788 22.7869 143.948 21.5681 143.948 19.5818V19.5701C143.948 17.5955 142.776 16.3826 141.018 16.3826C139.266 16.3826 138.1 17.6013 138.1 19.5701V19.5818C138.1 21.5623 139.255 22.7869 141.024 22.7869ZM141.03 21.7263C140.04 21.7263 139.395 20.947 139.395 19.5818V19.5701C139.395 18.2224 140.046 17.4431 141.018 17.4431C142.009 17.4431 142.653 18.2224 142.653 19.5701V19.5818C142.653 20.9412 142.02 21.7263 141.03 21.7263ZM144.927 22.6638H146.192V19.072C146.192 18.1111 146.766 17.4666 147.657 17.4666C148.536 17.4666 148.97 17.988 148.97 18.9138V22.6638H150.241V18.6736C150.241 17.2556 149.462 16.3826 148.108 16.3826C147.177 16.3826 146.544 16.8044 146.222 17.4314H146.192V16.4998H144.927V22.6638Z" fill="black"/>
<rect x="10.1395" y="12.681" width="37.6454" height="37.6379" fill="white"/>
<path d="M17.0106 43.0277L17.2423 42.7013L28.2464 21.8198L28.2675 21.5986L23.413 12.4794C23.0023 11.7107 21.8651 11.9108 21.7282 12.7637L17.0106 43.0277Z" fill="#FFC24A"/>
<path d="M31.8055 28.496L35.4174 24.7998L31.8055 17.9025C31.458 17.2496 30.4997 17.2496 30.1628 17.9025L28.2357 21.5881V21.904L31.8055 28.496Z" fill="#F4BD62"/>
<path d="M17.0106 43.0278L17.1159 42.9224L17.495 42.7645L31.5845 28.7382L31.753 28.2538L28.2464 21.5565L17.0106 43.0278Z" fill="#F6820C"/>
<path d="M32.2585 50.1041L45.0001 42.9962L41.3566 20.5772C41.2408 19.8717 40.3773 19.5979 39.8824 20.1034L17.0106 43.0278L29.6891 50.1041C30.4788 50.5569 31.4582 50.5569 32.2585 50.1041Z" fill="#FDE068"/>
<path d="M44.8947 42.9329L41.2829 20.693C41.167 19.998 40.451 19.7137 39.956 20.2086L17.1475 42.9856L29.6785 49.9882C30.4683 50.4305 31.437 50.4305 32.2373 49.9882L44.8947 42.9329Z" fill="#FCCA3F"/>
<path d="M32.2584 49.8935C31.4581 50.3358 30.4788 50.3358 29.6785 49.8935L17.1053 42.9225L17 43.0278L29.6785 50.1041C30.4788 50.5464 31.4581 50.5464 32.2584 50.1041L45 42.9962L44.9684 42.8066L32.2584 49.8935Z" fill="#EEAB37"/>
</g>
<defs>
<clipPath id="clip0">
<rect width="178" height="63" fill="white"/>
</clipPath>
</defs>
</svg>
