<svg xmlns="http://www.w3.org/2000/svg" width="26" height="20" viewBox="0 0 26 20"><title>icon-mail</title><path fill="#A42FFF" fill-rule="nonzero" d="M13.0175676,11.2167568 C13.4626126,11.2167568 13.9232733,10.9825225 14.3995495,10.5140541 L24.05,0.957297297 C23.6283784,0.559099099 22.871021,0.36 21.7779279,0.36 L3.92927928,0.36 C2.97672673,0.36 2.31306306,0.543483483 1.93828829,0.91045045 L11.6355856,10.5140541 C12.1040541,10.9825225 12.5647147,11.2167568 13.0175676,11.2167568 Z M0.942792793,17.8221622 L8.8481982,9.99873874 L0.942792793,2.19873874 C0.747597598,2.53447447 0.65,3.10054054 0.65,3.89693694 L0.65,16.123964 C0.65,16.9203604 0.747597598,17.4864264 0.942792793,17.8221622 Z M25.0806306,17.8104505 C25.2602102,17.4747147 25.35,16.9125526 25.35,16.123964 L25.35,3.89693694 C25.35,3.11615616 25.2563063,2.5578979 25.0689189,2.22216216 L17.1869369,9.99873874 L25.0806306,17.8104505 Z M22.0707207,19.6609009 C23.0232733,19.6609009 23.6947447,19.4774174 24.0851351,19.1104505 L16.0274775,11.1347748 L15.3247748,11.8374775 C14.5752252,12.5557958 13.8061562,12.914955 13.0175676,12.914955 C12.228979,12.914955 11.4599099,12.5557958 10.7103604,11.8374775 L9.99594595,11.1347748 L1.96171171,19.0987387 C2.39894895,19.4735135 3.1524024,19.6609009 4.22207207,19.6609009 L22.0707207,19.6609009 Z" transform="translate(-417.000000, -306.000000) translate(284.000000, 136.000000) translate(116.000000, 142.000000) translate(17.000000, 11.000000) translate(0.000000, 17.000000)"/></svg>