<svg xmlns="http://www.w3.org/2000/svg" width="22" height="13" viewBox="0 0 22 13"><title>icon-android</title><path fill="#A42FFF" fill-rule="nonzero" d="M18.0627901,9.26047375 C17.5576484,9.26047375 17.146744,8.84927846 17.146744,8.34412997 C17.146744,7.83898148 17.5576484,7.42808298 18.0627901,7.42808298 C18.5679495,7.42808298 18.9788363,7.83898148 18.9788363,8.34412997 C18.9788363,8.84927846 18.5679495,9.26047375 18.0627901,9.26047375 M7.9372149,9.26047375 C7.43205383,9.26047375 7.02116874,8.84927846 7.02116874,8.34412997 C7.02116874,7.83898148 7.43205383,7.42808298 7.9372149,7.42808298 C8.44235668,7.42808298 8.85325938,7.83898148 8.85325938,8.34412997 C8.85325938,8.84927846 8.44235584,9.26047375 7.9372149,9.26047375 M18.3913421,3.74218577 L20.2222372,0.571251226 C20.3271993,0.388992225 20.2647552,0.15619096 20.082793,0.0509388011 C19.9008333,-0.0540157295 19.6677336,0.00842159381 19.5624814,0.190382128 L17.7086849,3.40145453 C16.2910534,2.75448337 14.6989029,2.39413048 13,2.39413048 C11.3010996,2.39413048 9.70894909,2.75448337 8.2913176,3.40145453 L6.43752276,0.190382128 C6.33226892,0.00842159381 6.09917003,-0.0540157295 5.91720866,0.0509388011 C5.73524812,0.15619096 5.67251485,0.388992225 5.77776701,0.571251226 L7.60866042,3.74218577 C4.4647899,5.45208208 2.31456177,8.63491001 2,12.3951362 L24,12.3951362 C23.6851498,8.63490917 21.5349217,5.45208208 18.3913421,3.74218577" transform="translate(-419.000000, -289.000000) translate(284.000000, 136.000000) translate(116.000000, 142.000000) translate(17.000000, 11.000000)"/></svg>