<svg width="178" height="63" viewBox="0 0 178 63" fill="none" xmlns="http://www.w3.org/2000/svg">
<g clip-path="url(#clip0)">
<path d="M22.2167 2L156.783 2C163.813 2 166.362 2.7318 168.932 4.10597C171.502 5.48014 173.519 7.49668 174.894 10.0662C176.268 12.6356 177 15.1843 177 22.2127V40.7873C177 47.8157 176.268 50.3644 174.894 52.9338C173.519 55.5033 171.502 57.5199 168.932 58.894C166.362 60.2682 163.813 61 156.783 61H22.2167C15.1869 61 12.6377 60.2682 10.0678 58.894C7.49777 57.5199 5.48083 55.5033 4.10639 52.9338C2.73195 50.3644 2 47.8157 2 40.7873L2 22.2127C2 15.1843 2.73195 12.6356 4.10639 10.0662C5.48083 7.49668 7.49777 5.48014 10.0678 4.10597C12.6377 2.7318 15.1869 2 22.2167 2Z" fill="white"/>
<path d="M77.2997 32.2688C80.6694 32.2689 82.8907 34.932 82.8907 39.0457C82.8907 43.1708 80.6824 45.8211 77.3498 45.8211C75.6273 45.9112 74.0047 45.0091 73.1724 43.4987H73.1093V50.0736H70.384V32.4077H73.022V34.6156H73.0721C73.9415 33.1146 75.5658 32.2129 77.2997 32.2688ZM91.9129 32.2689C95.2827 32.2689 97.5039 34.932 97.5039 39.0457C97.5039 43.1708 95.2956 45.8211 91.9631 45.8211C90.2405 45.9112 88.618 45.0091 87.7856 43.4987H87.7226V50.0736H84.9972V32.4077H87.6352V34.6156H87.6853C88.5547 33.1146 90.179 32.2129 91.9129 32.2689ZM111.478 27.1715C115.326 27.1715 117.964 29.3292 118.053 32.4707H115.302C115.137 30.6537 113.635 29.5569 111.44 29.5569C109.244 29.5569 107.742 30.6666 107.742 32.2817C107.742 33.5689 108.702 34.3263 111.049 34.9061L113.055 35.3987C116.792 36.2821 118.344 37.7827 118.344 40.4459C118.344 43.8522 115.63 45.9856 111.314 45.9856C107.275 45.9856 104.548 43.9023 104.372 40.6091L107.162 40.6092C107.364 42.4148 109.118 43.6003 111.516 43.6003C113.813 43.6003 115.465 42.4147 115.465 40.7867C115.465 39.3735 114.469 38.5273 112.109 37.9474L109.748 37.379C106.404 36.5714 104.852 35.0079 104.852 32.4707C104.852 29.3292 107.59 27.1715 111.478 27.1715ZM156.578 32.2445C160.252 32.2445 162.562 34.7674 162.562 38.7922V39.7258H153.184V39.8905C153.097 40.8787 153.438 41.857 154.121 42.5763C154.805 43.2957 155.764 43.6869 156.756 43.6504C158.079 43.7743 159.325 43.015 159.822 41.7833L162.41 41.7833C162.043 44.1931 159.696 45.8469 156.693 45.8469C152.831 45.8469 150.433 43.2595 150.433 39.1087C150.433 34.9449 152.843 32.2445 156.578 32.2445ZM134.51 32.2445C138.359 32.2445 140.808 34.869 140.808 39.0457C140.808 43.2338 138.372 45.8469 134.51 45.8469C130.649 45.8469 128.213 43.2338 128.213 39.0457C128.213 34.8691 130.673 32.2445 134.51 32.2445ZM124.226 29.2663V32.4077H126.75V34.5655H124.226V41.8836C124.226 43.0204 124.731 43.5502 125.841 43.5502C126.141 43.545 126.44 43.5239 126.738 43.4872V45.632C126.239 45.7253 125.731 45.7675 125.224 45.758C122.536 45.758 121.487 44.7486 121.487 42.1742V34.5655H119.557V32.4077H121.487V29.2663H124.226ZM62.1165 27.4751L68.6913 45.6822H65.701L64.0355 40.761H57.0941L55.4271 45.6822H52.487L59.0618 27.4751H62.1165ZM148.911 32.2688C149.225 32.2677 149.538 32.3018 149.845 32.3705V34.9191C149.448 34.798 149.035 34.7424 148.62 34.7545C147.819 34.722 147.044 35.0412 146.498 35.6284C145.952 36.2156 145.69 37.012 145.78 37.8086V45.6822H143.055V32.4077H145.654V34.6671H145.717C146.08 33.2127 147.413 32.2116 148.911 32.2688ZM29.8212 22.9558C31.0761 22.9558 33.4635 21.2241 35.926 21.4825C38.2667 21.5557 40.4358 22.7281 41.779 24.6461C39.6595 25.9489 38.3552 28.2464 38.3231 30.7338C38.3262 33.5479 40.0118 36.0876 42.6041 37.1838C42.1056 38.8031 41.3541 40.3334 40.3774 41.718C39.0658 43.6796 37.6906 45.5961 35.5079 45.6315C33.3871 45.6804 32.6744 44.3836 30.2418 44.3836C27.7865 44.3836 27.0268 45.5961 24.9927 45.6804C22.914 45.7574 21.3254 43.5868 19.9661 41.6436C17.2493 37.6752 15.1338 30.46 17.97 25.5505C19.3018 23.1577 21.792 21.6394 24.5294 21.551C26.61 21.5082 28.5421 22.9558 29.8212 22.9558ZM134.51 34.4896C132.301 34.4896 130.99 36.1935 130.99 39.0457C130.99 41.9222 132.301 43.6003 134.51 43.6003C136.718 43.6003 138.031 41.9222 138.031 39.0457C138.031 36.1806 136.718 34.4896 134.51 34.4896ZM76.5808 34.5913C74.4985 34.5913 73.0979 36.3954 73.0979 39.0457C73.0979 41.7203 74.4985 43.5116 76.5808 43.5116C78.7003 43.5116 80.0895 41.7576 80.0895 39.0457C80.0895 36.3582 78.7003 34.5913 76.5808 34.5913ZM91.194 34.5913C89.1117 34.5913 87.7111 36.3954 87.7111 39.0457C87.7111 41.7203 89.1117 43.5116 91.194 43.5116C93.3136 43.5116 94.7027 41.7576 94.7027 39.0457C94.7027 36.3582 93.3135 34.5913 91.194 34.5913ZM60.6028 30.5034H60.5269L57.813 38.4901H63.3152L60.6028 30.5034ZM156.578 34.4524C155.682 34.447 154.821 34.7999 154.186 35.4326C153.551 36.0652 153.195 36.9252 153.197 37.8215H159.835C159.885 36.9335 159.561 36.0651 158.943 35.4255C158.325 34.786 157.468 34.4333 156.578 34.4524ZM152.763 15.7892C154.601 15.7892 155.709 17.0443 155.709 19.1175V19.5721H151.046V19.6452C151.005 20.1351 151.172 20.6197 151.507 20.9797C151.842 21.3398 152.313 21.542 152.805 21.5365C153.442 21.6131 154.063 21.2969 154.376 20.7361L155.63 20.7362C155.265 21.9815 154.06 22.7862 152.769 22.6462C151.889 22.6695 151.042 22.3046 150.455 21.6483C149.867 20.9921 149.598 20.1109 149.719 19.2385C149.601 18.3637 149.87 17.4811 150.454 16.8193C151.038 16.1575 151.881 15.7817 152.763 15.7892ZM96.5388 16.2593C97.5492 16.8861 98.1169 18.0314 98.0037 19.2149C98.119 20.3996 97.5518 21.547 96.5406 22.1752C95.5293 22.8033 94.2492 22.8033 93.2379 22.1752C92.2267 21.547 91.6595 20.3996 91.7747 19.2149C91.6616 18.0314 92.2292 16.8861 93.2396 16.2593C94.25 15.6325 95.5285 15.6325 96.5388 16.2593ZM122.953 16.2594C123.963 16.8862 124.531 18.0315 124.418 19.2149C124.533 20.3995 123.966 21.547 122.955 22.1752C121.943 22.8034 120.663 22.8034 119.652 22.1752C118.641 21.547 118.074 20.3995 118.189 19.2149C118.076 18.0315 118.644 16.8862 119.654 16.2594C120.664 15.6326 121.943 15.6326 122.953 16.2594ZM67.8876 16.2594C68.8979 16.8862 69.4654 18.0315 69.3522 19.2149C69.4676 20.3995 68.9006 21.547 67.8894 22.1752C66.8782 22.8034 65.598 22.8034 64.5868 22.1752C63.5756 21.547 63.0086 20.3995 63.124 19.2149C63.0107 18.0315 63.5783 16.8862 64.5886 16.2594C65.5989 15.6326 66.8773 15.6326 67.8876 16.2594ZM102.329 15.7892C103.984 15.7892 104.918 16.6132 104.918 18.0079V22.5188H103.663V21.591H103.56C103.134 22.2686 102.377 22.6646 101.577 22.6276C101.016 22.6859 100.457 22.5044 100.038 22.1279C99.6184 21.7515 99.3779 21.2152 99.3757 20.6517C99.3757 19.4633 100.261 18.7782 101.832 18.6808L103.62 18.5777V18.0079C103.62 17.3105 103.159 16.9168 102.269 16.9168C101.541 16.9168 101.037 17.1838 100.892 17.6506H99.6306C99.7638 16.5166 100.831 15.7892 102.329 15.7892ZM112.797 13.3394V22.5188H111.549V21.4757H111.446C111.022 22.2153 110.223 22.659 109.372 22.6276C107.692 22.6277 106.631 21.3061 106.631 19.2149C106.631 17.1287 107.703 15.8071 109.372 15.8071C110.214 15.7683 111.003 16.2196 111.397 16.9654H111.494V13.3394H112.797ZM139.138 14.2729V15.9467H140.569V17.0442H139.138V20.4391C139.138 21.1307 139.423 21.4335 140.072 21.4335C140.238 21.433 140.404 21.4229 140.569 21.4034V22.4887C140.335 22.5306 140.098 22.5529 139.86 22.5553C138.411 22.5553 137.834 22.0456 137.834 20.7727V17.0442H136.785V15.9467H137.834V14.2729H139.138ZM60.5592 14.9696C61.3568 15.8116 61.7346 16.9669 61.5888 18.1174C61.5888 20.9124 60.0779 22.5189 57.4714 22.5189H54.3108V13.7704H57.4714C58.6284 13.6874 59.7616 14.1275 60.5592 14.9696ZM89.9631 13.3394V22.5188H88.6599V13.3394H89.9631ZM84.2977 15.7892C84.9486 15.7403 85.5863 15.9899 86.031 16.4676C86.4756 16.9453 86.6789 17.5993 86.5834 18.2448V22.5187H85.2801V18.572C85.2801 17.511 84.819 16.9834 83.8552 16.9834C83.4137 16.9628 82.9853 17.136 82.6822 17.4576C82.3792 17.7792 82.2317 18.2171 82.2784 18.6565V22.5188H80.9752V15.9167H82.2297V16.9655H82.3271C82.6658 16.1933 83.4571 15.7209 84.2977 15.7892ZM71.615 15.9167L72.7979 20.9545H72.8953L74.2529 15.9167H75.5031L76.8608 20.9545H76.9639L78.1411 15.9167H79.4443L77.6312 22.5188H76.2793L74.9145 17.6563H74.8114L73.4524 22.5188H72.1133L70.2931 15.9167H71.615ZM129.489 15.7892C130.14 15.7403 130.777 15.9899 131.222 16.4676C131.667 16.9453 131.87 17.5993 131.774 18.2448V22.5187H130.471V18.572C130.471 17.511 130.01 16.9834 129.046 16.9834C128.605 16.9628 128.176 17.136 127.873 17.4576C127.57 17.7792 127.423 18.2171 127.469 18.6565V22.5188H126.166V15.9167H127.421V16.9655H127.518C127.857 16.1933 128.648 15.7209 129.489 15.7892ZM143.641 13.3394V16.9776H143.744C144.099 16.1987 144.904 15.7257 145.757 15.7949C146.405 15.7597 147.034 16.0149 147.473 16.4908C147.913 16.9668 148.118 17.614 148.032 18.2563V22.5188H146.727V18.5777C146.727 17.5231 146.236 16.9891 145.315 16.9891C144.862 16.9519 144.415 17.1167 144.094 17.4394C143.774 17.7621 143.612 18.2098 143.652 18.6629V22.5188H142.349L142.349 13.3394H143.641ZM103.62 19.5356L102.008 19.6387C101.099 19.6995 100.686 20.0088 100.686 20.5909C100.686 21.1851 101.202 21.5308 101.911 21.5308C102.33 21.5733 102.749 21.4437 103.072 21.1716C103.394 20.8996 103.592 20.5084 103.62 20.0876V19.5356ZM94.891 16.9469C93.7582 16.9469 93.121 17.7838 93.121 19.2149C93.121 20.6575 93.7583 21.4879 94.891 21.4879C96.0195 21.4879 96.6625 20.6517 96.6625 19.2149C96.6625 17.7838 96.0195 16.9469 94.891 16.9469ZM66.2402 16.9469C65.1074 16.9469 64.4702 17.7838 64.4702 19.2149C64.4702 20.6575 65.1075 21.4879 66.2402 21.4879C67.3688 21.4879 68.0118 20.6517 68.0118 19.2149C68.0118 17.7838 67.3687 16.9469 66.2402 16.9469ZM121.306 16.9469C120.173 16.9469 119.536 17.7838 119.536 19.2149C119.536 20.6575 120.173 21.4879 121.306 21.4879C122.434 21.4879 123.077 20.6517 123.077 19.2149C123.077 17.7838 122.434 16.9469 121.306 16.9469ZM109.741 16.9777C108.644 16.9777 107.977 17.826 107.977 19.2149C107.977 20.6152 108.637 21.4578 109.741 21.4578C110.84 21.4578 111.519 20.6031 111.519 19.2206C111.519 17.8446 110.833 16.9777 109.741 16.9777ZM57.3196 15.0067H55.6698V21.2817H57.3196C58.1465 21.3311 58.9515 21.0054 59.5113 20.395C60.0711 19.7847 60.3261 18.9546 60.2053 18.1353C60.3173 17.3194 60.0587 16.4961 59.5003 15.8907C58.9419 15.2853 58.1421 14.9611 57.3196 15.0067ZM35.9517 13.7547C36.0937 15.6083 35.5073 17.4442 34.3173 18.8726C33.1626 20.3084 31.4132 21.1354 29.5706 21.1164C29.4534 19.3162 30.0568 17.5432 31.2478 16.188C32.454 14.8144 34.1335 13.9456 35.9517 13.7547ZM152.756 16.8982C152.301 16.8925 151.862 17.0708 151.54 17.3929C151.218 17.7149 151.04 18.1532 151.046 18.6085H154.382C154.415 18.1604 154.257 17.7192 153.948 17.3935C153.638 17.0678 153.205 16.8879 152.756 16.8982Z" fill="black"/>
<rect x="50.8372" y="5.5603" width="117.006" height="49.8448" fill="white"/>
<path d="M55.2479 45.819H57.9901V37.567C57.9901 35.8405 59.1454 34.5582 60.7704 34.5582C62.3192 34.5582 63.2968 35.5485 63.2968 37.0973V45.819H65.9882V37.4655C65.9882 35.777 67.118 34.5582 68.743 34.5582C70.368 34.5582 71.2948 35.5612 71.2948 37.3004V45.819H74.0497V36.6403C74.0497 33.9615 72.3231 32.2096 69.6825 32.2096C67.7782 32.2096 66.204 33.2125 65.5184 34.8375H65.455C64.9218 33.1617 63.576 32.2096 61.7352 32.2096C59.9833 32.2096 58.6249 33.1364 58.0536 34.5328H57.9901V32.4635H55.2479V45.819ZM80.6259 46.0602C82.3905 46.0602 83.9393 45.1461 84.7137 43.7115H84.7645V45.819H87.5194V36.6149C87.5194 33.9362 85.4501 32.2096 82.1874 32.2096C78.8993 32.2096 76.9061 33.9742 76.7157 36.2721L76.703 36.4117H79.2928L79.3182 36.2975C79.5468 35.2311 80.5243 34.4821 82.1112 34.4821C83.8124 34.4821 84.7645 35.3707 84.7645 36.8434V37.8463L81.1337 38.0621C77.9725 38.2526 76.1698 39.6744 76.1698 41.9977V42.0231C76.1698 44.4225 77.9598 46.0602 80.6259 46.0602ZM78.9374 41.9596V41.9342C78.9374 40.8043 79.8514 40.0807 81.5018 39.9791L84.7645 39.776V40.817C84.7645 42.5563 83.3046 43.8639 81.3749 43.8639C79.9022 43.8639 78.9374 43.1276 78.9374 41.9596ZM95.9237 46.0856C99.1356 46.0856 101.37 44.0289 101.662 41.3502L101.675 41.2614H99.0341L99.0214 41.3629C98.6913 42.8102 97.6122 43.7877 95.9237 43.7877C93.8036 43.7877 92.3944 42.0739 92.3944 39.1539V39.1412C92.3944 36.2848 93.7782 34.5074 95.911 34.5074C97.701 34.5074 98.7167 35.6119 99.0087 36.9196L99.0341 37.0211H101.649L101.637 36.9323C101.408 34.4186 99.326 32.2096 95.8856 32.2096C92.077 32.2096 89.5887 34.8883 89.5887 39.1158V39.1285C89.5887 43.4069 92.0262 46.0856 95.9237 46.0856ZM109.355 46.0856C113.177 46.0856 115.69 43.4449 115.69 39.1412V39.1158C115.69 34.8375 113.151 32.2096 109.343 32.2096C105.547 32.2096 103.02 34.8502 103.02 39.1158V39.1412C103.02 43.4323 105.521 46.0856 109.355 46.0856ZM109.368 43.7877C107.223 43.7877 105.826 42.0992 105.826 39.1412V39.1158C105.826 36.1959 107.235 34.5074 109.343 34.5074C111.488 34.5074 112.885 36.1959 112.885 39.1158V39.1412C112.885 42.0865 111.514 43.7877 109.368 43.7877ZM122.812 46.0856C125.961 46.0856 128.246 44.4098 128.246 41.9723V41.9596C128.246 40.0426 127.205 38.9635 124.475 38.3287L122.305 37.8336C120.87 37.4908 120.324 36.9323 120.324 36.1071V36.0944C120.324 35.028 121.251 34.3297 122.724 34.3297C124.272 34.3297 125.186 35.1422 125.351 36.3102L125.364 36.399H127.941L127.929 36.2467C127.789 33.9742 125.885 32.2096 122.724 32.2096C119.651 32.2096 117.569 33.8473 117.569 36.234V36.2467C117.569 38.1891 118.826 39.4078 121.365 39.9918L123.549 40.4869C124.983 40.8297 125.466 41.3248 125.466 42.1881V42.2008C125.466 43.2799 124.475 43.9655 122.825 43.9655C121.137 43.9655 120.223 43.2418 119.969 42.0104L119.943 41.8834H117.226L117.239 41.9977C117.518 44.4352 119.474 46.0856 122.812 46.0856Z" fill="black"/>
<path d="M57.1063 22.6638H60.0887C62.6083 22.6638 64.0907 21.0935 64.0907 18.4216V18.4099C64.0907 15.7498 62.5966 14.2087 60.0887 14.2087H57.1063V22.6638ZM58.4188 21.5271V15.3396H59.9657C61.7469 15.3396 62.7489 16.4353 62.7489 18.4216V18.4333C62.7489 20.4314 61.7587 21.5271 59.9657 21.5271H58.4188ZM65.8778 15.5505C66.2938 15.5505 66.6161 15.2224 66.6161 14.824C66.6161 14.4197 66.2938 14.0916 65.8778 14.0916C65.4677 14.0916 65.1395 14.4197 65.1395 14.824C65.1395 15.2224 65.4677 15.5505 65.8778 15.5505ZM65.245 22.6638H66.5106V16.4998H65.245V22.6638ZM67.8173 22.6638H69.0829V18.99C69.0829 18.0701 69.5868 17.5369 70.4012 17.5369C70.6473 17.5369 70.87 17.5662 70.9696 17.6072V16.4294C70.87 16.4119 70.7118 16.3826 70.5302 16.3826C69.827 16.3826 69.3114 16.8337 69.1122 17.5544H69.0829V16.4998H67.8173V22.6638ZM74.1161 22.7869C75.6102 22.7869 76.5594 21.8962 76.7587 20.9177L76.7704 20.8533H75.5692L75.5516 20.9001C75.3934 21.363 74.8954 21.7498 74.1454 21.7498C73.1376 21.7498 72.4989 21.0701 72.4755 19.9041H76.8407V19.4763C76.8407 17.6248 75.7802 16.3826 74.0516 16.3826C72.3231 16.3826 71.2098 17.6716 71.2098 19.5994V19.6052C71.2098 21.5505 72.3055 22.7869 74.1161 22.7869ZM74.0575 17.4197C74.8837 17.4197 75.4813 17.9412 75.5868 19.0076H72.493C72.6044 17.9763 73.2372 17.4197 74.0575 17.4197ZM80.4735 22.7869C81.9559 22.7869 82.9872 21.8376 83.1219 20.6013L83.1278 20.5603H81.9091L81.9032 20.6072C81.7509 21.2751 81.2528 21.7263 80.4735 21.7263C79.495 21.7263 78.8446 20.9353 78.8446 19.5876V19.5818C78.8446 18.2634 79.4833 17.4431 80.4677 17.4431C81.2938 17.4431 81.7626 17.9529 81.8973 18.5564L81.9091 18.6033H83.1161L83.1102 18.5623C83.0048 17.4021 82.0438 16.3826 80.4559 16.3826C78.6981 16.3826 77.5497 17.6189 77.5497 19.5701V19.5759C77.5497 21.5505 78.6747 22.7869 80.4735 22.7869ZM86.1864 22.7869C86.4442 22.7869 86.6844 22.7576 86.8309 22.7341V21.7556C86.7372 21.7673 86.6259 21.7791 86.4911 21.7791C85.9579 21.7791 85.6766 21.5916 85.6766 20.9646V17.5076H86.8309V16.4998H85.6766V14.8943H84.3817V16.4998H83.4969V17.5076H84.3817V21.0408C84.3817 22.2712 84.9677 22.7869 86.1864 22.7869ZM90.4696 22.6638H93.452C95.9716 22.6638 97.454 21.0935 97.454 18.4216V18.4099C97.454 15.7498 95.9598 14.2087 93.452 14.2087H90.4696V22.6638ZM91.7821 21.5271V15.3396H93.329C95.1102 15.3396 96.1122 16.4353 96.1122 18.4216V18.4333C96.1122 20.4314 95.1219 21.5271 93.329 21.5271H91.7821ZM101.204 22.7869C102.968 22.7869 104.128 21.5681 104.128 19.5818V19.5701C104.128 17.5955 102.956 16.3826 101.198 16.3826C99.4462 16.3826 98.2802 17.6013 98.2802 19.5701V19.5818C98.2802 21.5623 99.4344 22.7869 101.204 22.7869ZM101.21 21.7263C100.22 21.7263 99.5751 20.947 99.5751 19.5818V19.5701C99.5751 18.2224 100.225 17.4431 101.198 17.4431C102.188 17.4431 102.833 18.2224 102.833 19.5701V19.5818C102.833 20.9412 102.2 21.7263 101.21 21.7263ZM106.296 22.6638H107.602L108.886 18.0466H108.915L110.21 22.6638H111.528L113.216 16.4998H111.962L110.837 21.3513H110.807L109.518 16.4998H108.3L107.016 21.3513H106.993L105.868 16.4998H104.602L106.296 22.6638ZM113.989 22.6638H115.255V19.072C115.255 18.1111 115.829 17.4666 116.72 17.4666C117.599 17.4666 118.032 17.988 118.032 18.9138V22.6638H119.304V18.6736C119.304 17.2556 118.524 16.3826 117.171 16.3826C116.239 16.3826 115.606 16.8044 115.284 17.4314H115.255V16.4998H113.989V22.6638ZM120.575 22.6638H121.841V14.2087H120.575V22.6638ZM125.79 22.7869C127.554 22.7869 128.714 21.5681 128.714 19.5818V19.5701C128.714 17.5955 127.542 16.3826 125.784 16.3826C124.032 16.3826 122.866 17.6013 122.866 19.5701V19.5818C122.866 21.5623 124.02 22.7869 125.79 22.7869ZM125.796 21.7263C124.806 21.7263 124.161 20.947 124.161 19.5818V19.5701C124.161 18.2224 124.811 17.4431 125.784 17.4431C126.774 17.4431 127.419 18.2224 127.419 19.5701V19.5818C127.419 20.9412 126.786 21.7263 125.796 21.7263ZM131.503 22.7751C132.317 22.7751 133.032 22.3533 133.39 21.6912H133.413V22.6638H134.684V18.4158C134.684 17.1794 133.729 16.3826 132.224 16.3826C130.706 16.3826 129.786 17.197 129.698 18.2576L129.692 18.322H130.888L130.899 18.2693C131.005 17.7771 131.456 17.4314 132.188 17.4314C132.974 17.4314 133.413 17.8416 133.413 18.5212V18.9841L131.737 19.0837C130.278 19.1716 129.446 19.8279 129.446 20.9001V20.9119C129.446 22.0193 130.272 22.7751 131.503 22.7751ZM130.724 20.8826V20.8708C130.724 20.3494 131.145 20.0154 131.907 19.9685L133.413 19.8748V20.3552C133.413 21.158 132.739 21.7615 131.849 21.7615C131.169 21.7615 130.724 21.4216 130.724 20.8826ZM138.218 22.7869C139.102 22.7869 139.782 22.3416 140.151 21.6208H140.175V22.6638H141.446V14.2087H140.175V17.5486H140.151C139.782 16.822 139.079 16.3826 138.206 16.3826C136.659 16.3826 135.64 17.613 135.64 19.5759V19.5818C135.64 21.5447 136.647 22.7869 138.218 22.7869ZM138.552 21.697C137.55 21.697 136.934 20.8943 136.934 19.5818V19.5759C136.934 18.2751 137.556 17.4666 138.552 17.4666C139.501 17.4666 140.181 18.2986 140.181 19.5759V19.5818C140.181 20.865 139.507 21.697 138.552 21.697Z" fill="black"/>
</g>
<defs>
<clipPath id="clip0">
<rect width="178" height="63" fill="white"/>
</clipPath>
</defs>
</svg>
